<svg fill="none" xmlns="http://www.w3.org/2000/svg" viewBox="0 0 25 25" preserveAspectRatio="xMidYMid slice"><path d="M13.86 3.987c.76-.933 1.314-2.199 1.314-3.496 0-.175-.016-.349-.047-.491-1.25.047-2.77.839-3.671 1.899-.712.807-1.377 2.088-1.377 3.386 0 .19.032.38.048.443.079.016.205.031.332.031 1.14 0 2.563-.759 3.402-1.772zm.887 2.057c-1.899 0-3.434 1.14-4.415 1.14-1.044 0-2.42-1.076-4.05-1.076C3.165 6.108 0 8.687 0 13.528c0 3.039 1.17 6.235 2.61 8.307C3.86 23.575 4.938 25 6.504 25c1.535 0 2.231-1.029 4.146-1.029 1.946 0 2.389.997 4.098.997 1.693 0 2.816-1.55 3.876-3.07 1.187-1.771 1.694-3.465 1.725-3.56-.11-.031-3.354-1.344-3.354-5.063 0-3.212 2.547-4.636 2.69-4.747-1.662-2.42-4.225-2.484-4.937-2.484z" fill="#fff"/></svg>