<svg fill="none" xmlns="http://www.w3.org/2000/svg" viewBox="0 0 20 20" preserveAspectRatio="xMidYMid slice"><path d="M8.539 1.563a2 2 0 012.922 0l.789.844a2 2 0 001.528.633l1.154-.039A2 2 0 0117 5.068l-.04 1.154a2 2 0 00.634 1.528l.844.789a2 2 0 010 2.922l-.844.789a2 2 0 00-.633 1.528L17 14.932A2 2 0 0114.932 17l-1.154-.04a2 2 0 00-1.528.634l-.789.844a2 2 0 01-2.922 0l-.789-.844a2 2 0 00-1.528-.633L5.068 17A2 2 0 013 14.932l.04-1.154a2 2 0 00-.634-1.528l-.844-.789a2 2 0 010-2.922l.844-.789a2 2 0 00.633-1.528L3 5.068A2 2 0 015.068 3l1.154.04a2 2 0 001.528-.634l.789-.844z" fill="#FFCA4A"/><path d="M8 10l1.5 1.5L12 9" stroke="#fff" stroke-width="1.5" stroke-linecap="round" stroke-linejoin="round"/></svg>