<svg fill="none" xmlns="http://www.w3.org/2000/svg" viewBox="0 0 32 32" preserveAspectRatio="xMidYMid slice"><path fill-rule="evenodd" clip-rule="evenodd" d="M9.586 22.59a.92.92 0 11-1.841 0V11.45l-3.201 3.2a.92.92 0 11-1.302-1.3l4.773-4.774a.92.92 0 011.302 0l4.772 4.773a.92.92 0 11-1.301 1.302l-3.202-3.202v11.142zM24.252 9.227a.92.92 0 10-1.841 0v11.141l-3.201-3.2a.92.92 0 00-1.302 1.301l4.773 4.773a.92.92 0 001.302 0l4.772-4.773a.92.92 0 10-1.301-1.302l-3.202 3.202V9.227z" fill="#fff"/></svg>