<svg fill="none" xmlns="http://www.w3.org/2000/svg" viewBox="0 0 24 24" preserveAspectRatio="xMidYMid slice"><path d="M15 3H8a4 4 0 00-4 4v10a4 4 0 004 4h7.75a4 4 0 004-4v-7" stroke="#000" stroke-width="1.5" stroke-linecap="round"/><rect x="7" y="8" width="6" height="1.5" rx=".8" fill="#000"/><rect x="7" y="8" width="6" height="1.5" rx=".8"/><rect x="7" y="15" width="6" height="1.5" rx=".8" fill="#000"/><rect x="7" y="15" width="6" height="1.5" rx=".8"/><rect x="7" y="11.5" width="10" height="1.5" rx=".8" fill="#000"/><rect x="7" y="11.5" width="10" height="1.5" rx=".8"/><rect x="19" y="2" width="1.5" height="6" rx=".8" fill="#000"/><rect x="19" y="2" width="1.5" height="6" rx=".8"/><rect x="22.8" y="4.3" width="1.5" height="6" rx=".8" transform="rotate(90 22.75 4.25)" fill="#000"/><rect x="22.8" y="4.3" width="1.5" height="6" rx=".8" transform="rotate(90 22.75 4.25)"/></svg>