<svg fill="none" xmlns="http://www.w3.org/2000/svg" viewBox="0 0 28 28" preserveAspectRatio="xMidYMid slice"><path d="M26.728 18.437l-9.95-16.66C16.118.66 14.943 0 13.624 0c-1.32 0-2.495.66-3.154 1.778L.52 18.438c-.688 1.146-.688 2.523-.029 3.698A3.617 3.617 0 003.674 24h19.9a3.584 3.584 0 003.182-1.864c.66-1.175.66-2.552-.028-3.699zM13.624 20.1c-.86 0-1.549-.688-1.549-1.548 0-.86.689-1.548 1.549-1.548s1.548.688 1.548 1.548c0 .86-.688 1.548-1.548 1.548zm1.663-11.785l-.545 6.395a1.118 1.118 0 01-1.204 1.003c-.545-.057-.975-.487-1.004-1.003l-.545-6.395c-.086-.917.602-1.72 1.52-1.806.918-.086 1.72.602 1.806 1.52-.028.086-.028.2-.028.286z" fill="currentColor"/></svg>