<svg fill="none" xmlns="http://www.w3.org/2000/svg" viewBox="0 0 30 30" preserveAspectRatio="xMidYMid slice"><path d="M10.636 22.969H5.348a1.43 1.43 0 01-1.23-.694l-3.92-6.562a1.388 1.388 0 010-1.426l3.92-6.562a1.43 1.43 0 011.23-.694h5.288c.99 0 1.906-.52 2.414-1.37L16.018.693A1.43 1.43 0 0117.248 0h6.935c.506 0 .974.264 1.231.693l3.92 6.563c.263.44.263.986 0 1.426l-2.912 4.876a2.812 2.812 0 000 2.884l2.912 4.876c.263.44.263.986 0 1.426l-3.92 6.563c-.257.43-.725.693-1.23.693h-6.936c-.506 0-.974-.264-1.23-.693l-2.968-4.968a2.812 2.812 0 00-2.415-1.37zm-5.43-13.37l-2.8 4.688c-.263.44-.263.986 0 1.426l2.8 4.688c.257.429.725.693 1.231.693h4.757a1.43 1.43 0 001.23-.694l2.8-4.687c.264-.44.264-.986 0-1.426l-2.8-4.688a1.432 1.432 0 00-1.23-.693H6.437c-.506 0-.974.264-1.23.693zm11.9-7.03l-2.8 4.687c-.262.44-.262.986 0 1.426l2.8 4.687c.257.43.725.694 1.231.694h4.757c.506 0 .974-.264 1.231-.694l2.8-4.687c.263-.44.263-.986 0-1.426l-2.8-4.688a1.433 1.433 0 00-1.23-.693h-4.758c-.506 0-.974.264-1.23.693zm0 14.062l-2.8 4.687c-.262.44-.262.986 0 1.426l2.8 4.688c.257.43.725.693 1.231.693h4.757c.506 0 .974-.264 1.231-.693l2.8-4.688c.263-.44.263-.986 0-1.426l-2.8-4.687a1.433 1.433 0 00-1.23-.694h-4.758a1.43 1.43 0 00-1.23.694z" fill="#242426"/></svg>