<svg fill="none" xmlns="http://www.w3.org/2000/svg" viewBox="0 0 32 27" preserveAspectRatio="xMidYMid slice"><path d="M22.71 15.813l-6.2 8.117-.693-5.667-4.089-.452 10.984-2z" fill="#03578C"/><path d="M16.422 14.213l-4.695 3.6.97-9.406 3.725 5.806z" fill="#03578C"/><path d="M16.319 14.196l-3.62-5.79 3.43.8.19 4.99zm11.675 3.181h-.017l-.953 6.572H16.51v-.018l6.202-8.118 5.283 1.564zm-16.267.435l4.626-3.546-.035-.07 6.393 1.617-10.983 2z" fill="#0099F7"/><path d="M18.934 12.37l-2.512 1.843-.104-.017-.19-4.99 6.496 1.548.018-.018.554 2.034-4.262-.4z" fill="#0474BA"/><path d="M31.685 17.012l-3.69.365-5.284-1.564.312-.105-4.07-3.338 8.747 3.27 1.715.66.38-.4-.588-2.711-2.01-.035-3.326-.313 2.547-1.043 2.997 1.095.225-4.972.208.07 1.836 9.022z" fill="#0474BA"/><path d="M29.797 15.9l-.381.4-1.715-.661-.503-2.486 2.01.035.589 2.712z" fill="#03578C"/><path d="M22.85 2.079l-1.993.504L18.52 3.66l.034-1.409L22.313.01l.536 2.069z" fill="#49484D"/><path d="M23.855 5.955l-5.388-.034.052-2.26 2.339-1.078 1.992-.504 1.005 3.876z" fill="#FFB536"/><path d="M12.699 8.459L5.18 24.07h-.017L.485 25.305 12.7 8.459z" fill="#FFC767"/><path d="M12.733 8.407l-1.005 9.405-4.539 7.493-2.01-1.234L12.7 8.459l.034-.052z" fill="#FFB536"/><path d="M14.552 18.125l-2.547 6.52-4.816.66 4.54-7.493 2.823.313z" fill="#FFC767"/><path d="M16.509 23.949l-.52 2.243-3.95-1.548h-.034l2.546-6.519 1.265.14.693 5.684zm6.115-13.195l-9.892-2.347 5.735-2.486h.086l3.292 3.894.78.939z" fill="#FFB536"/><path d="M29.467 7.868h-.017l-6.826 2.886-.78-.939 3.102-3.53 4.521 1.583z" fill="#FFC767"/><path d="M24.946 6.286l-3.101 3.529-3.378-3.894 5.388.034 1.074.33h.017z" fill="#03578C"/><path d="M29.45 7.868l-.987 2.104-2.027 1.825h-.017l-2.547 1.043-.675-.07-.572-2.016 6.808-2.869.018-.017z" fill="#0099F7"/><path d="M23.023 15.709l-.312.104-6.27-1.582-.018-.018 2.53-1.842 4.07 3.338z" fill="#03578C"/><path d="M27.7 15.639l-8.748-3.268h-.017l4.261.4.676.069 3.326.313.502 2.486z" fill="#0099F7"/><path d="M29.641 7.92l-.225 4.972-2.997-1.095h.017l2.027-1.825.988-2.104h.017l.173.052z" fill="#03578C"/></svg>