<svg fill="none" xmlns="http://www.w3.org/2000/svg" viewBox="0 0 24 24" preserveAspectRatio="xMidYMid slice"><path d="M21.636 11.869c0 4.435-3.869 8.118-8.752 8.118a9.356 9.356 0 01-2.874-.447c-.29-.094-.623-.111-.927-.104a9.469 9.469 0 00-1.036.095 43.87 43.87 0 00-1.805.306c-.189.035-.377.07-.562.102-.812.146-1.57.269-2.177.302-.292.016-.52.01-.688-.014.016-.039.035-.083.058-.132.178-.376.487-.851.846-1.392l.077-.117c.322-.483.672-1.01.918-1.476a3.74 3.74 0 00.324-.791c.063-.25.113-.624-.07-.983a7.598 7.598 0 01-.836-3.467C4.132 7.433 8 3.75 12.884 3.75c4.883 0 8.752 3.683 8.752 8.119z" stroke="currentColor" stroke-width="1.5"/></svg>