<svg fill="none" xmlns="http://www.w3.org/2000/svg" viewBox="0 0 21 20" preserveAspectRatio="xMidYMid slice"><g clip-path="url(#clip0)"><path fill-rule="evenodd" clip-rule="evenodd" d="M10.5 0c5.52 0 10 4.48 10 10s-4.48 10-10 10-10-4.48-10-10 4.48-10 10-10zm0 1.339C5.72 1.339 1.84 5.22 1.84 10c-.001 4.78 3.88 8.66 8.66 8.66s8.66-3.88 8.66-8.66-3.88-8.66-8.66-8.66zm-.384 2.488c.37 0 .67.3.67.67v6.289l3.931 1.02a.67.67 0 01-.336 1.296l-4.434-1.15a.67.67 0 01-.5-.648V4.496c0-.37.299-.669.669-.669z" fill="currentColor"/></g><defs><clipPath id="clip0"><path d="M.5 0h20v20H.5V0z" fill="currentColor"/></clipPath></defs></svg>