<svg fill="none" xmlns="http://www.w3.org/2000/svg" viewBox="0 0 28 29" preserveAspectRatio="xMidYMid slice"><path fill-rule="evenodd" clip-rule="evenodd" d="M21.412 6.729c.273.28.296.719.068 1.025l-.068.08L7.616 21.95a.752.752 0 01-1.08 0 .796.796 0 01-.068-1.026l.068-.08L20.332 6.73a.752.752 0 011.08 0zm-1.03 3.561c1.295.866 2.492 1.942 3.566 3.125.451.52.45 1.305-.015 1.84-2.665 2.922-6.105 5.199-9.929 5.199a10.18 10.18 0 01-3.076-.488l1.32-1.353a8.186 8.186 0 001.756.195c3.18 0 6.223-1.965 8.574-4.481-1.012-1.087-2.15-2.07-3.368-2.838l1.172-1.199zm-6.384-2.115c1.056 0 2.082.174 3.071.488l-1.32 1.352a8.141 8.141 0 00-1.75-.195c-3.18 0-6.225 1.976-8.58 4.505 1.012 1.079 2.147 2.055 3.364 2.818l-1.172 1.2c-1.292-.86-2.486-1.928-3.559-3.102a1.404 1.404 0 01.01-1.841c2.669-2.937 6.112-5.225 9.936-5.225zm2.991 5.59a3.1 3.1 0 01.048.55c0 1.712-1.359 3.103-3.033 3.103-.184 0-.364-.017-.538-.05l3.523-3.604zm-2.985-2.554c.18 0 .358.016.53.047l-3.517 3.598a3.183 3.183 0 01-.046-.542c0-1.713 1.359-3.103 3.033-3.103z" fill="currentColor"/></svg>