<svg fill="none" xmlns="http://www.w3.org/2000/svg" viewBox="0 0 20 19" preserveAspectRatio="xMidYMid slice"><path fill-rule="evenodd" clip-rule="evenodd" d="M1.573 9.166l2.083 1.496.02.015.02.016.037.035.017.018.016.02.016.019.015.02.014.021.013.022.012.022.01.023.011.023.01.024.007.024.008.024.006.025.005.025.004.025.003.025.001.026.001.025-.001.051-.006.05-.005.025-.005.025-.007.025-.008.024-.008.024-.01.023-.01.023-.012.023-.013.022-.028.042-.015.02-.033.038-.018.018-.018.017-.02.017-.019.015-.041.029-.022.012-.022.012-.023.011-.046.019-.024.007-.024.007-.024.006-.05.008-.024.003-.05.001H3.29l-.025-.003-.025-.003-.024-.004-.025-.005-.024-.006-.024-.007-.047-.018-.022-.01-.023-.012-.022-.012-.021-.014-.02-.014-.317-.226c1.05 3.756 4.77 6.176 8.68 5.478 2.88-.514 5.193-2.614 6.049-5.383a.726.726 0 01.92-.492c.385.129.596.56.472.96-1.023 3.31-3.776 5.81-7.193 6.42-4.685.836-9.157-2.107-10.366-6.677l-.18.262-.015.02-.016.02-.016.02-.018.018-.018.017-.018.017-.02.016-.02.015-.02.014-.022.013-.022.013-.022.011-.023.01-.047.018-.024.007-.024.007-.024.005-.025.004-.025.003-.025.002H.56l-.024-.001-.025-.003-.025-.003-.049-.01-.024-.007-.047-.017-.023-.01-.022-.01-.023-.013-.042-.026-.02-.015-.02-.015-.02-.017-.018-.017-.017-.018-.017-.019L.128 12l-.016-.02-.014-.021-.026-.043-.011-.023-.011-.023-.01-.023-.008-.024-.008-.024-.007-.025-.005-.025-.005-.025-.006-.05L0 11.648v-.05l.002-.026.003-.025.004-.025.006-.025.006-.025.007-.024.017-.048.021-.046.013-.022.013-.022.014-.02 1.467-2.124zm17.145-1.964l.228-.33.015-.02.016-.02.016-.02.018-.018.036-.034.04-.031.02-.014.022-.014.022-.012.022-.011.023-.01.023-.01.024-.008.024-.008.024-.006.024-.005.025-.004.025-.003.025-.002h.074l.025.003.05.009.024.005.024.007.023.008.024.009.023.01.023.01.021.012.043.027.02.015.02.015.02.016.035.036.017.018.016.02.015.02.015.02.013.022.013.022.011.023.011.023.01.023.008.024.008.024.012.05.005.025.003.025.003.025.001.025v.051l-.003.026-.002.025-.004.025-.012.05-.007.024-.008.024-.01.024-.01.023-.01.023-.013.022-.026.043-1.468 2.122-2.083-1.495-.04-.031-.037-.035-.017-.018-.016-.02-.016-.019-.015-.02-.014-.022-.013-.021-.012-.023-.01-.022-.02-.047-.008-.024-.008-.025-.006-.024-.005-.025-.004-.025-.003-.026-.002-.025v-.025l.001-.051.006-.05.005-.026.012-.049.008-.024.009-.024.01-.023.01-.023.011-.023.013-.022.028-.042.015-.02.016-.02.035-.036.018-.018.02-.016.019-.015.041-.029.022-.013.022-.011.023-.011.046-.019.024-.008.048-.012.05-.008.024-.003.025-.001h.05l.025.002.025.003.024.005.025.005.024.006.024.007.023.009.024.009.023.01.022.012.022.012.02.013.022.015.244.175c-.909-3.723-4.446-6.272-8.332-5.807-2.825.338-5.2 2.207-6.252 4.821a.721.721 0 01-.958.409.776.776 0 01-.391-1C2.579 2.69 5.405.466 8.757.065c4.68-.56 8.95 2.573 9.961 7.137z" fill="currentColor"/></svg>