<svg fill="none" xmlns="http://www.w3.org/2000/svg" viewBox="0 0 30 30" preserveAspectRatio="xMidYMid slice"><path d="M6.911.05H23.09a6.846 6.846 0 016.861 6.861V23.09a6.846 6.846 0 01-6.861 6.861H6.91A6.846 6.846 0 01.05 23.09V6.91A6.846 6.846 0 016.91.051z" fill="url(#paint0_linear)"/><path d="M6.6 8.553c-.157 0-.305.027-.446.083l2.814 2.897 2.845 2.948.051.062.084.083.083.083.166.177 2.44 2.502c.04.025.158.134.25.18.118.06.247.114.38.119a.9.9 0 00.416-.099c.097-.046.14-.114.251-.2l2.824-2.917 2.855-2.938 2.752-2.835a1.207 1.207 0 00-.582-.145H6.601zm-.86.353c-.3.284-.489.712-.489 1.194v9.51c0 .39.126.745.332 1.017l.395-.373 2.938-2.856 2.606-2.522-.052-.063-2.855-2.938L5.76 8.927l-.02-.021zm18.998.093l-2.782 2.876-2.845 2.938-.052.052 2.71 2.627 2.938 2.855.177.166c.158-.254.249-.567.249-.903V10.1c0-.43-.15-.82-.395-1.1zm-12.884 6.22L9.26 17.74l-2.95 2.856-.374.363c.197.127.422.208.665.208h17.182c.293 0 .558-.112.779-.29l-.187-.188-2.949-2.855-2.71-2.616-2.44 2.513c-.131.087-.22.184-.348.244-.208.096-.435.177-.664.173-.23-.003-.454-.093-.66-.194-.103-.05-.158-.101-.279-.203l-2.47-2.533z" fill="#fff"/><defs><linearGradient id="paint0_linear" x1="15.2" y1="29.8" x2="15.2" y2=".4" gradientUnits="userSpaceOnUse"><stop stop-color="#70EFFF"/><stop offset="1" stop-color="#5770FF"/></linearGradient></defs></svg>