<svg fill="none" xmlns="http://www.w3.org/2000/svg" viewBox="0 -3 25 25" preserveAspectRatio="xMidYMid slice"><path d="M3.744 19.576h17.732c2.218 0 3.524-1.295 3.524-3.722V3.711C25 1.296 23.694 0 21.256 0H3.524C1.307 0 0 1.296 0 3.711v12.143c0 2.427 1.307 3.722 3.744 3.722zm7.576-9.552L3.58 2.383c.076-.011.153-.011.23-.011h17.38c.088 0 .176 0 .253.01l-7.74 7.642c-.45.44-.802.626-1.186.626-.396 0-.747-.187-1.197-.626zm-8.981-5.94l5.709 5.622-5.71 5.665V4.084zm14.635 5.622l5.687-5.6v11.232l-5.687-5.632zM3.81 17.205c-.12 0-.23-.011-.33-.022l6.061-6.006.505.494c.813.802 1.614 1.153 2.47 1.153.846 0 1.647-.351 2.46-1.153l.505-.505 6.06 6.017c-.11.01-.23.022-.35.022H3.81z" fill="#000"/></svg>