<svg fill="none" xmlns="http://www.w3.org/2000/svg" viewBox="0 0 22 14" preserveAspectRatio="xMidYMid slice"><path d="M10.992 13.099c6.087 0 10.027-4.893 10.027-6.372 0-1.487-3.948-6.373-10.027-6.373C5.001.354.972 5.24.972 6.727c0 1.479 4.022 6.372 10.02 6.372zM11 10.572c-2.138 0-3.867-1.758-3.874-3.845C7.118 4.58 8.861 2.88 10.999 2.88c2.132 0 3.868 1.707 3.868 3.846 0 2.087-1.736 3.845-3.868 3.845zm-.007-2.322c.842 0 1.53-.681 1.53-1.516a1.54 1.54 0 00-1.53-1.53c-.842 0-1.523.695-1.523 1.53a1.52 1.52 0 001.523 1.516z" fill="#A5A7BD"/></svg>