<svg fill="none" xmlns="http://www.w3.org/2000/svg" preserveAspectRatio="xMidYMid slice" viewBox="0 0 24 24"><path fill-rule="evenodd" clip-rule="evenodd" d="M3 11.222C3 6.69 6.943 3 11.79 3c4.847 0 8.79 3.689 8.79 8.222 0 4.534-3.943 8.223-8.79 8.223-.779 0-1.55-.096-2.297-.285l-2.08 1.08a1 1 0 01-1.461-.887V17.36C4.072 15.791 3 13.573 3 11.222zM16.523 9.13a.73.73 0 00-.932-.084l-2.808 1.942-2.03-2.032-3.609 3.884a.73.73 0 00.961 1.091l2.74-1.966 2.045 2.022 3.646-3.837a.73.73 0 00-.013-1.02z" fill="#000"/></svg>