<svg fill="none" xmlns="http://www.w3.org/2000/svg" viewBox="0 0 30 30" preserveAspectRatio="xMidYMid slice"><path d="M23.115 0H6.885A6.869 6.869 0 000 6.885v16.23A6.869 6.869 0 006.885 30h16.23A6.869 6.869 0 0030 23.115V6.885A6.869 6.869 0 0023.115 0z" fill="url(#paint0_linear)"/><path d="M25.425 11.365v7.305a2.886 2.886 0 01-2.885 2.885h-8.79a2.886 2.886 0 01-2.885-2.885v-7.305A2.886 2.886 0 0113.75 8.48h8.785a2.884 2.884 0 012.89 2.885zM6.46 9.41l3.31 2.73c.295.245.465.605.465.985v3.78c0 .38-.165.735-.455.98l-3.31 2.78c-.755.63-1.9.095-1.9-.885V10.3c-.005-.975 1.135-1.515 1.89-.89z" fill="#fff"/><defs><linearGradient id="paint0_linear" x1="15.1" y1=".6" x2="14.9" y2="30" gradientUnits="userSpaceOnUse"><stop stop-color="#5DF777"/><stop offset="1" stop-color="#0ABC28"/></linearGradient></defs></svg>