<svg fill="none" xmlns="http://www.w3.org/2000/svg" viewBox="0 0 16 16" preserveAspectRatio="xMidYMid slice"><g clip-path="url(#clip0)"><path d="M11.75.503L9.805.5C7.619.5 6.207 1.949 6.207 4.192v1.702H4.25a.306.306 0 00-.306.306v2.466c0 .169.137.305.306.305h1.956v6.223c0 .17.137.306.306.306h2.552a.306.306 0 00.305-.306V8.971h2.287a.306.306 0 00.306-.305V6.2a.307.307 0 00-.305-.306H9.37V4.45c0-.694.166-1.046 1.069-1.046h1.31a.306.306 0 00.306-.306V.809a.306.306 0 00-.305-.306z" fill="currentColor"/></g><defs><clipPath id="clip0"><path fill="currentColor" d="M.5.5h15v15H.5z"/></clipPath></defs></svg>