<svg fill="none" xmlns="http://www.w3.org/2000/svg" viewBox="0 0 12 14" preserveAspectRatio="xMidYMid slice"><path d="M9.534 3.983l-.186-.147c.852 2.667-.28 4.732-1.096 4.361-.43-.196-.38-.84-.38-.84a10.27 10.27 0 00-.315-4.088A5.42 5.42 0 006.04.952 4.043 4.043 0 004.628 0a4.051 4.051 0 01-.845 2.702c-.32.478-.677.932-1.068 1.358C1.684 5.201.395 6.622.395 8.715c0 2.485 2.148 4.802 4.741 5.285a2.234 2.234 0 01-.637-.645 2.181 2.181 0 01-.323-.839S3.732 10.815 5.408 8.4c0 0 0 1.176 1.748 2.338.284.173.517.414.679.7a1.884 1.884 0 01-.008 1.867c-.164.285-.4.524-.685.695 2.564-.497 4.713-2.8 4.713-5.285a6.135 6.135 0 00-.628-2.616 6.274 6.274 0 00-1.693-2.116z" fill="currentColor"/></svg>