<svg fill="none" xmlns="http://www.w3.org/2000/svg" viewBox="0 0 16 20" preserveAspectRatio="xMidYMid slice"><path d="M12.76 5.69l-.26-.21c1.19 3.81-.39 6.76-1.53 6.23-.6-.28-.53-1.2-.53-1.2A14.999 14.999 0 0010 4.67a7.76 7.76 0 00-2.12-3.31A5.64 5.64 0 005.91 0a5.88 5.88 0 01-1.18 3.86A16.19 16.19 0 013.24 5.8C1.8 7.43 0 9.46 0 12.45 0 16 3 19.31 6.62 20a3.16 3.16 0 01-1.34-2.12S4.66 15.45 7 12c0 0 0 1.68 2.44 3.34A2.74 2.74 0 019.42 20C13 19.29 16 16 16 12.45a8.931 8.931 0 00-3.24-6.76z" fill="currentColor"/></svg>