<svg fill="none" xmlns="http://www.w3.org/2000/svg" viewBox="0 0 20 20" preserveAspectRatio="xMidYMid slice"><path d="M15.37 10.735c.03-.24.052-.48.052-.735s-.023-.495-.053-.735l1.583-1.238a.378.378 0 00.09-.48l-1.5-2.595a.377.377 0 00-.457-.165l-1.868.75a5.48 5.48 0 00-1.268-.734l-.284-1.988a.366.366 0 00-.368-.315h-3a.366.366 0 00-.368.315l-.285 1.988a5.762 5.762 0 00-1.267.734l-1.867-.75a.366.366 0 00-.458.165l-1.5 2.596a.37.37 0 00.09.48l1.583 1.237c-.03.24-.053.487-.053.735s.022.495.053.735l-1.583 1.238a.378.378 0 00-.09.48l1.5 2.595c.09.165.293.225.458.165l1.867-.75c.39.3.81.547 1.268.735l.285 1.987c.022.18.18.315.367.315h3a.366.366 0 00.367-.315l.286-1.987a5.762 5.762 0 001.267-.736l1.867.75c.173.068.368 0 .458-.165l1.5-2.595a.378.378 0 00-.09-.48l-1.583-1.237zm-5.573 1.89A2.628 2.628 0 017.172 10a2.628 2.628 0 012.625-2.625A2.628 2.628 0 0112.422 10a2.628 2.628 0 01-2.625 2.625z" fill="currentColor"/></svg>