<svg fill="none" xmlns="http://www.w3.org/2000/svg" viewBox="0 0 30 30" preserveAspectRatio="xMidYMid slice"><path d="M15 0C6.716 0 0 6.716 0 15c0 6.628 4.298 12.25 10.258 14.233.75.137 1.024-.326 1.024-.722 0-.357-.014-1.54-.021-2.792-4.171.906-5.053-1.769-5.053-1.769-.683-1.732-1.665-2.193-1.665-2.193-1.363-.93.103-.912.103-.912 1.506.104 2.3 1.545 2.3 1.545 1.338 2.293 3.511 1.63 4.364 1.245.137-.966.525-1.63.953-2.003-3.33-.379-6.833-1.666-6.833-7.414 0-1.639.585-2.975 1.543-4.025-.153-.381-.67-1.907.148-3.972 0 0 1.258-.403 4.125 1.538A14.279 14.279 0 0115 7.255a14.31 14.31 0 013.756.506c2.861-1.943 4.121-1.538 4.121-1.538.82 2.066.304 3.59.15 3.97.962 1.05 1.542 2.386 1.542 4.025 0 5.762-3.508 7.031-6.85 7.403.54.465 1.018 1.377 1.018 2.776 0 2.005-.02 3.622-.02 4.116 0 .4.273.866 1.033.72C25.706 27.246 30 21.625 30 15c0-8.284-6.716-15-15-15z" fill="#000"/></svg>