<svg fill="none" xmlns="http://www.w3.org/2000/svg" viewBox="0 0 30 30" preserveAspectRatio="xMidYMid slice"><path fill-rule="evenodd" clip-rule="evenodd" d="M8.387 15.5c0-.812.135-1.59.376-2.32L4.55 9.961A12.494 12.494 0 003.267 15.5c0 1.99.462 3.867 1.281 5.534L8.76 17.81a7.395 7.395 0 01-.372-2.31z" fill="#FBBC05"/><path fill-rule="evenodd" clip-rule="evenodd" d="M15.784 8.114c1.764 0 3.357.625 4.609 1.647l3.641-3.636C21.815 4.193 18.97 3 15.784 3A12.48 12.48 0 004.55 9.963l4.212 3.217a7.377 7.377 0 017.022-5.066z" fill="#EA4335"/><path fill-rule="evenodd" clip-rule="evenodd" d="M15.784 22.886a7.377 7.377 0 01-7.021-5.066L4.55 21.037A12.48 12.48 0 0015.784 28c3.053 0 5.968-1.084 8.156-3.116l-3.999-3.09c-1.128.71-2.55 1.092-4.157 1.092z" fill="#34A853"/><path fill-rule="evenodd" clip-rule="evenodd" d="M27.733 15.5c0-.739-.114-1.534-.285-2.273H15.784v4.83h6.714c-.335 1.646-1.25 2.912-2.557 3.736l3.999 3.091c2.298-2.132 3.793-5.31 3.793-9.384z" fill="#4285F4"/></svg>