<svg fill="none" xmlns="http://www.w3.org/2000/svg" viewBox="0 0 30 30" preserveAspectRatio="xMidYMid slice"><path d="M15 0c-4.074 0-4.585.017-6.185.09C7.22.163 6.13.417 5.175.788a7.352 7.352 0 00-2.657 1.73 7.352 7.352 0 00-1.73 2.656C.416 6.128.162 7.22.09 8.815.017 10.415 0 10.926 0 15s.017 4.584.09 6.184c.073 1.597.327 2.687.697 3.642a7.353 7.353 0 001.73 2.656 7.352 7.352 0 002.657 1.73c.954.371 2.045.625 3.641.698 1.6.073 2.111.09 6.185.09s4.584-.017 6.184-.09c1.597-.073 2.687-.327 3.642-.698a7.353 7.353 0 002.656-1.73 7.353 7.353 0 001.73-2.656c.371-.955.625-2.045.698-3.642.073-1.6.09-2.11.09-6.184s-.017-4.585-.09-6.185c-.073-1.596-.327-2.686-.698-3.64a7.352 7.352 0 00-1.73-2.657 7.353 7.353 0 00-2.656-1.73C23.87.417 22.78.163 21.184.09 19.584.017 19.074 0 15 0zm0 2.703c4.005 0 4.48.015 6.061.087 1.463.067 2.257.311 2.785.517.7.272 1.2.597 1.725 1.122.525.525.85 1.024 1.122 1.724.206.529.45 1.323.517 2.786.072 1.581.087 2.056.087 6.061s-.015 4.48-.087 6.061c-.067 1.463-.311 2.257-.517 2.785-.272.7-.597 1.2-1.122 1.725a4.648 4.648 0 01-1.725 1.122c-.528.206-1.322.45-2.785.517-1.581.072-2.056.087-6.061.087s-4.48-.015-6.061-.087c-1.463-.067-2.257-.311-2.786-.517-.7-.272-1.2-.597-1.724-1.122a4.647 4.647 0 01-1.122-1.725c-.206-.528-.45-1.322-.517-2.785-.072-1.581-.087-2.056-.087-6.061s.015-4.48.087-6.061c.067-1.463.311-2.257.517-2.786.272-.7.597-1.2 1.122-1.724a4.648 4.648 0 011.724-1.122c.529-.206 1.323-.45 2.786-.517 1.581-.072 2.056-.087 6.061-.087z" fill="url(#paint0_linear)"/><path d="M14.998 19.998a5 5 0 110-10 5 5 0 010 10zm0-12.703a7.703 7.703 0 100 15.405 7.703 7.703 0 000-15.405z" fill="url(#paint1_linear)"/><path d="M24.81 7a1.8 1.8 0 11-3.6 0 1.8 1.8 0 013.6 0z" fill="url(#paint2_linear)"/><defs><linearGradient id="paint0_linear" x1="17.6" y1="-1.6" x2="8.9" y2="27.4" gradientUnits="userSpaceOnUse"><stop stop-color="#515BD4"/><stop offset=".3" stop-color="#9510B8"/><stop offset=".7" stop-color="#E51804"/><stop offset="1" stop-color="#FEDA77"/></linearGradient><linearGradient id="paint1_linear" x1="17.6" y1="-1.6" x2="8.9" y2="27.4" gradientUnits="userSpaceOnUse"><stop stop-color="#515BD4"/><stop offset=".3" stop-color="#9510B8"/><stop offset=".7" stop-color="#E51804"/><stop offset="1" stop-color="#FFBF00"/></linearGradient><linearGradient id="paint2_linear" x1="17.6" y1="-1.6" x2="8.9" y2="27.4" gradientUnits="userSpaceOnUse"><stop stop-color="#515BD4"/><stop offset=".3" stop-color="#9510B8"/><stop offset=".7" stop-color="#E51804"/><stop offset="1" stop-color="#FFBF00"/></linearGradient></defs></svg>