<svg fill="none" xmlns="http://www.w3.org/2000/svg" viewBox="0 0 30 30" preserveAspectRatio="xMidYMid slice"><circle cx="15" cy="15" r="15" fill="url(#paint0_linear)"/><path d="M15 5c-2.716 0-3.056.012-4.123.06-1.064.049-1.791.218-2.427.465a4.901 4.901 0 00-1.772 1.153A4.901 4.901 0 005.525 8.45c-.247.636-.416 1.363-.465 2.427C5.011 11.944 5 12.284 5 15s.011 3.056.06 4.123c.049 1.064.218 1.791.465 2.427a4.901 4.901 0 001.153 1.771 4.901 4.901 0 001.772 1.154c.636.247 1.363.416 2.427.465 1.067.048 1.407.06 4.123.06s3.056-.012 4.123-.06c1.064-.049 1.791-.218 2.427-.465a4.901 4.901 0 001.771-1.154 4.901 4.901 0 001.154-1.77c.247-.637.416-1.364.465-2.428.048-1.067.06-1.407.06-4.123s-.012-3.056-.06-4.123c-.049-1.064-.218-1.791-.465-2.427a4.901 4.901 0 00-1.154-1.772 4.901 4.901 0 00-1.77-1.153c-.637-.247-1.364-.416-2.428-.465C18.056 5.012 17.716 5 15 5zm0 1.802c2.67 0 2.986.01 4.04.058.976.045 1.505.207 1.858.344.466.182.8.399 1.15.748.35.35.566.684.748 1.15.136.353.3.882.344 1.857.048 1.055.058 1.37.058 4.041 0 2.67-.01 2.986-.058 4.04-.045.976-.208 1.505-.345 1.858-.18.466-.398.8-.748 1.15-.35.35-.683.566-1.15.748-.352.136-.881.3-1.856.344-1.055.048-1.37.058-4.041.058-2.67 0-2.986-.01-4.04-.058-.976-.045-1.505-.208-1.858-.345a3.098 3.098 0 01-1.15-.748 3.097 3.097 0 01-.748-1.15c-.137-.352-.3-.881-.344-1.856-.048-1.055-.058-1.37-.058-4.041 0-2.67.01-2.986.058-4.04.045-.976.207-1.505.344-1.858.182-.466.398-.8.748-1.15.35-.35.684-.566 1.15-.748.353-.136.882-.3 1.857-.344 1.055-.048 1.37-.058 4.041-.058z" fill="#fff"/><path d="M14.998 18.332a3.333 3.333 0 110-6.667 3.333 3.333 0 010 6.667zm0-8.469a5.135 5.135 0 100 10.27 5.135 5.135 0 000-10.27zm6.542-.196a1.2 1.2 0 11-2.4 0 1.2 1.2 0 012.4 0z" fill="#fff"/><defs><linearGradient id="paint0_linear" x1="17.6" y1="-1.6" x2="8.9" y2="27.4" gradientUnits="userSpaceOnUse"><stop stop-color="#515BD4"/><stop offset=".3" stop-color="#9510B8"/><stop offset=".7" stop-color="#E51804"/><stop offset="1" stop-color="#FEDA77"/></linearGradient></defs></svg>