<svg fill="none" xmlns="http://www.w3.org/2000/svg" viewBox="0 0 30 30" preserveAspectRatio="xMidYMid slice"><circle cx="15" cy="15" r="15" fill="#0288D1"/><path d="M10.333 11.667H7V23h3.333V11.667zm-1.676-1.334h-.019C7.643 10.333 7 9.592 7 8.666 7 7.72 7.663 7 8.676 7c1.014 0 1.639.72 1.657 1.666 0 .925-.643 1.667-1.676 1.667zM23 23h-3.333v-6.066c0-1.465-.817-2.465-2.128-2.465-1.001 0-1.542.674-1.805 1.326-.096.234-.067.88-.067 1.205v6h-3.334V11.667h3.334v1.744c.48-.744 1.233-1.744 3.158-1.744 2.386 0 4.174 1.5 4.174 4.85V23z" fill="#fff"/></svg>