<svg fill="none" xmlns="http://www.w3.org/2000/svg" viewBox="0 0 56 43" preserveAspectRatio="xMidYMid slice"><circle cx="27.5" cy="21.5" r="21.5" fill="#6A80F5"/><path d="M27.138 29.947l4.139-16.893h-2.671l-4.13 16.893h2.662z" fill="#fff"/><path d="M43.923 41.998c5.362.553 10.204-3.556 10.815-9.179.61-5.623-3.241-10.63-8.604-11.183-5.362-.553-10.205 3.556-10.815 9.179-.61 5.622 3.241 10.63 8.604 11.183z" fill="#F0BE27"/><path d="M42.71 41.52c5.362.554 10.204-3.556 10.815-9.178.61-5.623-3.241-10.63-8.604-11.183-5.362-.554-10.204 3.555-10.815 9.178-.61 5.623 3.241 10.63 8.604 11.183z" fill="#FFE269"/><path fill-rule="evenodd" clip-rule="evenodd" d="M43.094 40.21l.026.002.027.002h.026l.027.003.027.001.026.002.027.001h.026l.026.003h.028l.026.002h.026l.026.001.027.001.027.001h.079l.026.002h.21l.026-.002h.053l.025-.002h.027l.026-.002h.027l.026-.002h.025l.027-.002h.025l.026-.003h.027l.026-.003.026-.002.026-.001.02-.001.1 1.334-.023.002-.03.002-.031.002-.03.002-.031.002-.031.002-.03.001-.031.002h-.03l-.032.002h-.03l-.032.002-.03.002h-.061l-.031.001h-.032l-.03.001h-.031l-.031.001h-.185l-.032-.001h-.061l-.032-.002h-.031l-.032-.002h-.03l-.032-.002-.03-.001-.032-.002-.032-.001-.03-.001-.032-.003-.031-.001-.032-.002-.03-.003-.032-.001-.03-.002-.02-.002.105-1.335.017.002zm3.918.745l-.014.005-.028.01-.028.01-.028.012-.028.01-.029.01-.028.01-.028.01-.029.01-.028.01-.028.01-.029.01-.028.009-.028.01-.029.009-.028.009-.029.009-.028.01-.03.009-.028.009-.029.008-.028.009-.029.009-.028.008-.03.009-.028.008-.03.008-.028.01-.029.007-.029.008-.029.008-.029.008-.03.008-.028.008-.03.007-.028.008-.03.007-.029.007-.029.007-.029.007-.03.008-.029.007-.03.007-.028.006-.03.007-.03.006h-.002l-.303-1.305.025-.005.026-.006.024-.006.026-.005.025-.006.024-.006.025-.006.026-.007.024-.006.025-.006.025-.006.024-.007.026-.007.024-.006.026-.007.023-.007.025-.006.024-.007.025-.008.025-.006.024-.008.025-.007.024-.007.025-.008.024-.008.025-.007.025-.008.025-.007.023-.008.025-.008.024-.008.024-.008.025-.007.024-.009.025-.008.024-.009.023-.008.024-.008.025-.009.023-.008.024-.009.025-.01.024-.008.024-.009.024-.01.01-.004.5 1.248zm-6.19-1.251l.025.009.023.008.025.01.023.008.024.01.026.008.023.01.024.007.025.01.024.007.024.01.025.007.024.008.025.01.023.007.051.017.023.007.051.016.024.007.025.008.024.007.025.007.025.008.025.007.025.007.026.007.025.007.024.008.025.006.025.007.026.006.025.008.025.006.026.006.025.007.024.006.026.006.026.006.025.007.025.006.026.005.037.009-.307 1.304-.015-.003-.03-.007-.03-.007-.03-.007-.03-.006-.03-.008-.03-.008-.03-.007-.029-.007-.03-.008-.03-.008-.03-.007-.029-.008-.03-.009-.029-.007-.03-.009-.03-.008-.028-.008-.03-.009-.03-.008-.028-.009-.03-.008-.029-.01-.029-.008-.029-.01-.03-.008-.029-.01-.028-.01-.03-.009-.028-.009-.029-.01-.029-.009-.029-.01-.028-.01-.03-.01-.027-.01-.029-.01-.029-.01-.029-.01-.027-.01-.03-.011-.027-.01-.029-.01-.028-.012-.029-.01-.011-.005.505-1.244.01.004zm8.574-.06l-.016.012-.024.018-.025.017-.024.018-.024.018-.025.018-.024.017-.024.017-.025.017-.024.018-.025.017-.024.017-.025.017-.025.017-.024.017-.025.017-.026.016-.024.017-.025.017-.026.016-.024.017-.026.015-.024.017-.026.016-.025.017-.025.016-.025.016-.026.015-.025.016-.026.016-.025.016-.026.015-.025.016-.026.015-.026.015-.025.016-.026.015-.026.015-.026.015-.026.014-.026.016-.026.014-.026.015-.026.015-.026.014-.022.012-.675-1.165.018-.01.023-.013.022-.013.023-.012.021-.013.024-.013.021-.013.023-.012.022-.013.022-.014.022-.012.023-.015.022-.012.021-.013.022-.013.022-.013.022-.015.024-.014.02-.013.022-.014.022-.013.02-.014.024-.015.021-.013.021-.014.023-.015.02-.014.022-.014.022-.015.022-.014.019-.013.023-.016.022-.015.022-.014.02-.015.02-.014.021-.015.022-.016h.001l.02-.015.021-.015.022-.016.021-.014.02-.016.021-.015.02-.014.015-.01.834 1.062zm-10.592-1.078l.042.033.04.03.04.03.043.03.02.016.04.03.043.03.02.014.02.014.043.03.043.029.02.013.042.03.022.013.021.014.044.028.02.013.045.029.02.013.043.028.021.013.043.026.045.027.021.013.045.026.022.013.02.012.046.026.024.013-.689 1.158-.003-.001-.026-.016-.025-.014-.027-.015-.026-.015-.025-.015-.026-.015-.026-.015-.025-.016-.026-.015-.025-.016-.026-.016-.025-.015-.026-.016-.025-.015-.025-.017-.026-.015-.024-.016-.026-.016-.024-.016-.026-.017-.025-.016-.024-.016-.026-.017-.024-.016-.025-.018-.024-.016-.025-.016-.024-.018-.025-.017-.025-.016-.024-.018-.025-.017-.023-.017-.025-.017-.024-.018-.024-.018-.024-.017-.024-.017-.024-.018-.024-.018-.023-.018-.025-.018-.023-.018-.024-.018-.023-.018-.014-.01.852-1.05.012.009zm12.527-.811l-.009.01-.018.024-.02.024-.018.024-.019.024-.02.024-.018.023-.02.023-.019.024-.02.023-.02.024-.019.023-.019.023-.02.023-.02.023-.02.023-.02.024-.02.023-.02.022-.02.023-.02.023-.02.022-.02.023-.02.023-.02.021-.02.023-.022.023-.02.022-.02.022-.021.023-.021.021-.02.022-.022.022-.02.023-.021.022-.021.02-.021.022-.022.022-.02.022-.022.021-.021.021-.022.022-.021.021-.022.022-.02.02-.006.005-.974-.944.004-.004.002-.001.02-.02.017-.016.018-.019.02-.02.019-.018.018-.018.019-.019.017-.02.02-.018.017-.018.018-.018.018-.02.018-.02.017-.018.02-.02.018-.02.018-.02.017-.018.017-.017.018-.02.002-.003.017-.018.016-.018.002-.002.017-.02.016-.018.002-.002.018-.02.016-.018.017-.02.017-.02.017-.02.02-.021.016-.019.016-.02v-.001l.019-.021.015-.019.017-.02.019-.021.016-.022.016-.018.016-.02.019-.023.016-.02.016-.02.017-.022.015-.019.006-.008 1.092.812zM37.173 36.9l.016.021.031.042.032.041.031.041.015.02.034.043.015.02.015.018.035.043.015.019.016.02.034.04.016.02.016.019.033.04.035.04.017.02.015.017.034.04.036.04.017.018.015.018.035.038.037.04.017.018.016.018.037.039.017.018.016.017.038.038.016.018-.997.92-.017-.018-.02-.022-.022-.021-.02-.022-.021-.021-.02-.022-.02-.022-.02-.021-.021-.023-.02-.021-.02-.023-.02-.021-.02-.022-.02-.023-.02-.022-.02-.022-.02-.023-.02-.022-.02-.022-.02-.023-.019-.023-.02-.022-.019-.023-.018-.023-.02-.023-.02-.023-.018-.022-.02-.023-.018-.024-.02-.023-.018-.023-.019-.024-.018-.023-.019-.023-.018-.023-.019-.024-.018-.024-.019-.024-.018-.024-.018-.023-.019-.024-.017-.024-.019-.024-.017-.024-.018-.024-.008-.01 1.113-.784.007.01zm15.533-1.454l-.01.02-.012.029-.012.029-.013.028-.012.03-.014.027-.013.029-.013.029-.013.028-.013.028-.014.028-.012.028-.014.028-.013.028-.014.029-.014.028-.013.028-.015.028-.013.027-.014.028-.014.028-.015.027-.013.028-.015.028-.014.027-.015.027-.014.029-.014.026-.016.028-.014.028-.015.027-.015.027-.015.027-.015.027-.015.027-.015.027-.015.027-.015.027-.016.027-.016.026-.015.027-.016.027-.015.026-.01.016-1.188-.67.009-.016.014-.023.013-.022.013-.023.015-.026.014-.024.012-.022.013-.023.014-.024.013-.024.013-.024.012-.021.014-.025.013-.023.013-.025.013-.023.012-.025.014-.025.01-.022.014-.025.012-.023.014-.025.012-.025.012-.025.013-.024.01-.022.013-.026.013-.024.012-.025.011-.025.012-.023.011-.025.013-.025.01-.023.011-.025.013-.028.013-.025.01-.023.01-.023.011-.026.013-.027.01-.024.01-.023.002-.004.01-.02 1.262.525zm-16.662-.588l.032.078.008.023.01.022.02.05.021.05.021.05.01.023.022.05.01.022.022.049.023.05.01.022.034.072.035.074.01.021.024.049.011.021.037.074.011.022.025.047.012.022.024.048.026.047.025.046.01.017-1.212.632-.01-.019-.014-.027-.014-.026-.015-.027-.014-.026-.015-.027-.013-.027-.014-.027-.014-.026-.015-.028-.013-.027-.014-.026-.013-.027-.014-.027-.014-.028-.012-.027-.014-.027-.013-.027-.014-.028-.013-.027-.012-.028-.013-.027-.013-.028-.013-.027-.013-.028-.013-.027-.012-.028-.012-.028-.013-.027-.012-.028-.013-.028-.012-.028-.012-.028-.012-.028-.011-.028-.012-.028-.012-.028-.012-.03-.012-.027-.011-.028-.012-.029-.011-.028-.01-.029-.013-.028-.005-.015 1.282-.478.005.014zm17.408-1.98l-.003.018-.005.032-.005.033-.006.031-.005.033-.006.032-.005.032-.006.032-.007.032-.006.032-.006.032-.006.032-.006.032-.006.032-.007.032-.006.032-.007.031-.006.032-.007.032-.007.031-.007.032-.007.031-.008.032-.007.031-.008.032-.006.031-.008.032-.008.03-.008.032-.008.031-.007.032-.008.03-.008.032-.008.03-.008.031-.009.031-.009.031-.008.03-.009.032-.009.03-.008.032-.007.026-1.323-.36.007-.026.01-.03.006-.025.008-.026.007-.028.008-.028.007-.028.007-.026.008-.027.007-.03.006-.024.008-.029.006-.028.007-.026.006-.026.007-.028.007-.029.007-.029.006-.027.006-.027.006-.026.006-.029.007-.028.005-.027.007-.028.006-.03.005-.026.005-.027.006-.028.006-.03.005-.028.005-.027.005-.027.006-.031.005-.027.005-.027.005-.029.005-.03.005-.026.004-.027.005-.032.003-.019 1.356.21zm-17.972-.275l.003.026.006.055.008.056.004.026.003.026.008.056.004.026.009.056.003.026.01.056.003.026.005.026.01.055.01.054.015.083.005.026.004.024.012.056.005.025.012.055.005.025.012.055.006.025.012.054.006.026.013.054.006.024.006.025-1.335.314-.006-.027-.008-.03-.007-.03-.007-.03-.007-.03-.007-.03-.007-.031-.007-.03-.007-.03-.006-.032-.006-.03-.007-.03-.006-.031-.007-.03-.006-.031-.006-.03-.006-.031-.006-.03-.005-.032-.007-.03-.005-.03-.006-.032-.005-.03-.006-.032-.005-.03-.005-.032-.005-.03-.005-.032-.005-.03-.005-.031-.005-.031-.005-.031-.004-.032-.005-.03-.004-.032-.005-.031-.004-.032-.004-.031-.004-.031-.004-.032-.003-.03-.004-.032-.004-.028 1.364-.152.004.028zm18.067-2.364l.003.032.002.031.002.032.003.031.003.032.002.032.002.032.002.032.002.031.002.033.001.031.002.033.002.031.002.033v.031l.003.033v.031l.001.032.001.033.001.031.001.032.001.033v.065l.002.032v.258l-.001.032v.032l-.001.034v.032l-.002.032v.032l-.002.033v.022l-1.373-.042.001-.022.002-.03v-.027l.001-.03v-.027l.001-.027v-.03l.001-.03v-.227l-.001-.029v-.054l-.001-.03v-.028l-.002-.027v-.027l-.002-.03v-.03l-.002-.025-.002-.027v-.03l-.002-.029-.001-.026-.003-.03v-.029l-.002-.026-.002-.027-.002-.029-.002-.028-.002-.027-.003-.03-.002-.028-.002-.026-.002-.027-.003-.028 1.368-.118.003.031zM35.5 30.233l-.001.013-.004.028-.003.032-.004.027-.003.028-.005.03-.003.03-.003.028-.006.058-.003.028-.006.06-.003.028-.002.028-.003.028-.005.06-.002.028-.002.028-.005.06-.001.028-.002.027-.004.06-.001.027-.001.028-.002.027-.003.061v.027l-.003.06v.024l-.002.033v.027l-.002.057v.067l-1.374-.017v-.008l.001-.033v-.033l.001-.032.001-.032.001-.033v-.032l.002-.033v-.033l.002-.032.001-.033.002-.032.001-.033.002-.032.002-.033.001-.032.002-.033.002-.033.003-.032.002-.033.002-.033.003-.033.002-.032.002-.033.003-.033.003-.033.003-.033.003-.033.004-.033.002-.032.004-.033.003-.033.004-.033.003-.033.004-.032.004-.033.004-.033.004-.033.004-.033.004-.032.004-.033.003-.018 1.36.176zm17.464-2.635l.01.03.011.029.01.028.01.029.01.03.01.028.01.029.01.03.01.028.01.03.01.03.009.028.009.03.01.03.009.029.009.03.01.028.007.03.01.03.008.03.009.029.009.03.008.029.01.03.007.03.009.029.008.03.008.03.008.03.007.03.009.03.008.03.007.03.007.03.008.03.008.03.007.03.007.03.008.03.007.03.006.03.007.032.01.042-1.342.287-.003-.014-.006-.03-.005-.024-.006-.025-.008-.03-.005-.024-.006-.025-.007-.03-.006-.024-.007-.025-.007-.03-.006-.024-.007-.024-.007-.03-.006-.024-.007-.025-.002-.005-.007-.024-.006-.025-.007-.027-.008-.023-.007-.028-.008-.027-.007-.026-.008-.027-.007-.023-.009-.027-.007-.027-.007-.024-.008-.024-.009-.026-.001-.005-.007-.024-.008-.023-.009-.026-.008-.024-.008-.026-.009-.027-.009-.025-.008-.026-.008-.024-.01-.026-.008-.026-.01-.024-.008-.025-.01-.026.001.002 1.294-.448zm-16.864.364v.002l-.01.026-.01.024-.01.026-.01.026-.01.024-.01.026-.01.027-.01.026-.01.026-.009.025-.008.024-.01.027-.002.005-.01.024-.007.024-.01.027-.01.025-.008.027-.01.026-.008.027-.01.025-.007.025-.002.004-.008.025-.008.025-.01.027-.008.028-.009.027-.008.024-.008.028-.008.028-.008.025-.009.028-.008.027-.007.026-.008.027-.009.028-.007.025-.007.028-.008.028-.008.025-.007.028-.008.028-.007.025v.005l-1.33-.332v-.006l.01-.03.007-.032.009-.03.009-.032.008-.03.009-.032.008-.03.01-.03.009-.032.01-.03.008-.031.01-.03.008-.03.01-.031.01-.03.009-.03.01-.031.009-.03.01-.03.01-.031.01-.03.01-.03.01-.03.01-.03.011-.03.01-.03.01-.03.01-.03.012-.03.01-.03.012-.03.01-.029.012-.03.01-.03.012-.029.011-.029.011-.03.012-.028.011-.03.012-.03.011-.029.012-.03 1.277.491zm15.644-2.725l.017.025.017.025.017.025.017.024.016.025.017.025.017.025.017.025.016.025.016.025.017.026.017.024.015.026.017.026.016.024.016.026.016.026.016.025.015.026.016.026.016.025.015.026.016.026.016.026.015.025.015.027.016.025.014.027.016.026.015.026.015.026.014.027.015.026.015.026.014.027.015.026.015.027.014.026.014.027.015.027.014.026.014.027.014.027.012.023-1.226.604-.01-.022-.012-.021-.012-.024-.014-.025-.011-.021-.012-.023-.001-.003-.013-.021-.01-.022-.016-.025-.012-.024-.012-.02-.013-.024-.013-.023-.012-.02-.014-.024-.014-.025-.013-.023-.012-.02-.014-.024-.013-.023-.014-.023-.013-.022-.014-.023-.014-.023-.012-.02-.014-.022-.014-.023-.014-.022-.014-.022-.014-.023-.014-.022-.015-.022-.014-.022-.013-.02-.014-.022-.015-.022-.014-.022-.016-.024-.014-.02-.014-.02-.001-.002-.014-.02-.014-.02-.016-.025-.015-.02-.013-.02 1.135-.753.015.021zm-14.495.684v-.002l-.014.02-.016.021-.017.024-.016.021-.014.02-.016.022-.015.022-.016.021-.015.022-.016.022-.016.022-.014.022-.016.023-.015.021-.015.022-.015.023-.016.022-.013.02-.015.023-.016.025-.015.022-.013.02-.015.023-.015.023-.014.023-.015.023-.014.023-.014.022-.015.024-.014.022-.013.022-.015.023-.014.023-.014.023-.014.024-.014.023-.014.024-.013.023-.014.024-.013.021-.013.024-.015.025-.012.022-.01.018-1.205-.641.013-.022.015-.027.016-.027.015-.027.015-.027.016-.026.015-.027.016-.027.015-.026.017-.027.016-.026.016-.026.016-.027.016-.026.016-.026.017-.026.016-.027.016-.026.017-.026.017-.026.015-.025.017-.026.017-.026.017-.026.017-.025.017-.026.018-.025.016-.025.017-.026.018-.025.017-.026.017-.025.018-.025.018-.025.017-.025.018-.026.018-.024.017-.025.018-.024.019-.025.017-.025.019-.025.017-.025.019-.024 1.109.79zm12.66-2.675l.023.02.023.018.023.02.023.02.022.018.023.019.022.02.023.019.023.02.022.018.022.02.023.02.022.02.022.02.023.02.022.02.021.02.023.02.022.02.021.02.023.02.021.02.021.021.022.021.021.02.022.021.021.021.022.02.02.021.022.021.021.022.021.02.022.022.02.02.022.022.02.021.02.022.022.021.02.022.021.021.02.022.021.021.02.022.021.022.019.02-1.018.899-.018-.02-.02-.02-.017-.019-.015-.017-.018-.018-.02-.02-.018-.02-.015-.016-.019-.018-.02-.02-.017-.018-.018-.018-.018-.019-.018-.017-.018-.019-.018-.017-.019-.018-.018-.018-.018-.018-.02-.018-.018-.017-.018-.018-.02-.018-.018-.018-.018-.017-.018-.016-.021-.02-.018-.017-.019-.016-.019-.018-.02-.017-.018-.016-.019-.017-.02-.018-.018-.017-.019-.016-.02-.016-.02-.019-.02-.015-.019-.017-.019-.016-.02-.017-.019-.016-.019-.016-.02-.016-.011-.01.881-1.026.014.011zm-11.022.99l-.011.009-.021.017-.02.015-.02.016-.022.018-.018.014-.02.017-.022.018-.02.015-.019.017-.02.018-.021.016-.02.017-.019.017-.02.017-.019.016-.02.017-.02.018-.02.018-.02.016-.019.017-.018.018-.02.017-.02.018-.02.018-.02.017-.018.019-.018.017-.02.017-.02.02-.02.017-.017.016-.018.018-.02.02-.019.018-.018.018-.02.018-.018.019-.02.02-.018.017-.017.017-.019.019-.02.02-.017.019-.019.018-.009.01-.995-.922.01-.01.02-.022.021-.021.022-.022.021-.022.021-.02.022-.022.021-.021.022-.022.022-.02.021-.021.022-.021.022-.021.021-.02.023-.022.021-.02.023-.021.021-.021.023-.02.022-.02.022-.021.022-.02.023-.02.022-.02.022-.02.023-.02.023-.021.023-.02.022-.02.023-.02.022-.018.024-.02.022-.02.023-.02.023-.018.024-.02.023-.019.023-.019.023-.02.023-.018.023-.02.024-.018.024-.019.023-.018.024-.02.013-.01.862 1.042zm8.704-2.393l.028.012.027.012.028.01.027.013.028.012.028.013.027.012.027.012.028.013.028.012.026.013.028.013.027.012.027.013.027.013.027.013.027.014.027.013.027.012.026.014.027.014.028.013.026.014.027.014.027.014.025.013.027.014.027.014.026.015.027.014.026.014.026.014.026.015.026.014.026.015.027.015.025.014.027.015.025.016.026.014.026.015.025.015.026.016.026.014.018.012-.722 1.139-.015-.01-.023-.014-.021-.012-.023-.013-.022-.014-.022-.012-.022-.013-.021-.012-.023-.012-.023-.014-.022-.012-.022-.013-.023-.012-.02-.012-.023-.011-.024-.014-.023-.012-.022-.012-.021-.01-.023-.013-.023-.011-.022-.012-.025-.012-.022-.012-.022-.01-.023-.012-.023-.012-.023-.011-.023-.011-.024-.012-.022-.01-.023-.011-.023-.01-.023-.011-.024-.012-.024-.01-.023-.012-.022-.01-.024-.01-.023-.01-.023-.01-.024-.011-.023-.01-.025-.01-.023-.01-.021-.01.543-1.228.024.01zm-6.684 1.21l-.017.007-.024.01-.022.01-.025.01-.023.01-.024.01-.024.011-.023.01-.023.01-.024.01-.024.011-.022.01-.024.011-.023.01-.024.012-.023.01-.022.011-.024.012-.023.01-.023.012-.024.011-.022.012-.023.01-.024.012-.023.012-.023.011-.022.012-.022.011-.023.012-.023.012-.024.013-.022.011-.023.012-.023.013-.022.012-.022.012-.024.012-.022.013-.021.012-.024.014-.022.011-.022.012-.023.014-.022.012-.022.014-.024.014-.705-1.149.025-.015.025-.015.027-.015.026-.014.025-.015.026-.015.027-.015.026-.014.026-.015.026-.014.026-.014.027-.014.027-.014.026-.015.026-.014.027-.014.026-.013.027-.014.026-.013.027-.014.027-.014.026-.013.027-.014.027-.013.027-.012.027-.014.027-.013.027-.013.027-.013.027-.013.027-.012.027-.013.027-.013.028-.011.027-.013.027-.012.027-.012.028-.012.027-.012.027-.012.028-.012.027-.012.028-.012.028-.01.027-.013.019-.008.535 1.234zm3.513-1.932l.031.001.031.001.031.003.032.001.031.002.03.003.032.002.032.002.031.003.031.002.032.003.031.002.031.004.032.003.031.002.031.003.032.004.03.004.032.003.032.003.03.004.032.004.031.004.031.004.032.004.03.004.032.004.03.004.032.005.03.005.032.005.03.005.031.005.031.005.03.005.032.005.03.005.03.006.031.005.031.006.03.006.03.005.032.005.03.007.03.006.03.006.03.006.03.007.03.006.031.006.03.007.03.007.031.007.03.007.03.007.03.007.03.008.03.007.03.007.032.008-.35 1.295-.024-.007-.026-.006-.026-.006-.025-.007-.025-.005-.025-.006-.026-.007-.026-.005-.025-.005-.026-.007-.026-.005-.026-.006-.024-.005-.027-.006-.026-.005-.026-.004-.025-.006-.026-.004-.026-.006-.026-.004-.026-.005-.026-.005-.026-.005-.026-.004-.026-.004-.026-.005-.026-.004-.026-.004-.027-.004-.026-.004-.026-.004-.027-.004-.026-.004-.026-.003-.026-.004-.027-.004-.026-.002-.027-.004-.026-.004-.027-.002-.027-.003-.026-.004-.027-.003-.027-.002-.027-.003-.026-.003-.027-.002-.027-.002-.026-.003-.027-.002-.026-.002-.028-.003-.026-.002-.027-.001-.027-.002-.026-.002-.026-.002h-.027l-.026-.002-.028-.001-.023-.002.067-1.337.027.002zm-1.257 1.366l-.016.001-.026.003-.026.003-.026.003-.026.003-.025.003-.025.003-.026.003-.026.003-.026.004-.025.003-.026.004-.026.004-.025.002-.026.004-.025.004-.026.004-.025.005-.026.003-.025.004-.026.005-.025.004-.025.005-.025.004-.025.004-.026.005-.025.005-.025.005-.026.004-.025.006-.025.005-.025.005-.026.005-.024.005-.026.006-.025.005-.025.005-.025.006-.025.006-.025.006-.024.005-.026.007-.026.006-.024.005-.024.007-.017.004-.343-1.296.02-.005.028-.008.03-.007.029-.007.03-.006.029-.007.03-.007.028-.006.03-.008.03-.006.028-.006.03-.007.03-.006.03-.006.03-.006.029-.006.03-.006.03-.005.029-.006.03-.005.03-.006.029-.006.03-.005.03-.005.03-.006.03-.004.03-.005.03-.005.03-.004.03-.005.03-.005.03-.004.03-.005.03-.004.03-.004.03-.003.03-.005.03-.004.03-.003.03-.004.03-.004.031-.003.03-.004.03-.003.03-.002.02-.003.14 1.332z" fill="#FFD210"/><path d="M43.03 38.63c3.84.396 7.307-2.547 7.744-6.573.437-4.026-2.321-7.61-6.16-8.007-3.84-.397-7.308 2.546-7.745 6.572-.437 4.026 2.321 7.611 6.16 8.007z" fill="#FFEF8C"/><path d="M47.268 27.801l-1.28-.971-5.626 8.051 1.28.972 5.626-8.052z" fill="#FFE269"/></svg>