<svg fill="none" xmlns="http://www.w3.org/2000/svg" viewBox="0 0 18 12" preserveAspectRatio="xMidYMid slice"><path fill-rule="evenodd" clip-rule="evenodd" d="M9.577.143A.854.854 0 0110.052 0c.158 0 .307.044.447.133.14.089.243.203.313.342l6.233 10.793h-.01a.46.46 0 01-.066.56.478.478 0 01-.333.163V12H.333v-.019l-.076.01a.28.28 0 01-.19-.076.265.265 0 01-.067-.181c0-.051.016-.101.048-.152l.285-.504v-.019h.019l2.964-5.12c.07-.178.203-.267.4-.267.183 0 .316.083.398.247l1.017 1.758L9.283.504a.964.964 0 01.294-.361z" fill="currentColor"/></svg>