<svg fill="none" xmlns="http://www.w3.org/2000/svg" viewBox="0 0 24 24" preserveAspectRatio="xMidYMid slice"><path d="M19.83 11.598l-2.285-2.285a.549.549 0 00-.402-.17.55.55 0 00-.402.17.55.55 0 00-.17.401v1.143h-3.428V7.43h1.143a.55.55 0 00.402-.17.55.55 0 00.17-.402.55.55 0 00-.17-.402L12.402 4.17A.549.549 0 0012 4a.55.55 0 00-.402.17L9.313 6.455a.55.55 0 00-.17.402.55.55 0 00.17.402.55.55 0 00.401.17h1.143v3.428H7.43V9.714a.55.55 0 00-.17-.401.55.55 0 00-.402-.17.55.55 0 00-.402.17L4.17 11.598A.55.55 0 004 12a.55.55 0 00.17.402l2.285 2.286a.55.55 0 00.402.17.55.55 0 00.402-.17.549.549 0 00.17-.402v-1.143h3.428v3.428H9.715a.55.55 0 00-.402.17.549.549 0 00-.17.402.55.55 0 00.17.402l2.285 2.285A.55.55 0 0012 20a.55.55 0 00.402-.17l2.286-2.285a.55.55 0 00.17-.402.549.549 0 00-.17-.402.55.55 0 00-.402-.17h-1.143v-3.428h3.429v1.143a.55.55 0 00.17.402.55.55 0 00.401.17.55.55 0 00.402-.17l2.286-2.286A.55.55 0 0020 12a.549.549 0 00-.17-.402z" fill="currentColor"/></svg>