<svg width="20" height="20" fill="none" xmlns="http://www.w3.org/2000/svg" preserveAspectRatio="xMidYMid slice"><path fill-rule="evenodd" clip-rule="evenodd" d="M9.998 0a.235.235 0 0 0-.026.003.233.233 0 0 0-.204.206C8.738 5.503 5.797 8.845.212 9.769a.233.233 0 0 0 .002.464c5.582.925 8.522 4.266 9.554 9.557a.233.233 0 0 0 .209.21h.002a.301.301 0 0 0 .025 0h.005a.233.233 0 0 0 .223-.208c1.033-5.293 3.971-8.636 9.555-9.56a.233.233 0 0 0 .207-.18v-.003a.226.226 0 0 0-.001-.106.232.232 0 0 0-.207-.175c-5.582-.925-8.52-4.266-9.554-9.557a.233.233 0 0 0-.209-.21h-.002a.217.217 0 0 0-.014 0L9.997 0z" fill="#A5A7BD"/></svg>