<svg fill="none" xmlns="http://www.w3.org/2000/svg" viewBox="0 0 12 12" preserveAspectRatio="xMidYMid slice"><path d="M4.903 1a.433.433 0 00-.048.007.433.433 0 00-.365.319L3.9 3.402H1.874a.43.43 0 00-.34.141.435.435 0 00.34.727H3.65l-.99 3.474H1.44a.43.43 0 00-.34.141.435.435 0 00.34.727h.97l-.522 1.832a.437.437 0 00.84.238l.59-2.07h3.861l-.521 1.832a.437.437 0 00.84.238l.59-2.07h2.025a.434.434 0 100-.868H8.338l.989-3.474h1.22a.433.433 0 100-.868h-.97l.522-1.839a.435.435 0 00-.705-.453.434.434 0 00-.135.216l-.59 2.076h-3.86l.522-1.839A.435.435 0 004.903 1zm-.346 3.27H8.42l-.99 3.474H3.568l.99-3.474z" fill="currentColor" stroke="currentColor" stroke-width=".5"/></svg>