<svg fill="none" xmlns="http://www.w3.org/2000/svg" preserveAspectRatio="xMidYMid slice" viewBox="0 0 24 26"><path d="M0 0h24v24H0z"/><path d="M16.81 1.276c-.4.107-.74.337-.989.632.504.139.99.341 1.454.605a6.288 6.288 0 011.74 1.501c.213-.41.276-.894.146-1.38a1.92 1.92 0 00-2.352-1.358zm-3.938 1.552a5.13 5.13 0 00-3.136 2.406L8.169 7.939c-.26.457-1.29 1.344-4.693 2.957-.428.204-.87.442-1.137.896-.009.022-.019.04-.024.057a.425.425 0 00-.033.047l-.077.156v.059c-.647 1.848 1.593 4.682 5.514 6.946 3.038 1.75 5.869 2.462 7.584 2.003.5-.134.904-.371 1.192-.707l.069-.039.07-.123a.438.438 0 00.03-.058l.036-.054c.261-.453.246-.955.207-1.432-.304-3.75-.05-5.085.216-5.538l1.56-2.71a5.13 5.13 0 00.515-3.92 5.185 5.185 0 00-.888-1.808 5.327 5.327 0 00-1.518-1.328 5.146 5.146 0 00-3.92-.515zM8.12 20.366a2.4 2.4 0 104.484 1.64c-1.352-.244-2.881-.797-4.484-1.64z" fill="#000"/></svg>