<svg fill="none" xmlns="http://www.w3.org/2000/svg" viewBox="0 0 35 27" preserveAspectRatio="xMidYMid slice"><path fill-rule="evenodd" clip-rule="evenodd" d="M21.27 16.87L12.333 1.109C11.914.369 11.361 0 10.81 0c-.553 0-1.106.37-1.526 1.109L.35 16.87c-.84 1.48-.112 2.689 1.618 2.689H19.65c1.729 0 2.458-1.21 1.62-2.689z" fill="#4A70F2"/><path fill-rule="evenodd" clip-rule="evenodd" d="M24.055 5.147c-2.433 0-4.68.784-6.498 2.11l5.006 8.913c.66 1.178.708 2.409.13 3.378-.579.971-1.693 1.528-3.056 1.528h-5.225a10.964 10.964 0 009.643 5.689c6.044 0 10.945-4.84 10.945-10.81 0-5.969-4.9-10.808-10.945-10.808z" fill="#FE5A55"/></svg>