<svg fill="none" xmlns="http://www.w3.org/2000/svg" viewBox="0 0 20 18" preserveAspectRatio="xMidYMid slice"><path d="M15.31 16.746a.508.508 0 01-.514.513H.513A.511.511 0 010 16.746c0-3.442 2.767-6.384 6.39-6.384h2.53c3.54 0 6.39 2.87 6.39 6.384zM11.922 4.342c0 2.468-1.904 5.45-4.264 5.45-2.366 0-4.27-2.982-4.27-5.45C3.388 1.95 5.302 0 7.658 0c2.35 0 4.264 1.95 4.264 4.342zm5.963 3.32c0 1.622-1.268 3.577-2.848 3.577-1.576 0-2.849-1.955-2.849-3.577 0-1.596 1.278-2.89 2.849-2.89 1.57 0 2.848 1.294 2.848 2.89zM20 15.864c0 .282-.23.513-.513.513h-3.162A7.368 7.368 0 0014.35 11.7h1.473a4.17 4.17 0 014.167 4.05c.005.036.01.071.01.113z" fill="currentColor"/></svg>