<svg width="24" height="24" fill="none" xmlns="http://www.w3.org/2000/svg" preserveAspectRatio="xMidYMid slice"><path d="M11.784 6.66A5.347 5.347 0 0 0 6.444 12a5.347 5.347 0 0 0 5.34 5.34 5.347 5.347 0 0 0 5.34-5.34 5.347 5.347 0 0 0-5.34-5.34zm3.184 5.252l-1.144.83.437 1.344a.864.864 0 0 1-.824 1.135.864.864 0 0 1-.51-.166l-1.143-.83-1.143.83a.864.864 0 0 1-1.018 0 .865.865 0 0 1-.315-.969l.436-1.344-1.143-.83a.864.864 0 0 1-.315-.97.864.864 0 0 1 .824-.598h1.414L10.96 9a.864.864 0 0 1 .824-.599c.377 0 .708.24.824.599l.437 1.344h1.413c.377 0 .708.24.824.599a.865.865 0 0 1-.314.969z" fill="#000"/><path d="M21.195 10.899l-.659-.66a8.842 8.842 0 0 0-.316-1.063l.347-1.294a1.13 1.13 0 0 0-.113-.863 1.13 1.13 0 0 0-.691-.53l-1.302-.35a8.936 8.936 0 0 0-.775-.775l-.349-1.302a1.142 1.142 0 0 0-1.393-.804l-1.295.347a8.792 8.792 0 0 0-1.063-.316l-.956-.956A1.13 1.13 0 0 0 11.825 2c-.303 0-.59.118-.804.333l-.956.956c-.37.08-.729.198-1.064.316l-1.294-.347-.004-.001a1.144 1.144 0 0 0-1.39.805l-.348 1.302a8.918 8.918 0 0 0-.775.776l-1.302.348a1.13 1.13 0 0 0-.691.53 1.13 1.13 0 0 0-.114.864l.348 1.294a8.806 8.806 0 0 0-.317 1.064l-.659.659a1.56 1.56 0 0 0 0 2.202l.66.66c.08.37.197.728.315 1.063l-.346 1.294c-.08.293-.04.6.113.863.152.264.397.452.69.53l1.303.35c.241.273.502.533.775.775l.349 1.302a1.132 1.132 0 0 0 1.395.804L9 20.395c.335.118.694.236 1.064.316l.956.956c.215.215.5.333.804.333.304 0 .59-.118.805-.333l.959-.992a8.89 8.89 0 0 0 1.058-.28l1.295.347a1.133 1.133 0 0 0 1.395-.804l.349-1.302c.273-.242.534-.502.775-.775l1.302-.35a1.13 1.13 0 0 0 .691-.53c.152-.263.192-.57.113-.863l-.347-1.294c.118-.335.236-.693.316-1.064l.66-.659a1.56 1.56 0 0 0 0-2.202zm-9.41 7.614A6.52 6.52 0 0 1 5.271 12a6.52 6.52 0 0 1 6.512-6.513A6.52 6.52 0 0 1 18.297 12a6.52 6.52 0 0 1-6.513 6.513z" fill="#000"/></svg>