<svg fill="none" xmlns="http://www.w3.org/2000/svg" preserveAspectRatio="xMidYMid slice" viewBox="0 0 24 24"><path fill-rule="evenodd" clip-rule="evenodd" d="M20.866 10.24l.67.659a1.54 1.54 0 010 2.202l-.67.66c-.082.37-.202.728-.322 1.063l.354 1.294c.08.293.039.6-.116.863a1.147 1.147 0 01-.703.53l-1.325.35a9.027 9.027 0 01-.79.775l-.354 1.302a1.16 1.16 0 01-1.42.804l-1.319-.348c-.348.115-.71.21-1.076.281l-.976.992A1.16 1.16 0 0112 22c-.309 0-.6-.118-.819-.333l-.972-.956a9.104 9.104 0 01-1.083-.316l-1.316.347a1.16 1.16 0 01-1.42-.804l-.354-1.302a8.999 8.999 0 01-.79-.776l-1.325-.348a1.146 1.146 0 01-.703-.53 1.112 1.112 0 01-.115-.864l.353-1.294a8.688 8.688 0 01-.322-1.064l-.67-.659a1.54 1.54 0 010-2.202l.67-.66c.082-.37.202-.728.322-1.063l-.353-1.294c-.08-.293-.04-.6.115-.863.155-.264.405-.452.704-.53l1.324-.35c.246-.273.511-.533.79-.775l.355-1.302c.166-.602.8-.962 1.414-.805h.004l1.317.348c.34-.118.706-.236 1.083-.316l.972-.956a1.16 1.16 0 01.82-.333c.308 0 .6.118.818.333l.972.956c.378.08.743.198 1.083.316l1.318-.347a1.165 1.165 0 011.418.804l.355 1.302c.278.242.543.502.789.776l1.325.348c.299.079.548.267.703.53.155.264.196.571.115.864l-.353 1.294c.12.335.24.693.322 1.064zm-12.76 5.538v-1.351c0-.062.023-.116.069-.16l4.934-4.848 1.696 1.666-4.939 4.848a.214.214 0 01-.158.067H8.333a.222.222 0 01-.226-.222zm8.01-6.608a.437.437 0 010 .626l-.827.814-1.696-1.667.828-.813a.456.456 0 01.637 0l1.059 1.04z" fill="#000"/></svg>