<svg fill="none" xmlns="http://www.w3.org/2000/svg" viewBox="0 0 20 17" preserveAspectRatio="xMidYMid slice"><path fill-rule="evenodd" clip-rule="evenodd" d="M16.988 6.562c1.154 0 2.088.933 2.088 2.087 0 .853-.513 1.583-1.237 1.91.031.206.049.415.049.626 0 3.213-3.74 5.815-8.352 5.815s-8.35-2.602-8.35-5.815c0-.214.016-.426.048-.632a2.087 2.087 0 112.296-3.41c1.449-1.045 3.453-1.712 5.683-1.77 0-.028 1.042-4.992 1.042-4.992a.368.368 0 01.44-.287l3.47.739A1.483 1.483 0 0115.498 0a1.49 1.49 0 110 2.983c-.799 0-1.446-.63-1.483-1.42L10.908.902l-.95 4.475c2.19.077 4.156.741 5.582 1.772a2.071 2.071 0 011.448-.587zm-5.665 3.578c0 .822.67 1.492 1.492 1.492s1.491-.67 1.491-1.492c0-.821-.67-1.491-1.491-1.491-.822 0-1.492.67-1.492 1.491zm1.756 3.94c-1.02 1.016-2.97 1.096-3.542 1.096-.572 0-2.525-.08-3.541-1.096a.386.386 0 010-.547.386.386 0 01.547 0c.641.641 2.012.87 2.994.87.98 0 2.354-.229 2.995-.87a.385.385 0 01.547 0 .39.39 0 010 .547zM6.254 8.649c-.822 0-1.492.67-1.492 1.491 0 .822.67 1.492 1.492 1.492.821 0 1.491-.67 1.491-1.492 0-.821-.67-1.491-1.491-1.491z" fill="#fff"/></svg>