<svg fill="none" xmlns="http://www.w3.org/2000/svg" viewBox="0 0 20 20" preserveAspectRatio="xMidYMid slice"><path fill-rule="evenodd" clip-rule="evenodd" d="M16.743 15.574L12.91 11.74a5.426 5.426 0 001.05-3.232A5.532 5.532 0 008.46 3 5.436 5.436 0 003 8.468a5.532 5.532 0 005.5 5.508 5.409 5.409 0 003.242-1.061l.004-.003 3.83 3.831a.827.827 0 101.167-1.169zm-8.247-2.696a4.426 4.426 0 01-4.4-4.406 4.35 4.35 0 014.368-4.374 4.426 4.426 0 014.4 4.406 4.35 4.35 0 01-4.368 4.374z" fill="currentColor"/></svg>