<svg fill="none" xmlns="http://www.w3.org/2000/svg" viewBox="0 0 20 20" preserveAspectRatio="xMidYMid slice"><path fill-rule="evenodd" clip-rule="evenodd" d="M19.634 17.964l-5.476-5.478a7.751 7.751 0 001.5-4.618A7.902 7.902 0 007.801 0a7.766 7.766 0 00-7.8 7.812 7.903 7.903 0 007.857 7.869 7.726 7.726 0 004.63-1.517l.006-.004 5.471 5.474a1.181 1.181 0 101.669-1.67zM7.77 13.25a5.548 5.548 0 01-5.52-5.52 5.446 5.446 0 011.596-3.88 5.461 5.461 0 013.884-1.6 5.548 5.548 0 015.52 5.52 5.446 5.446 0 01-1.595 3.881A5.461 5.461 0 017.77 13.25z" fill="currentColor"/></svg>