<svg width="24" height="24" fill="none" xmlns="http://www.w3.org/2000/svg" preserveAspectRatio="xMidYMid slice"><path fill-rule="evenodd" clip-rule="evenodd" d="M19.936 10.258c.382.19.69.506.875.898.454.962.062 2.119-.875 2.585L5.708 20.807c-.257.127-.54.193-.825.193a1.848 1.848 0 0 1-.689-.137c-.97-.395-1.444-1.523-1.059-2.518l2.282-5.852a.508.508 0 0 0 .083.007h12a.5.5 0 0 0 0-1h-12a.502.502 0 0 0-.083.007L3.135 5.654a1.98 1.98 0 0 1 .054-1.562c.454-.962 1.582-1.364 2.519-.898l14.228 7.064z" fill="#000"/></svg>