<svg fill="none" xmlns="http://www.w3.org/2000/svg" viewBox="0 0 20 20" preserveAspectRatio="xMidYMid slice"><path d="M18.076 10c0-1.247.768-2.231 1.924-2.908a10.51 10.51 0 00-.824-1.99c-1.296.339-2.345-.169-3.227-1.05-.882-.883-1.152-1.932-.813-3.228A10.476 10.476 0 0013.146 0C12.469 1.156 11.247 1.924 10 1.924c-1.247 0-2.469-.768-3.146-1.924-.696.208-1.363.484-1.99.823.339 1.297.07 2.346-.813 3.228-.882.882-1.931 1.39-3.227 1.051C.484 5.73.208 6.396 0 7.092 1.156 7.77 1.924 8.753 1.924 10c0 1.247-.768 2.47-1.924 3.146.208.696.484 1.363.824 1.99 1.296-.339 2.345-.069 3.227.813.882.882 1.152 1.932.813 3.228.627.339 1.294.615 1.99.823.677-1.156 1.9-1.924 3.146-1.924 1.247 0 2.47.768 3.146 1.924a10.484 10.484 0 001.99-.824c-.338-1.295-.069-2.345.813-3.227.882-.882 1.931-1.39 3.227-1.05.34-.628.616-1.295.824-1.991-1.156-.677-1.924-1.661-1.924-2.908zM10 14.349a4.349 4.349 0 110-8.698 4.349 4.349 0 010 8.698z" fill="currentColor"/></svg>