<svg width="24" height="24" fill="none" xmlns="http://www.w3.org/2000/svg" preserveAspectRatio="xMidYMid slice"><path d="M2.336 11.949l4.387 1.637 1.699 5.461c.108.35.536.48.82.247l2.445-1.993a.73.73 0 0 1 .89-.025l4.41 3.202c.304.22.734.054.81-.313L21.03 4.624a.517.517 0 0 0-.693-.587L2.331 10.98c-.444.172-.44.8.005.968zm5.812.766l8.574-5.281c.154-.095.313.113.18.236l-7.076 6.578a1.46 1.46 0 0 0-.454.878l-.241 1.786c-.032.238-.367.262-.433.031l-.927-3.257a.863.863 0 0 1 .377-.971z" fill="#000"/></svg>