<svg fill="none" xmlns="http://www.w3.org/2000/svg" viewBox="0 0 30 30" preserveAspectRatio="xMidYMid slice"><path d="M15 30c8.284 0 15-6.716 15-15 0-8.284-6.716-15-15-15C6.716 0 0 6.716 0 15c0 8.284 6.716 15 15 15z" fill="#139BD0"/><path fill-rule="evenodd" clip-rule="evenodd" d="M15.49 18.585c-.577.563-1.15 1.116-1.717 1.674-.198.195-.421.303-.706.288-.194-.01-.303-.096-.363-.28-.434-1.349-.875-2.695-1.308-4.045-.042-.13-.104-.195-.236-.236a282.769 282.769 0 01-3.067-.957 1.741 1.741 0 01-.45-.207c-.21-.142-.241-.374-.053-.54a2.08 2.08 0 01.596-.374c1.252-.496 2.51-.976 3.767-1.46 3.188-1.23 6.376-2.46 9.565-3.692.606-.234 1.072.096 1.01.751-.041.42-.15.832-.237 1.246-.693 3.27-1.386 6.539-2.082 9.807-.165.776-.71.979-1.349.508-1.07-.789-2.138-1.58-3.207-2.37l-.162-.113zm-2.4.993l.036-.01c.006-.03.016-.06.019-.09.068-.742.14-1.483.2-2.225a.544.544 0 01.195-.394c.986-.882 1.966-1.769 2.948-2.654 1.087-.98 2.174-1.96 3.257-2.944.067-.06.095-.164.141-.248-.102-.011-.211-.052-.304-.028a1.327 1.327 0 00-.358.177c-2.4 1.51-4.796 3.024-7.197 4.532-.136.086-.161.158-.11.307.178.508.339 1.021.506 1.533l.667 2.044z" fill="#fff"/></svg>