<svg fill="none" xmlns="http://www.w3.org/2000/svg" viewBox="0 0 11 16" preserveAspectRatio="xMidYMid slice"><path d="M7.853 13.059c-.436 0-.817-.101-1.142-.303-.254-.15-.423-.345-.508-.586-.091-.235-.136-.794-.136-1.68V6.642H9.62V4.29H6.066V.5H3.928c-.098.768-.274 1.406-.528 1.914a4.17 4.17 0 01-1.005 1.29 4.501 4.501 0 01-1.514.82v2.119h1.66v5.263c0 .697.072 1.221.215 1.572.137.352.394.694.771 1.026.39.325.84.57 1.348.732.527.176 1.133.264 1.816.264.625 0 1.188-.062 1.69-.186.495-.11 1.074-.322 1.738-.635v-2.363c-.749.495-1.504.742-2.266.742z" fill="#fff"/></svg>