<svg fill="none" xmlns="http://www.w3.org/2000/svg" viewBox="0 0 20 18" preserveAspectRatio="xMidYMid slice"><path d="M20 2.799a8.549 8.549 0 01-2.363.647 4.077 4.077 0 001.804-2.266 8.192 8.192 0 01-2.6.992A4.099 4.099 0 009.75 4.976c0 .325.027.638.095.935-3.409-.166-6.425-1.8-8.451-4.288A4.128 4.128 0 00.83 3.694a4.11 4.11 0 001.821 3.408A4.05 4.05 0 01.8 6.598v.045a4.119 4.119 0 003.285 4.028 4.09 4.09 0 01-1.075.135c-.262 0-.527-.015-.776-.07.531 1.624 2.038 2.818 3.831 2.856a8.238 8.238 0 01-5.084 1.75A7.67 7.67 0 010 15.284a11.543 11.543 0 006.29 1.84c7.545 0 11.67-6.25 11.67-11.668 0-.18-.006-.356-.015-.53A8.179 8.179 0 0020 2.8z" fill="currentColor"/></svg>