<svg fill="none" xmlns="http://www.w3.org/2000/svg" viewBox="0 0 30 30" preserveAspectRatio="xMidYMid slice"><path d="M28.828 6.416a11.47 11.47 0 01-3.258.896 5.693 5.693 0 002.496-3.14 11.272 11.272 0 01-3.603 1.377A5.666 5.666 0 0020.32 3.75a5.674 5.674 0 00-5.672 5.678c0 .445.047.879.147 1.295A16.077 16.077 0 013.099 4.787a5.683 5.683 0 001.758 7.582 5.537 5.537 0 01-2.572-.709v.07a5.678 5.678 0 004.553 5.567 5.71 5.71 0 01-1.494.2c-.364 0-.721-.036-1.067-.106a5.682 5.682 0 005.303 3.943 11.374 11.374 0 01-8.403 2.35 15.89 15.89 0 008.69 2.566c10.441 0 16.148-8.654 16.148-16.16 0-.246-.006-.492-.017-.733a11.644 11.644 0 002.83-2.941z" fill="#4AA0EC"/></svg>