<svg fill="none" xmlns="http://www.w3.org/2000/svg" viewBox="0 0 30 30" preserveAspectRatio="xMidYMid slice"><circle cx="15" cy="15" r="15" fill="#4AA0EC"/><path d="M24.219 9.277a7.657 7.657 0 01-2.172.598 3.795 3.795 0 001.664-2.094c-.73.434-1.54.75-2.402.918a3.783 3.783 0 00-6.543 2.586c0 .297.03.586.097.863a10.717 10.717 0 01-7.797-3.957 3.789 3.789 0 001.172 5.055 3.69 3.69 0 01-1.715-.473v.047a3.785 3.785 0 003.036 3.711 3.808 3.808 0 01-.996.133 3.55 3.55 0 01-.711-.07 3.788 3.788 0 003.535 2.629 7.583 7.583 0 01-5.602 1.566 10.594 10.594 0 005.793 1.711c6.961 0 10.766-5.77 10.766-10.773 0-.165-.004-.329-.012-.489a7.762 7.762 0 001.887-1.96z" fill="#fff"/></svg>