<svg fill="none" xmlns="http://www.w3.org/2000/svg" viewBox="0 0 22 22" preserveAspectRatio="xMidYMid slice"><path d="M10.898 17.516h.782v-1.243c2.25-.132 3.867-1.328 3.867-3.304 0-1.711-1.117-2.57-3.258-3.055l-.61-.133v-2.75c.907.11 1.524.602 1.633 1.461h2.079c-.07-1.86-1.508-3.078-3.711-3.226V4h-.782v1.266c-2.18.109-3.742 1.328-3.742 3.21 0 1.688 1.117 2.602 3.164 3.063l.578.133v2.844c-1.101-.102-1.68-.657-1.812-1.47H7c.055 1.97 1.672 3.126 3.898 3.227v1.243zM9.344 8.273c0-.632.531-1.156 1.554-1.25v2.579c-1.093-.282-1.554-.696-1.554-1.329zm4.023 4.938c0 .719-.562 1.219-1.687 1.305v-2.664c1.25.312 1.687.664 1.687 1.359z" fill="currentColor"/></svg>