<svg fill="none" xmlns="http://www.w3.org/2000/svg" viewBox="0 0 24 24" preserveAspectRatio="xMidYMid slice"><path d="M23.247 12.012a2.099 2.099 0 01-.126.369c-.106.253-.274.58-.508.955a12.733 12.733 0 01-2.123 2.543c-1.895 1.76-4.72 3.371-8.49 3.371-3.77 0-6.595-1.611-8.49-3.371a12.734 12.734 0 01-2.123-2.543 7.04 7.04 0 01-.508-.955 2.097 2.097 0 01-.126-.37 2.368 2.368 0 01.144-.345c.13-.253.33-.58.602-.96a15.65 15.65 0 012.37-2.57C5.916 6.346 8.747 4.75 12 4.75s6.084 1.597 8.131 3.386a15.69 15.69 0 012.37 2.57c.272.38.473.707.601.961a2.364 2.364 0 01.145.345z" stroke="currentColor" stroke-width="1.5"/><circle cx="12" cy="12" r="3.3" stroke="currentColor" stroke-width="1.5"/></svg>