<svg fill="none" xmlns="http://www.w3.org/2000/svg" preserveAspectRatio="xMidYMid slice" viewBox="0 0 24 24"><path d="M22.86 11.573C22.664 11.304 17.98 5 12 5 6.019 5 1.336 11.304 1.14 11.572a.724.724 0 000 .855C1.336 12.696 6.019 19 12 19c5.98 0 10.664-6.304 10.86-6.573a.723.723 0 000-.854zM12 17.552c-4.406 0-8.221-4.185-9.35-5.553C3.776 10.63 7.584 6.45 12 6.45c4.405 0 8.22 4.183 9.35 5.552-1.127 1.369-4.935 5.55-9.35 5.55z" fill="#000" stroke="#000" stroke-width=".5"/><path d="M12 9c-1.654 0-3 1.346-3 3s1.346 3 3 3 3-1.346 3-3-1.346-3-3-3zm0 5c-1.103 0-2-.897-2-2s.897-2 2-2 2 .897 2 2-.897 2-2 2z" fill="#000" stroke="#000"/></svg>