<svg width="24" height="24" fill="none" xmlns="http://www.w3.org/2000/svg" preserveAspectRatio="xMidYMid slice"><path fill-rule="evenodd" clip-rule="evenodd" d="M20.866 10.24l.67.659a1.54 1.54 0 0 1 0 2.202l-.67.66c-.082.37-.202.728-.322 1.063l.354 1.294c.08.293.039.6-.116.863a1.147 1.147 0 0 1-.703.53l-1.325.35a9.027 9.027 0 0 1-.79.775l-.354 1.302a1.16 1.16 0 0 1-1.42.804l-1.319-.348c-.348.115-.71.21-1.076.281l-.976.992A1.16 1.16 0 0 1 12 22c-.309 0-.6-.118-.819-.333l-.972-.956a9.104 9.104 0 0 1-1.083-.316l-1.316.347a1.16 1.16 0 0 1-1.42-.804l-.354-1.302a8.999 8.999 0 0 1-.79-.776l-1.325-.348a1.146 1.146 0 0 1-.703-.53 1.112 1.112 0 0 1-.115-.864l.353-1.294a8.688 8.688 0 0 1-.322-1.064l-.67-.659a1.54 1.54 0 0 1 0-2.202l.67-.66c.082-.37.202-.728.322-1.063l-.353-1.294c-.08-.293-.04-.6.115-.863.155-.264.405-.452.704-.53l1.324-.35c.246-.273.511-.533.79-.775l.355-1.302c.166-.602.8-.962 1.414-.805h.004l1.317.348c.34-.118.706-.236 1.083-.316l.972-.956a1.16 1.16 0 0 1 .82-.333c.308 0 .6.118.818.333l.972.956c.378.08.743.198 1.083.316l1.318-.347a1.165 1.165 0 0 1 1.418.804l.355 1.302c.278.242.543.502.789.776l1.325.348c.299.079.548.267.703.53.155.264.196.571.115.864l-.353 1.294c.12.335.24.693.322 1.064zm-5.479-1.095l.715.701a.474.474 0 0 1 .147.351c0 .138-.05.255-.147.351l-3.803 3.737-.715.702a.491.491 0 0 1-.357.145.49.49 0 0 1-.357-.145l-.715-.702-1.901-1.868a.474.474 0 0 1-.147-.351c0-.138.049-.255.147-.351l.714-.702a.49.49 0 0 1 .357-.145c.14 0 .26.048.358.145l1.544 1.523 3.446-3.391A.49.49 0 0 1 15.03 9c.14 0 .26.048.357.145z" fill="#000"/></svg>