<svg fill="none" xmlns="http://www.w3.org/2000/svg" viewBox="0 0 30 30" preserveAspectRatio="xMidYMid slice"><g clip-path="url(#clip0)"><path d="M15 30c8.284 0 15-6.715 15-15 0-8.284-6.716-15-15-15C6.716 0 0 6.716 0 15c0 8.285 6.716 15 15 15z" fill="#20C300"/><path fill-rule="evenodd" clip-rule="evenodd" d="M18.414 12.583c-.583.065-1.155.084-1.706.2-1.28.269-2.332.92-3.069 2.021-.638.955-.769 1.999-.482 3.102l.063.224c-.346-.02-.673-.018-.992-.065-.405-.06-.802-.166-1.205-.243a.401.401 0 00-.244.034c-.493.255-.982.52-1.472.782-.066.035-.134.067-.239.118.026-.096.038-.159.06-.22.135-.408.266-.816.412-1.22.045-.125.02-.185-.087-.26-.867-.618-1.541-1.395-1.847-2.43-.519-1.758.009-3.237 1.331-4.433 1.278-1.156 2.827-1.575 4.527-1.452 1.269.09 2.415.52 3.396 1.342.75.63 1.277 1.41 1.525 2.367.011.043.021.086.028.13.003.015-.007.033.001.003zm-2.79-.799a.784.784 0 00-.747-.796c-.442-.016-.783.308-.796.757-.012.423.31.781.717.797a.795.795 0 00.826-.758zm-3.808-.018c.004-.409-.358-.773-.773-.779-.435-.006-.771.335-.775.785a.768.768 0 00.753.768.788.788 0 00.795-.774z" fill="#fff"/><path fill-rule="evenodd" clip-rule="evenodd" d="M21.165 21.28c-.143-.076-.285-.155-.428-.23-.306-.161-.601-.36-.925-.473-.34-.12-.669.101-1.007.148-1.527.208-2.924-.087-4.125-1.078-1.84-1.517-1.838-4.05-.002-5.572 1.057-.878 2.295-1.216 3.654-1.127 1.082.072 2.063.426 2.895 1.133 1.82 1.546 1.82 4 .007 5.552a.436.436 0 01-.03.024c-.131.115-.337.21-.375.35-.038.142.087.33.14.497.08.25.158.499.236.749a1.62 1.62 0 00-.04.027zm-4.004-5.677c0-.325-.308-.631-.635-.631a.62.62 0 00-.612.64.612.612 0 00.605.604.628.628 0 00.642-.613zm3.058.005c-.001-.334-.297-.634-.624-.634-.314 0-.644.307-.647.603-.004.333.311.644.647.64.343-.006.625-.28.624-.608z" fill="#fff"/></g><defs><clipPath id="clip0"><path fill="#fff" d="M0 0h30v30H0z"/></clipPath></defs></svg>