<svg fill="none" xmlns="http://www.w3.org/2000/svg" viewBox="0 0 22 22" preserveAspectRatio="xMidYMid slice"><path d="M0 22l1.517-5.5C.531 14.793 0 12.897 0 10.924 0 4.931 4.931 0 10.962 0S22 4.931 22 10.924C22 16.917 16.993 22 10.962 22c-1.896 0-3.717-.607-5.348-1.517L0 22z" fill="#fff"/><path d="M5.917 18.51l.342.19c1.403.872 3.034 1.403 4.74 1.403 4.97 0 9.104-4.134 9.104-9.179s-4.134-9.027-9.141-9.027-9.066 4.02-9.066 9.027A9.19 9.19 0 003.3 15.817l.228.342-.873 3.186 3.262-.835z" fill="#55CD6C"/><path d="M8.041 5.841l-.72-.038a.861.861 0 00-.607.228c-.342.303-.91.872-1.062 1.631-.266 1.138.151 2.503 1.137 3.869.987 1.366 2.883 3.566 6.221 4.514 1.062.303 1.897.114 2.58-.304a2.24 2.24 0 00.986-1.441l.113-.531a.381.381 0 00-.19-.417l-2.389-1.1a.362.362 0 00-.455.114l-.948 1.213a.295.295 0 01-.304.076c-.645-.227-2.807-1.138-3.983-3.414-.037-.113-.037-.227.038-.303l.91-1.024c.077-.114.115-.266.077-.38l-1.1-2.465a.33.33 0 00-.304-.228z" fill="#FEFEFE"/></svg>