<svg fill="none" xmlns="http://www.w3.org/2000/svg" viewBox="0 0 30 30" preserveAspectRatio="xMidYMid slice"><circle cx="15" cy="15" r="15" fill="#FF3D00"/><path fill-rule="evenodd" clip-rule="evenodd" d="M21.719 21.218c.939-.134 1.7-.85 1.878-1.79.18-1.028.358-2.55.403-4.428 0-1.879-.224-3.4-.403-4.428a2.234 2.234 0 00-1.878-1.79 47.105 47.105 0 00-6.71-.492c-2.774 0-5.234.269-6.71.492-.94.134-1.7.85-1.879 1.79A26.18 26.18 0 006.063 15c0 1.879.178 3.4.357 4.428.18.94.94 1.655 1.88 1.79 1.52.223 3.98.492 6.709.492 2.773 0 5.233-.269 6.71-.492zM18.587 15l-5.367-3.131v6.262L18.587 15z" fill="#fff"/></svg>