<svg fill="none" xmlns="http://www.w3.org/2000/svg" viewBox="0 0 30 30" preserveAspectRatio="xMidYMid slice"><path d="M27 21.188a3.12 3.12 0 01-2.625 2.5c-2.062.312-5.5.687-9.375.687-3.812 0-7.25-.375-9.375-.688A3.12 3.12 0 013 21.188c-.25-1.437-.5-3.562-.5-6.187 0-2.625.25-4.75.5-6.188a3.12 3.12 0 012.625-2.5C7.688 6 11.125 5.625 15 5.625s7.25.375 9.375.688A3.12 3.12 0 0127 8.813c.25 1.437.563 3.562.563 6.187-.063 2.625-.313 4.75-.563 6.188z" fill="#FF3D00"/><path d="M12.5 19.375v-8.75L20 15l-7.5 4.375z" fill="#fff"/></svg>