<svg width="115" height="115" fill="none" xmlns="http://www.w3.org/2000/svg"><path d="M106.25 52.503c0 23.564-20.483 42.754-45.86 42.754a48.812 48.812 0 01-14.995-2.338c-.955-.308-2.192-.399-3.578-.365-1.4.034-3.014.198-4.754.438-2.652.365-5.646.915-8.676 1.47-.938.173-1.88.346-2.816.514-3.978.715-7.858 1.347-11.04 1.522-1.591.088-2.977.059-4.097-.12-1.134-.18-1.906-.502-2.361-.922-.234-.217-.38-.581-.303-1.255.078-.682.374-1.555.866-2.596.981-2.075 2.626-4.591 4.358-7.2l.357-.537c1.604-2.412 3.239-4.871 4.37-7.02.608-1.153 1.091-2.256 1.343-3.24.247-.968.303-1.949-.112-2.763a40.199 40.199 0 01-4.423-18.342c0-23.564 20.483-42.753 45.86-42.753 25.378 0 45.861 19.19 45.861 42.753z" fill="#fff" stroke="#F2F2F2" stroke-width="1.5"/><path d="M60.563 62.616c4.695.497 8.935-3.193 9.47-8.243.534-5.05-2.838-9.547-7.534-10.044-4.695-.497-8.934 3.194-9.47 8.243-.534 5.05 2.839 9.547 7.534 10.044z" fill="#F0BE27"/><path d="M59.5 62.187c4.696.498 8.935-3.193 9.47-8.243.535-5.05-2.838-9.547-7.533-10.044-4.695-.497-8.935 3.194-9.47 8.244-.534 5.05 2.838 9.546 7.534 10.043z" fill="#FFE269"/><path fill-rule="evenodd" clip-rule="evenodd" d="M59.837 61.01l.023.002.023.002h.023l.024.002.023.002.023.002H60l.023.001.023.002h.023l.024.002h.023l.023.001h.023l.023.002h.07l.023.001h.184l.022-.001h.023l.023-.001h.023l.023-.002h.023l.023-.002h.023l.022-.001.023-.001.023-.001.022-.002h.023l.024-.002.022-.002.023-.002h.018l.087 1.198-.02.001-.027.002-.026.002-.027.002-.027.002-.027.001-.027.001-.026.002h-.027l-.027.002h-.027l-.027.002-.027.001h-.028l-.026.001h-.027l-.028.001h-.053l-.027.001h-.19l-.027-.001h-.027l-.028-.002h-.027l-.027-.001h-.027l-.028-.002-.027-.001-.027-.001-.028-.002h-.027l-.027-.003-.028-.001-.027-.002-.027-.002-.028-.002-.027-.002-.016-.001.091-1.199.015.002zm3.43.67l-.012.004-.024.01-.025.009-.024.01-.025.009-.025.009-.025.009-.025.009-.024.009-.025.008-.025.01-.025.008-.025.009-.024.009-.025.008-.025.008-.025.008-.025.009-.026.008-.024.008-.026.007-.025.009-.025.008-.025.007-.025.008-.026.007-.025.007-.026.008-.024.008-.026.007-.025.007-.025.007-.026.007-.026.007-.025.007-.026.007-.025.006-.026.007-.025.006-.026.007-.026.006-.025.006-.026.007-.025.005-.026.007-.026.005h-.003l-.264-1.172.021-.005.023-.005.021-.005.023-.005.021-.005.022-.006.022-.006.022-.006.021-.005.022-.005.022-.006.021-.006.023-.006.021-.006.022-.006.02-.006.022-.006.022-.006.022-.007.021-.006.022-.006.021-.007.022-.006.021-.007.021-.007.022-.007.022-.006.022-.007.02-.007.022-.007.021-.008.021-.007.022-.006.021-.008.022-.008.02-.008.021-.006.021-.008.022-.008.02-.008.021-.007.022-.009.02-.008.022-.007.02-.009.01-.004.438 1.12zm-5.42-1.124l.022.008.021.008.021.008.021.008.021.008.022.008.02.008.022.007.022.008.02.008.022.008.022.007.02.007.022.008.02.007.046.015.02.006.044.015.021.006.022.008.021.006.022.006.022.007.021.006.023.007.022.006.022.007.021.006.022.006.022.006.022.006.023.006.021.006.023.006.022.005.021.006.023.006.022.005.023.006.022.006.022.004.032.008-.268 1.172-.013-.004-.026-.006-.027-.006-.026-.006-.026-.006-.026-.007-.027-.007-.026-.006-.026-.007-.026-.007-.026-.007-.026-.006-.026-.007-.026-.008-.025-.007-.026-.008-.026-.007-.026-.007-.025-.008-.026-.008-.026-.007-.026-.008-.025-.008-.026-.008-.025-.008-.026-.008-.025-.009-.025-.008-.026-.009-.025-.008-.025-.009-.026-.008-.025-.009-.025-.009-.025-.008-.025-.01-.025-.009-.025-.01-.025-.008-.025-.01-.025-.009-.024-.01-.026-.008-.024-.01-.025-.01-.01-.004.442-1.118.009.004zm7.508-.054l-.014.01-.021.017-.022.016-.021.016-.021.016-.022.016-.02.015-.022.016-.022.015-.02.016-.023.015-.021.016-.022.015-.021.015-.022.015-.022.015-.022.015-.022.015-.021.016-.023.014-.021.015-.022.014-.022.015-.022.014-.023.015-.021.015-.023.014-.022.014-.022.014-.023.014-.022.015-.022.013-.022.014-.023.014-.022.014-.023.014-.023.013-.022.014-.023.013-.023.013-.022.014-.023.013-.023.013-.023.014-.023.013-.019.01-.591-1.046.016-.01.02-.01.02-.012.02-.011.018-.012.02-.012.02-.01.02-.012.019-.012.019-.012.02-.011.02-.013.018-.011.02-.012.018-.012.02-.012.02-.012.02-.013.018-.012.019-.012.019-.012.018-.013.02-.013.019-.012.018-.012.02-.014.018-.012.02-.013.019-.014.019-.013.016-.011.02-.014.02-.014.019-.012.017-.013.018-.013.019-.014.019-.014.018-.014.019-.013.019-.014.018-.013.018-.014.018-.014.018-.013.012-.01.73.955zm-9.274-.968l.036.03.035.026.036.027.037.028.018.014.036.027.037.026.018.014.017.012.037.026.038.027.017.012.038.026.018.013.019.012.038.025.017.012.04.026.017.011.038.025.02.012.037.023.039.025.018.011.04.024.02.011.016.011.04.023.021.013-.602 1.04-.004-.002-.022-.014-.022-.013-.024-.013-.022-.013-.022-.014-.023-.013-.022-.014-.023-.014-.022-.014-.022-.014-.023-.014-.022-.014-.023-.014-.021-.014-.023-.014-.022-.015-.021-.014-.023-.014-.021-.015-.023-.015-.021-.014-.022-.015-.022-.015-.022-.014-.021-.016-.022-.015-.021-.015-.022-.015-.021-.016-.022-.014-.021-.016-.022-.015-.02-.016-.022-.015-.021-.016-.02-.016-.022-.016-.02-.015-.022-.016-.021-.016-.02-.016-.022-.016-.02-.017-.021-.016-.02-.016-.013-.01.746-.943.01.01zm10.968-.728l-.007.009-.017.022-.016.02-.017.022-.017.022-.016.021-.017.02-.017.022-.017.022-.017.02-.017.021-.017.021-.017.021-.018.02-.017.021-.017.02-.018.022-.017.02-.018.021-.017.02-.018.021-.017.02-.018.02-.018.02-.018.02-.017.021-.019.02-.017.02-.018.02-.019.02-.018.02-.018.02-.019.019-.018.02-.018.02-.018.019-.019.02-.019.019-.018.02-.019.019-.018.019-.019.02-.019.018-.019.02-.018.018-.004.004-.853-.847.004-.004.001-.002.017-.017.015-.015.017-.016.017-.018.016-.017.016-.016.016-.017.016-.017.016-.017.016-.016.016-.017.015-.017.016-.017.016-.017.017-.019.016-.017.015-.018.015-.016.015-.016.016-.018.002-.003.014-.015.014-.017.002-.002.015-.017.014-.017.002-.001.016-.019.014-.015.015-.019.015-.018.014-.017.017-.02.014-.016.014-.018.001-.001.016-.02.014-.016.015-.018.016-.02.014-.019.014-.015.014-.02.016-.02.014-.018.015-.018.015-.02.012-.016.006-.007.956.729zm-12.396-.768l.014.019.027.038.028.037.027.036.013.017.03.04.013.017.013.017.03.038.014.018.014.017.03.037.014.018.014.016.029.035.03.037.015.018.013.015.03.036.032.036.014.017.014.015.03.035.033.036.015.016.014.016.032.035.015.016.014.016.033.034.014.015-.873.826-.015-.015-.018-.02-.019-.019-.018-.02-.018-.018-.017-.02-.018-.02-.018-.02-.017-.02-.018-.018-.018-.02-.017-.02-.018-.02-.018-.02-.017-.02-.017-.02-.018-.02-.017-.02-.017-.02-.017-.02-.017-.021-.017-.02-.017-.021-.017-.02-.017-.02-.017-.022-.016-.02-.017-.02-.016-.021-.017-.021-.017-.02-.016-.022-.016-.021-.017-.02-.016-.022-.016-.021-.016-.021-.016-.022-.017-.021-.015-.02-.016-.023-.016-.021-.016-.022-.015-.021-.016-.022-.007-.01.974-.703.007.01zm13.6-1.306l-.008.019-.011.025-.01.026-.012.025-.011.026-.012.026-.011.025-.011.026-.012.025-.011.026-.012.025-.012.025-.011.026-.012.025-.012.025-.012.025-.012.026-.013.025-.012.024-.011.025-.013.025-.013.025-.012.025-.012.025-.013.024-.013.025-.012.025-.013.024-.013.025-.013.025-.013.024-.013.024-.013.025-.013.024-.013.024-.013.025-.014.024-.013.024-.014.024-.013.024-.014.024-.014.024-.013.023-.009.014-1.04-.602.008-.013.012-.02.011-.02.012-.022.013-.022.012-.022.01-.02.012-.02.012-.022.012-.022.011-.02.011-.02.012-.023.011-.02.012-.023.011-.02.011-.023.011-.022.01-.02.012-.022.01-.021.012-.022.011-.023.01-.022.012-.022.01-.02.01-.023.011-.022.011-.022.01-.023.01-.02.01-.023.01-.022.01-.02.01-.023.011-.025.011-.023.01-.02.008-.021.01-.023.01-.025.01-.021.01-.02v-.005l.008-.018 1.106.472zm-14.59-.528l.029.07.008.02.008.02.018.046.018.045.019.044.008.021.02.044.008.02.02.044.02.045.008.02.03.065.03.066.01.02.02.043.01.02.033.066.01.019.02.043.011.019.022.043.022.042.022.042.008.015-1.06.568-.009-.017-.012-.025-.013-.023-.013-.024-.012-.024-.013-.024-.012-.024-.012-.024-.012-.024-.013-.024-.012-.025-.012-.024-.011-.024-.012-.024-.012-.025-.011-.024-.013-.025-.01-.024-.013-.025-.011-.025-.011-.024-.012-.025-.01-.025-.012-.024-.011-.025-.011-.025-.012-.025-.01-.025-.011-.024-.01-.026-.012-.025-.01-.025-.01-.025-.011-.025-.01-.025-.011-.025-.01-.025-.01-.026-.011-.025-.01-.025-.01-.026-.01-.025-.01-.026-.01-.025-.005-.014 1.123-.43.004.013zm15.243-1.78l-.003.018-.004.029-.005.029-.004.028-.005.03-.005.028-.005.03-.005.028-.006.03-.005.028-.005.028-.006.03-.005.028-.005.028-.006.03-.006.028-.006.028-.005.028-.006.029-.006.028-.006.028-.007.029-.006.028-.006.028-.007.029-.006.028-.007.028-.007.028-.007.028-.007.028-.006.028-.007.028-.007.028-.007.027-.007.029-.008.027-.007.028-.008.028-.008.028-.007.027-.008.028-.006.024-1.158-.323.006-.024.008-.027.006-.023.007-.023.006-.025.007-.025.006-.025.007-.023.006-.025.007-.026.005-.023.007-.025.005-.026.006-.023.006-.023.005-.025.007-.026.006-.026.005-.025.005-.024.006-.023.005-.026.006-.026.004-.023.006-.026.005-.026.005-.024.005-.024.005-.026.005-.026.004-.026.005-.024.004-.024.006-.028.004-.024.004-.024.005-.026.004-.027.004-.024.004-.024.004-.029.003-.017 1.187.188zM53.17 54.18l.003.023.006.049.006.051.003.023.003.023.007.05.004.024.008.05.003.023.008.051.003.024.005.022.008.05.008.048.014.075.004.023.004.022.01.05.005.023.01.049.005.023.01.05.005.021.011.05.005.022.011.049.006.022.005.022-1.169.282-.005-.024-.007-.027-.006-.027-.006-.028-.006-.027-.007-.027-.006-.027-.005-.027-.007-.027-.005-.028-.006-.027-.006-.027-.005-.028-.006-.027-.005-.028-.006-.027-.005-.028-.005-.027-.005-.028-.005-.028-.005-.027-.005-.028-.005-.028-.005-.027-.004-.028-.005-.028-.004-.028-.005-.028-.004-.028-.005-.027-.003-.028-.004-.028-.004-.028-.004-.028-.004-.028-.004-.029-.004-.027-.003-.029-.004-.027-.003-.029-.004-.028-.003-.028-.003-.025 1.194-.136.003.025zm15.82-2.123l.002.028.002.028.002.029.002.028.002.029.002.028.002.029.002.028.001.029.002.029.002.028.001.03.002.028.001.029.001.028.002.03v.027l.001.03.001.029v.028l.002.029v.029l.001.029v.029l.001.029v.289l-.002.03v.028l-.001.03v.028l-.002.03v.02l-1.202-.038v-.02l.002-.027v-.024l.002-.027v-.075l.001-.028v-.254l-.001-.024-.001-.027v-.049l-.002-.025-.001-.026v-.027l-.002-.023-.001-.024-.001-.027-.001-.026-.002-.024-.002-.026v-.026l-.002-.024-.001-.024-.002-.026-.002-.026-.002-.024-.002-.026-.002-.026-.002-.023-.002-.024-.002-.025 1.198-.106.002.028zm-15.802-.006v.012l-.004.025-.003.029-.004.024-.002.026-.004.026-.003.027-.002.025-.006.052-.003.025-.005.055-.002.025-.002.025-.003.024-.004.055-.002.024-.002.026-.004.054-.001.025-.002.024-.003.054-.001.025-.001.024-.002.025-.002.054-.001.024-.002.055v.021l-.002.03v.024l-.002.051v.059l-1.202-.015v-.067l.001-.028.001-.029.001-.03v-.029l.002-.028v-.03l.002-.029v-.03l.002-.029.001-.03.002-.028.001-.03.002-.029.001-.03.002-.029.002-.029.002-.03.002-.029.002-.03.002-.028.002-.03.003-.03.002-.029.003-.03.002-.029.004-.03.002-.029.003-.03.003-.029.003-.03.004-.029.003-.03.003-.029.004-.03.003-.029.004-.03.003-.029.004-.029.002-.016 1.191.158zm15.29-2.366l.01.026.01.026.008.026.009.026.008.026.01.026.008.026.009.026.009.026.008.027.008.026.008.026.008.027.01.026.007.027.008.026.008.026.007.026.008.028.008.026.007.027.008.026.008.027.008.026.007.027.007.027.007.027.007.026.007.028.007.026.007.027.007.027.007.027.006.027.007.027.006.027.007.027.006.027.007.027.006.027.005.027.007.028.008.039-1.174.257-.003-.012-.005-.027-.005-.022-.005-.022-.007-.027-.004-.022-.006-.022-.006-.027-.006-.022-.005-.022-.006-.027-.006-.022-.006-.022-.006-.027-.006-.021-.006-.022v-.004l-.007-.023-.005-.022-.007-.024-.006-.021-.007-.025-.007-.024-.006-.023-.007-.024-.006-.022-.008-.024-.006-.024-.007-.021-.007-.021-.007-.024-.001-.005-.006-.021-.007-.021-.008-.024-.007-.021-.007-.023-.008-.024-.007-.023-.008-.024-.007-.02-.008-.024-.008-.023-.008-.022-.007-.023-.008-.023v.002l1.133-.402zm-14.764.327v.001l-.01.023-.008.022-.009.024-.01.023-.007.021-.01.024-.008.024-.009.023-.008.024-.008.023-.008.021-.008.024-.002.004-.008.022-.007.022-.009.024-.008.022-.008.024-.007.024-.008.024-.008.023-.007.022-.001.004-.008.022-.007.023-.008.024-.007.025-.008.024-.007.022-.007.025-.008.025-.007.023-.007.024-.007.025-.006.023-.008.025-.007.025-.006.022-.007.025-.007.025-.006.023-.007.025-.006.025-.006.023v.004l-1.166-.298.002-.006.007-.027.007-.028.008-.028.007-.028.008-.027.007-.028.008-.028.008-.027.008-.028.008-.028.007-.027.009-.027.008-.028.008-.027.008-.027.009-.027.008-.028.008-.027.01-.027.008-.027.009-.027.009-.028.009-.026.009-.027.009-.027.009-.027.009-.027.009-.026.01-.028.008-.026.01-.027.01-.026.01-.027.01-.027.01-.026.009-.026.01-.027.01-.026.01-.027.01-.026.01-.026.01-.027 1.119.44zm13.697-2.448l.014.023.016.022.014.022.015.023.014.022.015.022.015.022.015.023.014.023.014.022.015.023.014.022.014.023.015.023.013.022.015.023.014.023.013.023.014.023.014.023.014.023.013.023.014.024.014.023.013.023.013.024.014.023.013.024.014.023.013.023.012.024.013.024.013.023.013.024.013.024.013.024.013.023.012.024.013.024.013.024.012.024.012.024.013.024.01.02-1.073.543-.01-.02-.01-.018-.01-.021-.012-.023-.01-.02-.01-.02-.002-.002-.011-.02-.01-.019-.013-.023-.01-.02-.01-.02-.012-.02-.011-.021-.011-.019-.012-.021-.012-.022-.012-.021-.01-.019-.013-.02-.011-.021-.012-.02-.012-.02-.012-.021-.012-.02-.011-.018-.012-.02-.012-.02-.013-.021-.012-.02-.012-.02-.013-.02-.012-.02-.013-.02-.01-.018-.013-.02-.014-.02-.012-.019-.014-.021-.012-.018-.012-.019-.001-.001-.012-.019-.012-.018-.015-.021-.013-.019-.01-.017.992-.676.014.018zm-12.692.614v-.002l-.012.018-.014.02-.015.021-.014.02-.012.017-.014.02-.014.02-.013.019-.014.019-.013.02-.014.02-.013.02-.014.02-.012.019-.014.02-.013.02-.014.02-.012.019-.013.02-.013.022-.013.02-.012.018-.013.02-.013.02-.012.022-.013.02-.013.02-.012.021-.013.021-.013.02-.01.02-.014.02-.012.021-.012.021-.013.021-.012.021-.012.021-.012.022-.012.02-.011.02-.011.021-.014.023-.01.02-.009.016-1.055-.576.011-.02.013-.024.014-.024.013-.025.014-.024.014-.023.013-.025.014-.024.013-.023.014-.024.014-.024.014-.023.014-.024.014-.024.014-.023.015-.023.014-.024.014-.024.015-.023.015-.023.014-.023.015-.023.014-.023.015-.024.015-.023.015-.022.015-.024.015-.022.015-.023.015-.023.015-.023.015-.022.016-.023.015-.022.016-.023.015-.023.016-.022.015-.023.016-.021.016-.022.015-.023.017-.022.015-.022.016-.022h.001l.97.71zm11.085-2.402l.02.017.02.017.02.017.02.018.02.017.02.017.02.018.02.017.019.018.02.017.02.018.02.017.019.018.019.018.02.018.019.018.019.018.02.018.018.018.02.018.019.018.019.019.019.018.018.019.02.018.018.019.019.019.019.018.018.019.019.018.018.02.018.018.02.02.017.018.019.02.018.018.018.02.018.02.018.018.018.02.019.019.017.02.018.019.018.02.017.018-.892.806-.015-.017-.017-.018-.015-.017-.014-.015-.016-.017-.016-.018-.016-.017-.014-.014-.016-.017-.017-.019-.016-.015-.016-.017-.016-.016-.015-.016-.016-.017-.016-.015-.016-.016-.016-.017-.016-.016-.017-.015-.016-.016-.016-.016-.017-.017-.016-.015-.016-.015-.016-.015-.018-.017-.016-.016-.016-.015-.017-.016-.017-.015-.016-.015-.017-.015-.017-.016-.017-.015-.016-.015-.017-.014-.018-.017-.017-.014-.017-.015-.017-.014-.017-.015-.017-.014-.016-.016-.018-.014-.01-.008.772-.922.012.01zm-9.65.889l-.01.008-.019.015-.017.014-.017.014h-.001l-.019.016-.016.013-.017.015-.02.016-.016.014-.017.015-.019.016-.017.015-.017.015-.017.015-.017.015-.017.015-.017.015-.019.017-.017.015-.017.015-.017.016-.016.015-.017.016-.018.016-.017.016-.017.015-.017.017-.016.016-.017.015-.018.017-.016.016-.016.015-.016.016-.017.018-.017.016-.016.016-.017.016-.016.017-.017.018-.016.015-.015.015-.017.018-.017.018-.015.016-.017.017-.008.008-.871-.828.008-.009.019-.02.018-.018.019-.02.019-.019.018-.019.019-.02.019-.018.019-.02.019-.018.019-.019.019-.019.019-.018.018-.019.02-.019.019-.018.02-.019.019-.019.02-.017.019-.02.019-.018.02-.018.02-.018.019-.018.02-.018.019-.018.02-.018.02-.018.02-.018.02-.017.02-.017.02-.018.02-.018.02-.018.02-.017.02-.017.02-.017.02-.017.021-.018.02-.017.02-.017.02-.017.022-.016.02-.017.021-.017.012-.01.755.936zm7.62-2.15l.025.011.023.011.025.01.024.011.024.01.024.013.025.01.023.011.024.012.025.01.023.012.024.012.024.01.024.012.023.012.024.012.024.012.023.012.024.011.023.013.023.012.024.012.024.012.023.012.023.013.023.012.023.013.024.012.023.013.023.013.023.013.023.012.022.013.024.014.022.013.023.013.023.013.023.013.022.014.023.014.023.013.022.014.022.014.023.013.016.01-.632 1.023-.013-.009-.02-.012-.02-.012-.019-.012-.02-.011-.019-.012-.019-.01-.019-.012-.02-.011-.02-.012-.018-.011-.02-.011-.02-.012-.018-.01-.02-.01-.02-.012-.02-.012-.02-.01-.019-.01-.02-.01-.02-.011-.02-.01-.02-.012-.02-.01-.02-.01-.02-.01-.02-.01-.02-.01-.02-.01-.02-.01-.02-.01-.02-.01-.02-.01-.02-.01-.022-.01-.02-.01-.021-.009-.02-.009-.02-.01-.02-.009-.02-.009-.021-.01-.021-.008-.021-.01-.02-.009-.02-.007.476-1.104.022.008zm-5.852 1.088l-.015.006-.021.01-.02.007-.021.01-.02.01-.021.008-.021.01-.02.009-.02.009-.022.01-.02.009-.02.01-.02.009-.02.01-.022.01-.02.009-.02.01-.02.01-.02.009-.02.01-.022.01-.02.01-.019.01-.02.011-.021.01-.02.011-.02.01-.019.01-.02.011-.02.011-.021.011-.02.01-.02.01-.02.013-.019.01-.02.011-.02.011-.02.012-.018.01-.02.013-.02.01-.02.011-.02.012-.019.012-.02.011-.02.013-.617-1.032.022-.013.022-.013.023-.014.023-.013.022-.013.023-.014.023-.013.023-.012.023-.014.023-.012.023-.014.023-.012.023-.012.023-.014.023-.012.024-.013.023-.012.023-.012.023-.012.024-.013.023-.012.023-.012.024-.012.023-.012.024-.011.023-.012.024-.012.024-.012.023-.011.024-.012.024-.01.024-.012.023-.012.024-.01.024-.012.024-.01.024-.011.024-.011.024-.01.023-.012.025-.01.024-.01.024-.012.024-.01.025-.01.016-.008.468 1.108zm3.076-1.736l.027.001.027.002.028.002h.027l.028.003.027.002.027.002.028.002.027.002.028.002.027.003.027.002.028.003.027.003.028.002.027.003.028.003.027.004.027.003.028.003.027.003.027.003.028.004.027.004.027.003.028.004.027.004.027.003.027.005.027.004.027.004.027.005.027.004.027.005.027.004.027.005.027.004.027.005.026.005.027.005.027.006.026.004.027.005.027.007.026.005.027.005.027.005.026.007.026.006.026.005.027.006.026.006.027.006.026.006.026.007.026.006.026.007.027.006.026.007.029.007-.306 1.163-.022-.006-.022-.005-.023-.006-.022-.006-.022-.005-.022-.005-.023-.006-.023-.005-.022-.005-.022-.005-.023-.005-.022-.005-.022-.005-.023-.005-.023-.005-.023-.004-.021-.005-.023-.004-.023-.005-.023-.003-.023-.005-.022-.005-.023-.004-.023-.004-.023-.003-.023-.004-.023-.004-.022-.003-.024-.004-.022-.004-.023-.004-.024-.003-.022-.003-.023-.004-.024-.003-.023-.003-.023-.003-.023-.003-.023-.003-.024-.003-.023-.002-.023-.003-.024-.003-.023-.002-.024-.003-.023-.002-.024-.002-.023-.002-.023-.003-.024-.002-.023-.001-.023-.003-.024-.001-.023-.002-.023-.002-.023-.001-.023-.002h-.024l-.023-.002-.024-.001-.02-.002.058-1.2.024.001zm-1.101 1.227l-.014.001-.023.003-.022.003-.023.002-.022.003-.023.002-.022.003-.023.003-.022.003-.023.003-.022.003-.022.003-.023.004-.022.003-.023.003-.021.003-.023.004-.022.004-.023.004-.022.003-.023.004-.021.004-.022.004-.022.003-.022.005-.023.004-.022.004-.022.005-.022.004-.022.005-.022.004-.022.005-.023.005-.021.004-.023.005-.022.005-.022.004-.022.006-.021.005-.022.005-.021.005-.023.006-.023.005-.02.005-.022.006-.014.004-.301-1.164.017-.005.025-.006.026-.007.026-.006.026-.006.025-.006.026-.006.025-.006.026-.006.026-.006.026-.006.026-.006.026-.005.026-.006.026-.005.026-.005.026-.006.025-.005.026-.005.026-.005.026-.004.026-.006.027-.005.026-.004.026-.005.026-.004.026-.005.027-.004.026-.004.026-.004.026-.005.027-.003.026-.004.026-.004.027-.004.026-.003.026-.004.027-.004.026-.003.027-.003.026-.003.027-.003.026-.003.027-.003.026-.002.017-.003.123 1.197z" fill="#FFD210"/><path d="M59.78 59.59c3.363.357 6.398-2.286 6.781-5.902s-2.032-6.835-5.394-7.191c-3.362-.356-6.397 2.286-6.78 5.902s2.032 6.836 5.394 7.192z" fill="#FFEF8C"/><path d="M63.494 49.866l-1.121-.872-4.927 7.23 1.121.872 4.927-7.23z" fill="#FFE269"/><path d="M83.563 62.616c4.695.497 8.935-3.193 9.47-8.243.534-5.05-2.838-9.547-7.534-10.044-4.695-.497-8.934 3.194-9.47 8.243-.534 5.05 2.839 9.547 7.534 10.044z" fill="#F0BE27"/><path d="M82.5 62.187c4.696.498 8.935-3.193 9.47-8.243.535-5.05-2.838-9.547-7.533-10.044-4.695-.497-8.935 3.194-9.47 8.244-.534 5.05 2.838 9.546 7.534 10.043z" fill="#FFE269"/><path fill-rule="evenodd" clip-rule="evenodd" d="M82.837 61.01l.023.002.023.002h.023l.024.002.023.002.023.002H83l.023.001.023.002h.023l.024.002h.023l.023.001h.023l.023.002h.07l.023.001h.184l.022-.001h.023l.023-.001h.023l.023-.002h.023l.023-.002h.023l.022-.001.023-.001.023-.001.022-.002h.023l.024-.002.022-.002.023-.002h.018l.087 1.198-.02.001-.027.002-.026.002-.027.002-.027.002-.027.001-.027.001-.026.002h-.027l-.027.002h-.027l-.027.002-.028.001h-.026l-.027.001h-.027l-.028.001h-.054l-.027.001h-.19l-.026-.001h-.027l-.028-.002h-.027l-.027-.001h-.027l-.028-.002-.027-.001-.027-.001-.028-.002h-.027l-.027-.003-.028-.001-.027-.002-.027-.002-.028-.002-.027-.002-.016-.001.091-1.199.015.002zm3.43.67l-.011.004-.025.01-.025.009-.024.01-.025.009-.025.009-.025.009-.025.009-.024.009-.025.008-.025.01-.025.008-.025.009-.024.009-.025.008-.025.008-.025.008-.025.009-.026.008-.024.008-.026.007-.024.009-.026.008-.025.007-.025.008-.026.007-.025.007-.025.008-.025.008-.026.007-.025.007-.025.007-.026.007-.026.007-.025.007-.025.007-.026.006-.026.007-.025.006-.026.007-.026.006-.025.006-.026.007-.025.005-.026.007-.026.005h-.003l-.264-1.172.021-.005.023-.005.021-.005.023-.005.021-.005.022-.006.022-.006.022-.006.021-.005.022-.005.022-.006.021-.006.023-.006.021-.006.022-.006.02-.006.022-.006.022-.006.022-.007.021-.006.022-.006.021-.007.022-.006.021-.007.021-.007.022-.007.022-.006.022-.007.02-.007.022-.007.021-.008.021-.007.021-.006.022-.008.022-.008.02-.008.021-.006.021-.008.022-.008.02-.008.021-.007.022-.009.02-.008.022-.007.02-.009.01-.004.438 1.12zm-5.42-1.124l.022.008.021.008.022.008.02.008.021.008.022.008.02.008.022.007.022.008.02.008.022.008.022.007.02.007.022.008.02.007.045.015.02.006.045.015.021.006.022.008.021.006.022.006.022.007.021.006.023.007.022.006.022.007.021.006.022.006.022.006.022.006.023.006.021.006.023.006.022.005.021.006.023.006.022.005.023.006.022.006.022.004.032.008-.268 1.172-.013-.004-.026-.006-.027-.006-.026-.006-.026-.006-.026-.007-.027-.007-.026-.006-.025-.007-.027-.007-.026-.007-.026-.006-.026-.007-.026-.008-.025-.007-.026-.008-.026-.007-.026-.007-.025-.008-.026-.008-.026-.007-.026-.008-.025-.008-.025-.008-.026-.008-.026-.008-.025-.009-.026-.008-.025-.009-.025-.008-.025-.009-.026-.008-.025-.009-.025-.009-.025-.008-.025-.01-.025-.009-.025-.01-.025-.008-.025-.01-.025-.009-.024-.01-.026-.008-.024-.01-.025-.01-.01-.004.442-1.118.009.004zm7.508-.054l-.014.01-.021.017-.022.016-.021.016-.021.016-.022.016-.02.015-.022.016-.022.015-.02.016-.023.015-.021.016-.022.015-.021.015-.022.015-.022.015-.022.015-.022.015-.021.016-.023.014-.021.015-.022.014-.022.015-.022.014-.023.015-.021.015-.023.014-.022.014-.022.014-.023.014-.022.015-.022.013-.022.014-.023.014-.022.014-.023.014-.023.013-.022.014-.023.013-.023.013-.022.014-.023.013-.023.013-.023.014-.023.013-.019.01-.591-1.046.016-.01.02-.01.02-.012.02-.011.018-.012.02-.012.02-.01.02-.012.019-.012.019-.012.02-.011.02-.013.018-.011.02-.012.018-.012.02-.012.02-.012.02-.013.018-.012.019-.012.019-.012.018-.013.02-.013.019-.012.018-.012.02-.014.018-.012.02-.013.019-.014.019-.013.016-.011.02-.014.02-.014.019-.012.017-.013.018-.013.019-.014.019-.014.018-.014.019-.013.019-.014.018-.013.018-.014.018-.014.018-.013.012-.01.73.955zm-9.274-.968l.037.03.034.026.036.027.037.028.018.014.036.027.037.026.018.014.017.012.037.026.038.027.017.012.038.026.018.013.019.012.038.025.017.012.04.026.017.011.038.025.02.012.037.023.039.025.019.011.038.024.02.011.017.011.04.023.021.013-.602 1.04-.003-.002-.023-.014-.022-.013-.024-.013-.022-.013-.022-.014-.023-.013-.022-.014-.023-.014-.022-.014-.023-.014-.022-.014-.022-.014-.023-.014-.021-.014-.023-.014-.022-.015-.022-.014-.022-.014-.021-.015-.023-.015-.021-.014-.022-.015-.022-.015-.022-.014-.021-.016-.022-.015-.021-.015-.022-.015-.021-.016-.022-.014-.021-.016-.021-.015-.021-.016-.022-.015-.021-.016-.02-.016-.022-.016-.02-.015-.022-.016-.021-.016-.02-.016-.022-.016-.02-.017-.021-.016-.02-.016-.013-.01.746-.943.01.01zm10.968-.728l-.007.009-.017.022-.016.02-.017.022-.017.022-.016.021-.017.02-.017.022-.017.022-.017.02-.017.021-.017.021-.017.021-.018.02-.017.021-.017.02-.018.022-.017.02-.018.021-.017.02-.018.021-.017.02-.018.02-.018.02-.018.02-.017.021-.019.02-.017.02-.018.02-.019.02-.018.02-.018.02-.019.019-.018.02-.018.02-.018.019-.019.02-.019.019-.018.02-.019.019-.018.019-.019.02-.019.018-.019.02-.018.018-.004.004-.853-.847.004-.004.001-.002.017-.017.015-.015.017-.016.017-.018.016-.017.016-.016.016-.017.016-.017.016-.017.016-.016.016-.017.015-.017.016-.017.016-.017.017-.019.016-.017.015-.018.015-.016.015-.016.016-.018.002-.003.014-.015.014-.017.002-.002.015-.017.014-.017.002-.001.016-.019.014-.015.015-.019.015-.018.014-.017.017-.02.014-.016.014-.018.001-.001.016-.02.014-.016.015-.018.016-.02.014-.019.014-.015.014-.02.016-.02.014-.018.015-.018.015-.02.012-.016.006-.007.956.729zm-12.396-.768l.014.019.027.038.028.037.027.036.013.017.03.04.013.017.013.017.03.038.014.018.014.017.03.037.014.018.014.016.029.035.03.037.015.018.013.015.03.036.032.036.014.017.014.015.03.035.033.036.015.016.014.016.032.035.015.016.014.016.033.034.014.015-.873.826-.015-.015-.018-.02-.019-.019-.017-.02-.019-.018-.017-.02-.018-.02-.018-.02-.017-.02-.018-.018-.018-.02-.017-.02-.018-.02-.018-.02-.017-.02-.017-.02-.018-.02-.017-.02-.017-.02-.017-.02-.017-.021-.017-.02-.017-.021-.017-.02-.017-.02-.017-.022-.016-.02-.017-.02-.016-.021-.017-.021-.017-.02-.016-.022-.016-.021-.016-.02-.017-.022-.016-.021-.016-.021-.016-.022-.017-.021-.015-.02-.016-.023-.016-.021-.016-.022-.015-.021-.016-.022-.007-.01.974-.703.007.01zm13.6-1.306l-.008.019-.011.025-.01.026-.012.025-.011.026-.012.026-.011.025-.011.026-.012.025-.011.026-.012.025-.012.025-.011.026-.012.025-.012.025-.012.025-.012.026-.013.025-.012.024-.011.025-.013.025-.013.025-.012.025-.012.025-.013.024-.013.025-.012.025-.013.024-.013.025-.013.025-.013.024-.013.024-.013.025-.013.024-.013.024-.013.025-.014.024-.013.024-.014.024-.013.024-.014.024-.014.024-.013.023-.009.014-1.04-.602.008-.013.012-.02.011-.02.012-.022.013-.022.012-.022.01-.02.012-.02.012-.022.012-.022.011-.02.011-.02.012-.023.011-.02.012-.023.011-.02.011-.023.011-.022.01-.02.012-.022.01-.021.012-.022.011-.023.01-.022.012-.022.01-.02.01-.023.011-.022.011-.022.01-.023.01-.02.01-.023.01-.022.01-.02.01-.023.011-.025.011-.023.01-.02.008-.021.01-.023.01-.025.01-.021.01-.02v-.005l.008-.018 1.106.472zm-14.59-.528l.029.07.008.02.008.02.018.046.018.045.019.044.008.021.02.044.008.02.02.044.02.045.008.02.03.065.03.066.01.02.02.043.01.02.033.066.01.019.02.043.011.019.022.043.022.042.022.042.008.015-1.06.568-.009-.017-.012-.025-.013-.023-.013-.024-.012-.024-.013-.024-.012-.024-.012-.024-.012-.024-.013-.024-.012-.025-.012-.024-.011-.024-.012-.024-.012-.025-.011-.024-.012-.025-.012-.024-.012-.025-.011-.025-.011-.024-.012-.025-.01-.025-.012-.024-.011-.025-.011-.025-.012-.025-.01-.025-.011-.024-.01-.026-.012-.025-.01-.025-.01-.025-.011-.025-.01-.025-.011-.025-.01-.025-.01-.026-.011-.025-.01-.025-.01-.026-.01-.025-.01-.026-.01-.025-.005-.014 1.123-.43.004.013zm15.243-1.78l-.003.018-.004.029-.005.029-.004.028-.005.03-.005.028-.005.03-.005.028-.006.03-.005.028-.005.028-.006.03-.005.028-.005.028-.006.03-.006.028-.006.028-.005.028-.006.029-.006.028-.006.028-.007.029-.006.028-.006.028-.007.029-.006.028-.007.028-.007.028-.007.028-.007.028-.006.028-.007.028-.007.028-.007.027-.007.029-.008.027-.007.028-.008.028-.008.028-.007.027-.008.028-.006.024-1.158-.323.006-.024.008-.027.006-.023.007-.023.006-.025.007-.025.006-.025.007-.023.006-.025.007-.026.005-.023.007-.025.005-.026.006-.023.006-.023.005-.025.007-.026.006-.026.005-.025.005-.024.006-.023.005-.026.006-.026.004-.023.006-.026.005-.026.005-.024.005-.024.005-.026.005-.026.004-.026.005-.024.004-.024.006-.028.004-.024.004-.024.005-.026.004-.027.004-.024.004-.024.004-.029.003-.017 1.187.188zM76.17 54.18l.003.023.006.049.006.051.003.023.003.023.007.05.004.024.008.05.003.023.008.051.003.024.005.022.008.05.008.048.014.075.004.023.004.022.01.05.005.023.01.049.004.023.011.05.005.021.011.05.005.022.011.049.006.022.005.022-1.168.282-.006-.024-.007-.027-.006-.027-.007-.028-.005-.027-.007-.027-.006-.027-.006-.027-.006-.027-.005-.028-.006-.027-.005-.027-.006-.028-.006-.027-.005-.028-.006-.027-.005-.028-.005-.027-.005-.028-.005-.028-.005-.027-.005-.028-.005-.028-.005-.027-.004-.028-.005-.028-.004-.028-.005-.028-.004-.028-.005-.027-.003-.028-.004-.028-.004-.028-.004-.028-.004-.028-.004-.029-.004-.027-.003-.029-.004-.027-.004-.029-.003-.028-.003-.028-.003-.025 1.194-.136.003.025zm15.82-2.123l.002.028.002.028.002.029.002.028.002.029.002.028.002.029.002.028.001.029.002.029.002.028.001.03.002.028.001.029.001.028.002.03v.027l.001.03.001.029v.028l.002.029v.029l.001.029v.029l.001.029v.289l-.002.03v.028l-.001.03v.028l-.002.03v.02l-1.202-.038v-.02l.002-.027v-.024l.002-.027v-.075l.001-.028v-.254l-.001-.024-.001-.027v-.049l-.002-.025-.001-.026v-.027l-.002-.023-.001-.024-.001-.027-.001-.026-.002-.024-.002-.026v-.026l-.002-.024-.001-.024-.002-.026-.002-.026-.002-.024-.002-.026-.002-.026-.002-.023-.002-.024-.002-.025 1.198-.106.002.028zm-15.802-.006v.012l-.004.025-.003.029-.004.024-.002.026-.004.026-.003.027-.003.025-.005.052-.003.025-.005.055-.002.025-.002.025-.003.024-.004.055-.002.024-.002.026-.004.054-.001.025-.002.024-.003.054-.001.025-.001.024-.001.025-.003.054-.001.024-.002.055v.021l-.002.03v.024l-.001.051v.059l-1.203-.015v-.067l.001-.028.001-.029.001-.03v-.029l.001-.028.001-.03.002-.029v-.03l.002-.029.001-.03.002-.028.001-.03.002-.029.001-.03.002-.029.002-.029.002-.03.002-.029.002-.03.002-.028.002-.03.003-.03.002-.029.003-.03.002-.029.004-.03.002-.029.003-.03.003-.029.003-.03.004-.029.003-.03.003-.029.004-.03.003-.029.004-.03.003-.029.004-.029.002-.016 1.191.158zm15.29-2.366l.01.026.01.026.008.026.009.026.008.026.01.026.008.026.009.026.009.026.008.027.008.026.008.026.008.027.01.026.007.027.008.026.008.026.007.026.008.028.008.026.007.027.008.026.008.027.008.026.007.027.007.027.007.027.007.026.007.028.007.026.007.027.007.027.007.027.006.027.007.027.006.027.007.027.006.027.007.027.006.027.005.027.007.028.008.039-1.174.257-.003-.012-.005-.027-.005-.022-.005-.022-.007-.027-.004-.022-.006-.022-.006-.027-.006-.022-.005-.022-.006-.027-.006-.022-.006-.022-.006-.027-.006-.021-.006-.022v-.004l-.007-.023-.005-.022-.007-.024-.006-.021-.007-.025-.007-.024-.006-.023-.007-.024-.006-.022-.008-.024-.006-.024-.007-.021-.007-.021-.007-.024-.001-.005-.006-.021-.007-.021-.008-.024-.007-.021-.007-.023-.008-.024-.007-.023-.008-.024-.007-.02-.008-.024-.008-.023-.008-.022-.007-.023-.008-.023v.002l1.133-.402zm-14.764.327v.001l-.01.023-.008.022-.009.024-.01.023-.007.021-.01.024-.008.024-.009.023-.008.024-.008.023-.008.021-.008.024-.002.004-.008.022-.007.022-.009.024-.008.022-.007.024-.008.024-.008.024-.008.023-.007.022-.001.004-.008.022-.007.023-.008.024-.007.025-.008.024-.007.022-.007.025-.008.025-.007.023-.007.024-.007.025-.006.023-.008.025-.007.025-.006.022-.007.025-.007.025-.006.023-.007.025-.006.025-.007.023v.004l-1.165-.298.002-.006.007-.027.007-.028.008-.028.007-.028.008-.027.007-.028.008-.028.008-.027.008-.028.008-.028.007-.027.009-.027.008-.028.008-.027.009-.027.008-.027.008-.028.008-.027.01-.027.008-.027.009-.027.009-.028.009-.026.009-.027.009-.027.009-.027.009-.027.009-.026.01-.028.008-.026.01-.027.01-.026.01-.027.01-.027.01-.026.009-.026.01-.027.01-.026.01-.027.01-.026.01-.026.01-.027 1.119.44zm13.697-2.448l.014.023.016.022.014.022.015.023.014.022.015.022.015.022.015.023.014.023.014.022.015.023.014.022.014.023.015.023.013.022.015.023.014.023.013.023.014.023.014.023.014.023.013.023.014.024.014.023.013.023.013.024.014.023.013.024.014.023.013.023.012.024.013.024.013.023.013.024.013.024.013.024.013.023.012.024.013.024.013.024.012.024.012.024.013.024.01.02-1.073.543-.01-.02-.01-.018-.01-.021-.012-.023-.01-.02-.01-.02-.002-.002-.011-.02-.01-.019-.013-.023-.01-.02-.01-.02-.012-.02-.011-.021-.011-.019-.012-.021-.012-.022-.012-.021-.01-.019-.013-.02-.011-.021-.012-.02-.012-.02-.012-.021-.012-.02-.011-.018-.012-.02-.012-.02-.013-.021-.012-.02-.012-.02-.013-.02-.012-.02-.013-.02-.01-.018-.013-.02-.014-.02-.012-.019-.014-.021-.012-.018-.012-.019-.001-.001-.012-.019-.012-.018-.015-.021-.013-.019-.01-.017.992-.676.014.018zm-12.692.614v-.002l-.012.018-.014.02-.015.021-.014.02-.012.017-.014.02-.014.02-.013.019-.014.019-.013.02-.014.02-.013.02-.014.02-.012.019-.014.02-.013.02-.014.02-.012.019-.013.02-.013.022-.013.02-.012.018-.013.02-.013.02-.012.022-.013.02-.013.02-.012.021-.013.021-.013.02-.01.02-.014.02-.012.021-.012.021-.013.021-.012.021-.012.021-.011.022-.013.02-.011.02-.011.021-.014.023-.01.02-.009.016-1.055-.576.011-.02.013-.024.014-.024.013-.025.014-.024.013-.023.014-.025.014-.024.013-.023.014-.024.014-.024.014-.023.014-.024.014-.024.014-.023.015-.023.014-.024.014-.024.015-.023.015-.023.014-.023.015-.023.014-.023.015-.024.015-.023.015-.022.015-.024.015-.022.015-.023.015-.023.015-.023.016-.022.015-.023.015-.022.016-.023.015-.023.016-.022.015-.023.016-.021.016-.022.015-.023.017-.022.015-.022.016-.022h.001l.97.71zm11.085-2.402l.02.017.02.017.02.017.02.018.02.017.02.017.02.018.02.017.019.018.02.017.02.018.02.017.019.018.019.018.02.018.019.018.019.018.02.018.018.018.02.018.019.018.019.019.019.018.018.019.02.018.018.019.019.019.019.018.018.019.019.018.018.02.018.018.02.02.017.018.019.02.018.018.018.02.018.02.018.018.018.02.019.019.017.02.018.019.018.02.017.018-.892.806-.015-.017-.017-.018-.015-.017-.014-.015-.016-.017-.016-.018-.016-.017-.014-.014-.016-.017-.017-.019-.016-.015-.016-.017-.016-.016-.015-.016-.016-.017-.016-.015-.016-.016-.016-.017-.016-.016-.017-.015-.016-.016-.016-.016-.017-.017-.016-.015-.016-.015-.016-.015-.018-.017-.016-.016-.016-.015-.017-.016-.017-.015-.016-.015-.017-.015-.017-.016-.017-.015-.016-.015-.017-.014-.018-.017-.017-.014-.017-.015-.017-.014-.017-.015-.017-.014-.016-.016-.018-.014-.01-.008.772-.922.012.01zm-9.65.889l-.01.008-.019.015-.017.014-.017.014h-.001l-.019.016-.016.013-.018.015-.018.016-.017.014-.017.015-.019.016-.017.015-.017.015-.017.015-.017.015-.017.015-.017.015-.019.017-.017.015-.017.015-.017.016-.016.015-.017.016-.017.016-.018.016-.017.015-.017.017-.016.016-.017.015-.018.017-.016.016-.016.015-.016.016-.017.018-.017.016-.016.016-.017.016-.016.017-.017.018-.016.015-.015.015-.017.018-.017.018-.016.016-.016.017-.008.008-.871-.828.008-.009.019-.02.018-.018.019-.02.019-.019.018-.019.019-.02.019-.018.019-.02.019-.018.019-.019.019-.019.019-.018.018-.019.02-.019.019-.018.02-.019.019-.019.02-.017.019-.02.019-.018.02-.018.02-.018.019-.018.02-.018.019-.018.02-.018.02-.018.02-.018.02-.017.02-.017.02-.018.02-.018.02-.018.02-.017.02-.017.02-.017.02-.017.021-.018.02-.017.02-.017.02-.017.022-.016.02-.017.021-.017.012-.01.755.936zm7.62-2.15l.025.011.023.011.025.01.024.011.024.01.025.013.024.01.023.011.024.012.025.01.023.012.024.012.024.01.024.012.023.012.024.012.024.012.023.012.024.011.023.013.023.012.024.012.024.012.023.012.023.013.023.012.023.013.024.012.023.013.023.013.023.013.023.012.022.013.024.014.022.013.023.013.023.013.023.013.022.014.023.014.023.013.022.014.022.014.023.013.016.01-.632 1.023-.013-.009-.02-.012-.02-.012-.019-.012-.02-.011-.019-.012-.019-.01-.019-.012-.02-.011-.02-.012-.018-.011-.02-.011-.02-.012-.018-.01-.02-.01-.02-.012-.02-.012-.02-.01-.019-.01-.02-.01-.02-.011-.02-.01-.02-.012-.02-.01-.02-.01-.02-.01-.02-.01-.02-.01-.02-.01-.02-.01-.02-.01-.02-.01-.02-.01-.02-.01-.022-.01-.02-.01-.021-.009-.02-.009-.02-.01-.02-.009-.02-.009-.021-.01-.021-.008-.021-.01-.02-.009-.02-.007.476-1.104.022.008zm-5.852 1.088l-.015.006-.021.01-.02.007-.021.01-.02.01-.021.008-.021.01-.02.009-.02.009-.022.01-.02.009-.02.01-.02.009-.02.01-.022.01-.02.009-.02.01-.02.01-.02.009-.02.01-.022.01-.02.01-.019.01-.02.011-.021.01-.02.011-.02.01-.019.01-.02.011-.02.011-.021.011-.02.01-.02.01-.02.013-.018.01-.02.011-.02.011-.02.012-.02.01-.02.013-.02.01-.018.011-.02.012-.02.012-.02.011-.02.013-.618-1.032.023-.013.022-.013.023-.014.023-.013.022-.013.023-.014.023-.013.023-.012.023-.014.023-.012.023-.014.023-.012.023-.012.023-.014.023-.012.024-.013.023-.012.023-.012.023-.012.024-.013.023-.012.023-.012.024-.012.023-.012.024-.011.024-.012.023-.012.024-.012.023-.011.024-.012.024-.01.023-.012.024-.012.024-.01.024-.012.024-.01.023-.011.025-.011.024-.01.023-.012.025-.01.024-.01.024-.012.024-.01.025-.01.016-.008.468 1.108zm3.076-1.736l.027.001.027.002.028.002h.027l.028.003.027.002.027.002.028.002.027.002.028.002.027.003.027.002.028.003.027.003.028.002.027.003.028.003.027.004.027.003.028.003.027.003.027.003.028.004.027.004.027.003.028.004.027.004.027.003.027.005.027.004.027.004.027.005.027.004.027.005.027.004.027.005.026.004.028.005.026.005.027.005.027.006.026.004.027.005.027.007.026.005.027.005.027.005.026.007.026.006.027.005.026.006.026.006.027.006.026.006.026.007.026.006.026.007.027.006.026.007.029.007-.306 1.163-.022-.006-.022-.005-.023-.006-.022-.006-.022-.005-.022-.005-.023-.006-.023-.005-.021-.005-.023-.005-.023-.005-.022-.005-.022-.005-.023-.005-.023-.005-.023-.004-.021-.005-.023-.004-.023-.005-.023-.003-.023-.005-.022-.005-.023-.004-.023-.004-.023-.003-.023-.004-.022-.004-.023-.003-.024-.004-.022-.004-.023-.004-.024-.003-.022-.003-.023-.004-.024-.003-.023-.003-.023-.003-.023-.003-.023-.003-.024-.003-.024-.002-.022-.003-.024-.003-.023-.002-.024-.003-.023-.002-.024-.002-.023-.002-.023-.003-.024-.002-.023-.001-.023-.003-.024-.001-.023-.002-.023-.002-.023-.001-.023-.002h-.024l-.023-.002-.024-.001-.02-.002.058-1.2.024.001zm-1.101 1.227l-.014.001-.022.003-.023.003-.023.002-.022.003-.023.002-.022.003-.023.003-.022.003-.023.003-.022.003-.022.003-.023.004-.022.003-.022.003-.022.003-.023.004-.022.004-.023.004-.022.003-.022.004-.022.004-.022.004-.022.003-.022.005-.023.004-.022.004-.022.005-.022.004-.022.005-.022.004-.022.005-.023.005-.021.004-.022.005-.023.005-.022.004-.022.006-.021.005-.022.005-.022.005-.022.006-.022.005-.022.005-.021.006-.014.004-.302-1.164.018-.005.025-.006.026-.007.026-.006.026-.006.025-.006.026-.006.025-.006.026-.006.026-.006.026-.006.026-.006.026-.005.026-.006.026-.005.026-.005.026-.006.025-.005.026-.005.026-.005.026-.004.026-.006.027-.005.026-.004.026-.005.026-.004.026-.005.027-.004.026-.004.026-.004.026-.005.027-.003.026-.004.026-.004.027-.004.026-.003.026-.004.027-.004.026-.003.027-.003.026-.003.027-.003.026-.003.027-.003.026-.002.016-.003.124 1.197z" fill="#FFD210"/><path d="M82.78 59.59c3.363.357 6.398-2.286 6.781-5.902s-2.032-6.835-5.394-7.191c-3.362-.356-6.397 2.286-6.78 5.902s2.032 6.836 5.394 7.192z" fill="#FFEF8C"/><path d="M86.494 49.866l-1.121-.872-4.927 7.23 1.121.872 4.927-7.23z" fill="#FFE269"/><path d="M37.563 62.616c4.695.497 8.935-3.193 9.47-8.243.534-5.05-2.838-9.547-7.534-10.044-4.695-.497-8.934 3.194-9.47 8.243-.534 5.05 2.839 9.547 7.534 10.044z" fill="#F0BE27"/><path d="M36.5 62.187c4.696.498 8.935-3.193 9.47-8.243.535-5.05-2.838-9.547-7.533-10.044-4.695-.497-8.935 3.194-9.47 8.244-.534 5.05 2.838 9.546 7.534 10.043z" fill="#FFE269"/><path fill-rule="evenodd" clip-rule="evenodd" d="M36.837 61.01l.023.002.023.002h.023l.024.002.023.002.023.002H37l.023.001.023.002h.023l.024.002h.023l.023.001h.023l.023.002h.07l.023.001h.184l.022-.001h.023l.023-.001h.023l.023-.002h.023l.023-.002h.023l.022-.001.023-.001.023-.001.022-.002h.023l.024-.002.022-.002.023-.002h.018l.087 1.198-.02.001-.027.002-.026.002-.027.002-.027.002-.027.001-.027.001-.026.002h-.027l-.027.002h-.027l-.027.002-.027.001h-.028l-.026.001h-.027l-.028.001h-.053l-.027.001h-.19l-.027-.001h-.027l-.028-.002h-.027l-.027-.001h-.027l-.028-.002-.027-.001-.027-.001-.028-.002h-.027l-.027-.003-.028-.001-.027-.002-.027-.002-.028-.002-.027-.002-.016-.001.091-1.199.015.002zm3.43.67l-.012.004-.024.01-.025.009-.024.01-.025.009-.025.009-.025.009-.025.009-.024.009-.025.008-.025.01-.025.008-.025.009-.024.009-.025.008-.025.008-.025.008-.025.009-.026.008-.024.008-.026.007-.025.009-.025.008-.025.007-.025.008-.026.007-.025.007-.026.008-.024.008-.026.007-.025.007-.025.007-.026.007-.026.007-.025.007-.026.007-.025.006-.026.007-.025.006-.026.007-.026.006-.025.006-.026.007-.025.005-.026.007-.026.005h-.003l-.264-1.172.021-.005.023-.005.021-.005.023-.005.021-.005.022-.006.022-.006.022-.006.021-.005.022-.005.022-.006.021-.006.023-.006.021-.006.022-.006.02-.006.022-.006.022-.006.022-.007.021-.006.022-.006.021-.007.022-.006.021-.007.021-.007.022-.007.022-.006.022-.007.02-.007.022-.007.021-.008.021-.007.022-.006.021-.008.022-.008.02-.008.021-.006.021-.008.022-.008.02-.008.021-.007.022-.009.02-.008.022-.007.02-.009.01-.004.438 1.12zm-5.42-1.124l.022.008.021.008.021.008.021.008.021.008.022.008.02.008.022.007.022.008.02.008.022.008.022.007.02.007.022.008.02.007.046.015.02.006.044.015.021.006.022.008.021.006.022.006.022.007.021.006.023.007.022.006.022.007.021.006.022.006.022.006.022.006.023.006.021.006.023.006.022.005.021.006.023.006.022.005.023.006.022.006.022.004.032.008-.268 1.172-.013-.004-.026-.006-.027-.006-.026-.006-.026-.006-.026-.007-.027-.007-.026-.006-.026-.007-.026-.007-.026-.007-.026-.006-.026-.007-.026-.008-.025-.007-.026-.008-.026-.007-.026-.007-.025-.008-.026-.008-.026-.007-.026-.008-.025-.008-.026-.008-.025-.008-.026-.008-.025-.009-.025-.008-.026-.009-.025-.008-.025-.009-.026-.008-.025-.009-.025-.009-.025-.008-.025-.01-.025-.009-.025-.01-.025-.008-.025-.01-.025-.009-.024-.01-.026-.008-.024-.01-.025-.01-.01-.004.442-1.118.009.004zm7.508-.054l-.014.01-.022.017-.021.016-.021.016-.021.016-.022.016-.02.015-.022.016-.022.015-.02.016-.023.015-.021.016-.022.015-.021.015-.022.015-.022.015-.022.015-.022.015-.021.016-.023.014-.021.015-.022.014-.022.015-.022.014-.023.015-.021.015-.023.014-.022.014-.022.014-.022.014-.023.015-.022.013-.022.014-.023.014-.023.014-.022.014-.023.013-.022.014-.023.013-.023.013-.022.014-.023.013-.023.013-.023.014-.023.013-.019.01-.591-1.046.016-.01.02-.01.02-.012.02-.011.018-.012.02-.012.02-.01.02-.012.019-.012.019-.012.02-.011.02-.013.018-.011.02-.012.018-.012.02-.012.02-.012.02-.013.018-.012.019-.012.019-.012.018-.013.02-.013.019-.012.018-.012.02-.014.018-.012.02-.013.019-.014.019-.013.016-.011.02-.014.02-.014.018-.012.018-.013.018-.013.019-.014.019-.014.018-.014.019-.013.019-.014.018-.013.018-.014.018-.014.018-.013.012-.01.73.955zm-9.274-.968l.036.03.035.026.036.027.037.028.018.014.036.027.037.026.018.014.017.012.037.026.038.027.017.012.038.026.018.013.019.012.038.025.017.012.04.026.017.011.038.025.02.012.037.023.039.025.018.011.04.024.02.011.016.011.04.023.021.013-.602 1.04-.004-.002-.022-.014-.022-.013-.024-.013-.022-.013-.022-.014-.023-.013-.022-.014-.023-.014-.022-.014-.022-.014-.023-.014-.022-.014-.023-.014-.021-.014-.023-.014-.022-.015-.021-.014-.023-.014-.021-.015-.023-.015-.021-.014-.022-.015-.022-.015-.022-.014-.021-.016-.022-.015-.021-.015-.022-.015-.021-.016-.022-.014-.021-.016-.022-.015-.02-.016-.022-.015-.021-.016-.02-.016-.022-.016-.02-.015-.022-.016-.021-.016-.02-.016-.022-.016-.02-.017-.021-.016-.02-.016-.013-.01.746-.943.01.01zm10.968-.728l-.007.009-.017.022-.016.02-.017.022-.017.022-.016.021-.017.02-.017.022-.017.022-.017.02-.017.021-.017.021-.017.021-.018.02-.017.021-.017.02-.018.022-.017.02-.018.021-.017.02-.018.021-.018.02-.017.02-.018.02-.018.02-.017.021-.019.02-.017.02-.019.02-.018.02-.018.02-.018.02-.019.019-.018.02-.018.02-.018.019-.019.02-.019.019-.018.02-.019.019-.018.019-.019.02-.019.018-.019.02-.018.018-.004.004-.853-.847.004-.004.001-.002.018-.017.014-.015.017-.016.017-.018.016-.017.016-.016.016-.017.016-.017.016-.017.016-.016.015-.017.016-.017.016-.017.016-.017.017-.019.016-.017.015-.018.015-.016.015-.016.016-.018.002-.003.014-.015.014-.017.002-.002.015-.017.014-.017.002-.001.015-.019.015-.015.015-.019.015-.018.015-.017.016-.02.014-.016.014-.018.001-.001.016-.02.014-.016.014-.018.016-.02.015-.019.014-.015.014-.02.016-.02.014-.018.015-.018.015-.02.012-.016.006-.007.956.729zm-12.396-.768l.014.019.027.038.028.037.027.036.013.017.03.04.013.017.013.017.03.038.014.018.014.017.03.037.014.018.014.016.028.035.031.037.015.018.013.015.03.036.032.036.014.017.014.015.03.035.033.036.015.016.014.016.032.035.015.016.014.016.033.034.014.015-.873.826-.015-.015-.018-.02-.019-.019-.017-.02-.018-.018-.018-.02-.018-.02-.018-.02-.018-.02-.017-.018-.018-.02-.017-.02-.018-.02-.018-.02-.017-.02-.017-.02-.018-.02-.017-.02-.017-.02-.017-.02-.017-.021-.017-.02-.017-.021-.017-.02-.017-.02-.017-.022-.016-.02-.017-.02-.016-.021-.018-.021-.016-.02-.016-.022-.016-.021-.016-.02-.017-.022-.016-.021-.016-.021-.016-.022-.017-.021-.015-.02-.016-.023-.016-.021-.016-.022-.015-.021-.016-.022-.007-.01.974-.703.007.01zm13.6-1.306l-.008.019-.011.025-.01.026-.012.025-.011.026-.012.026-.011.025-.011.026-.012.025-.011.026-.012.025-.012.025-.011.026-.012.025-.012.025-.012.025-.012.026-.013.025-.012.024-.011.025-.013.025-.013.025-.012.025-.012.025-.013.024-.013.025-.012.025-.013.024-.013.025-.013.025-.013.024-.013.024-.013.025-.013.024-.013.024-.013.025-.014.024-.013.024-.014.024-.013.024-.014.024-.014.024-.013.023-.009.014-1.04-.602.008-.013.012-.02.011-.02.012-.022.013-.022.012-.022.01-.02.012-.02.013-.022.011-.022.011-.02.011-.02.012-.023.011-.02.012-.023.011-.02.011-.023.011-.022.01-.02.012-.022.01-.021.012-.022.011-.023.01-.022.012-.022.01-.02.01-.023.011-.022.011-.022.01-.023.01-.02.01-.023.01-.022.01-.02.01-.023.011-.025.011-.023.01-.02.008-.021.01-.023.01-.025.01-.021.01-.02v-.005l.008-.018 1.106.472zm-14.59-.528l.029.07.008.02.008.02.018.046.018.045.019.044.008.021.02.044.008.02.02.044.02.045.008.02.03.065.03.066.01.02.02.043.01.02.033.066.01.019.02.043.011.019.022.043.022.042.022.042.008.015-1.06.568-.009-.017-.012-.025-.013-.023-.013-.024-.012-.024-.013-.024-.012-.024-.012-.024-.012-.024-.013-.024-.012-.025-.012-.024-.011-.024-.012-.024-.012-.025-.012-.024-.012-.025-.01-.024-.013-.025-.011-.025-.011-.024-.012-.025-.01-.025-.012-.024-.011-.025-.011-.025-.012-.025-.01-.025-.011-.024-.01-.026-.012-.025-.01-.025-.01-.025-.011-.025-.01-.025-.011-.025-.01-.025-.01-.026-.011-.025-.01-.025-.01-.026-.01-.025-.01-.026-.01-.025-.005-.014 1.123-.43.004.013zm15.243-1.78l-.002.018-.005.029-.005.029-.004.028-.005.03-.005.028-.005.03-.005.028-.006.03-.005.028-.005.028-.006.03-.005.028-.005.028-.006.03-.006.028-.006.028-.005.028-.006.029-.006.028-.006.028-.006.029-.007.028-.006.028-.007.029-.006.028-.007.028-.007.028-.007.028-.007.028-.006.028-.007.028-.007.028-.008.027-.006.029-.008.027-.008.028-.007.028-.008.028-.007.027-.008.028-.006.024-1.158-.323.006-.024.008-.027.006-.023.007-.023.006-.025.007-.025.006-.025.006-.023.007-.025.007-.026.005-.023.007-.025.005-.026.006-.023.005-.023.006-.025.007-.026.006-.026.005-.025.005-.024.006-.023.005-.026.006-.026.004-.023.006-.026.005-.026.005-.024.005-.024.005-.026.005-.026.004-.026.005-.024.004-.024.006-.028.004-.024.004-.024.005-.026.004-.027.004-.024.004-.024.004-.029.003-.017 1.187.188zM30.17 54.18l.003.023.006.049.006.051.003.023.003.023.007.05.004.024.008.05.003.023.008.051.003.024.005.022.008.05.008.048.014.075.004.023.004.022.01.05.005.023.01.049.005.023.01.05.005.021.011.05.005.022.011.049.006.022.005.022-1.169.282-.005-.024-.007-.027-.006-.027-.006-.028-.006-.027-.006-.027-.007-.027-.006-.027-.006-.027-.005-.028-.006-.027-.005-.027-.006-.028-.006-.027-.005-.028-.006-.027-.005-.028-.005-.027-.005-.028-.005-.028-.005-.027-.005-.028-.005-.028-.005-.027-.004-.028-.005-.028-.004-.028-.005-.028-.004-.028-.005-.027-.003-.028-.004-.028-.004-.028-.004-.028-.004-.028-.004-.029-.004-.027-.003-.029-.004-.027-.003-.029-.004-.028-.003-.028-.003-.025 1.194-.136.003.025zm15.82-2.123l.002.028.002.028.002.029.002.028.002.029.002.028.002.029.002.028.001.029.002.029.002.028.001.03.002.028.001.029.001.028.002.03v.027l.001.03.001.029v.028l.002.029v.029l.001.029v.029l.001.029v.289l-.002.03v.028l-.001.03v.028l-.002.03v.02l-1.202-.038v-.02l.002-.027v-.024l.002-.027v-.075l.001-.028v-.254l-.001-.024-.001-.027v-.049l-.002-.025-.001-.026v-.027l-.002-.023-.001-.024-.001-.027-.001-.026-.002-.024-.002-.026v-.026l-.002-.024-.001-.024-.002-.026-.002-.026-.002-.024-.002-.026-.002-.026-.002-.023-.002-.024-.002-.025 1.198-.106.002.028zm-15.802-.006v.012l-.004.025-.003.029-.004.024-.002.026-.004.026-.003.027-.002.025-.006.052-.003.025-.005.055-.002.025-.002.025-.003.024-.004.055-.002.024-.002.026-.004.054-.001.025-.002.024-.003.054-.001.025-.001.024-.002.025-.002.054-.001.024-.002.055v.021l-.002.03v.024l-.002.051v.059l-1.202-.015v-.067l.001-.028.001-.029.001-.03v-.029l.002-.028v-.03l.002-.029v-.03l.002-.029.001-.03.002-.028.001-.03.002-.029.001-.03.002-.029.002-.029.002-.03.002-.029.002-.03.002-.028.002-.03.003-.03.002-.029.003-.03.003-.029.003-.03.002-.029.003-.03.003-.029.003-.03.004-.029.003-.03.003-.029.004-.03.003-.029.004-.03.003-.029.004-.029.002-.016 1.191.158zm15.29-2.366l.01.026.01.026.008.026.009.026.008.026.01.026.008.026.009.026.009.026.008.027.008.026.008.026.009.027.008.026.008.027.008.026.008.026.007.026.008.028.008.026.008.027.007.026.008.027.008.026.007.027.007.027.007.027.007.026.007.028.007.026.007.027.007.027.007.027.006.027.007.027.007.027.006.027.006.027.007.027.006.027.005.027.007.028.008.039-1.174.257-.003-.012-.005-.027-.005-.022-.005-.022-.007-.027-.004-.022-.006-.022-.006-.027-.006-.022-.005-.022-.006-.027-.006-.022-.006-.022-.006-.027-.006-.021-.006-.022v-.004l-.007-.023-.005-.022-.007-.024-.006-.021-.007-.025-.007-.024-.006-.023-.007-.024-.006-.022-.008-.024-.006-.024-.007-.021-.007-.021-.007-.024-.001-.005-.006-.021-.007-.021-.008-.024-.007-.021-.007-.023-.008-.024-.007-.023-.008-.024-.007-.02-.008-.024-.008-.023-.008-.022-.007-.023-.008-.023v.002l1.133-.402zm-14.764.327v.001l-.01.023-.008.022-.009.024-.01.023-.007.021-.01.024-.008.024-.009.023-.008.024-.008.023-.008.021-.009.024v.004l-.01.022-.006.022-.009.024-.008.022-.008.024-.007.024-.008.024-.008.023-.007.022-.001.004-.008.022-.007.023-.008.024-.007.025-.008.024-.007.022-.007.025-.008.025-.007.023-.007.024-.007.025-.006.023-.008.025-.007.025-.006.022-.007.025-.007.025-.006.023-.007.025-.006.025-.006.023v.004l-1.166-.298.002-.006.007-.027.007-.028.008-.028.007-.028.008-.027.007-.028.008-.028.008-.027.008-.028.008-.028.007-.027.009-.027.008-.028.008-.027.008-.027.009-.027.008-.028.008-.027.01-.027.008-.027.009-.027.009-.028.009-.026.009-.027.009-.027.009-.027.009-.027.009-.026.01-.028.008-.026.01-.027.01-.026.01-.027.01-.027.01-.026.009-.026.01-.027.01-.026.01-.027.01-.026.01-.026.01-.027 1.119.44zm13.697-2.448l.014.023.016.022.014.022.015.023.014.022.015.022.015.022.015.023.014.023.014.022.015.023.014.022.014.023.014.023.014.022.015.023.014.023.013.023.014.023.014.023.014.023.013.023.014.024.014.023.013.023.013.024.014.023.013.024.014.023.013.023.012.024.013.024.013.023.013.024.013.024.013.024.013.023.012.024.013.024.013.024.012.024.012.024.013.024.01.02-1.073.543-.01-.02-.01-.018-.01-.021-.012-.023-.01-.02-.01-.02-.002-.002-.011-.02-.01-.019-.013-.023-.01-.02-.01-.02-.013-.02-.01-.021-.011-.019-.012-.021-.012-.022-.012-.021-.01-.019-.013-.02-.011-.021-.012-.02-.012-.02-.012-.021-.012-.02-.011-.018-.012-.02-.012-.02-.013-.021-.012-.02-.012-.02-.013-.02-.012-.02-.013-.02-.01-.018-.013-.02-.014-.02-.012-.019-.014-.021-.012-.018-.012-.019-.001-.001-.012-.019-.012-.018-.015-.021-.013-.019-.01-.017.992-.676.014.018zm-12.692.614v-.002l-.012.018-.014.02-.015.021-.014.02-.012.017-.014.02-.014.02-.013.019-.014.019-.013.02-.014.02-.013.02-.014.02-.012.019-.014.02-.013.02-.014.02-.012.019-.013.02-.013.022-.013.02-.012.018-.013.02-.013.02-.012.022-.013.02-.013.02-.012.021-.013.021-.013.02-.01.02-.014.02-.012.021-.012.021-.012.021-.013.021-.012.021-.011.022-.013.02-.011.02-.011.021-.014.023-.01.02-.009.016-1.055-.576.011-.02.013-.024.014-.024.013-.025.014-.024.014-.023.013-.025.014-.024.013-.023.014-.024.014-.024.014-.023.015-.024.014-.024.014-.023.014-.023.014-.024.014-.024.015-.023.015-.023.014-.023.015-.023.014-.023.015-.024.015-.023.015-.022.015-.024.015-.022.015-.023.015-.023.015-.023.015-.022.016-.023.015-.022.016-.023.015-.023.016-.022.015-.023.016-.021.016-.022.015-.023.017-.022.015-.022.016-.022h.001l.97.71zm11.085-2.402l.02.017.02.017.02.017.02.018.02.017.02.017.02.018.02.017.019.018.02.017.02.018.02.017.019.018.019.018.02.018.019.018.019.018.02.018.018.018.02.018.019.018.019.019.019.018.018.019.02.018.018.019.019.019.019.018.018.019.019.018.018.02.018.018.02.02.017.018.019.02.018.018.018.02.019.02.018.018.018.02.018.019.017.02.018.019.018.02.017.018-.892.806-.016-.017-.016-.018-.015-.017-.014-.015-.016-.017-.017-.018-.015-.017-.014-.014-.016-.017-.017-.019-.016-.015-.016-.017-.016-.016-.015-.016-.016-.017-.016-.015-.016-.016-.016-.017-.016-.016-.017-.015-.016-.016-.016-.016-.017-.017-.016-.015-.016-.015-.016-.015-.018-.017-.016-.016-.016-.015-.017-.016-.017-.015-.016-.015-.017-.015-.017-.016-.017-.015-.016-.015-.017-.014-.018-.017-.017-.014-.017-.015-.017-.014-.017-.015-.017-.014-.017-.016-.017-.014-.01-.008.772-.922.012.01zm-9.65.889l-.01.008-.019.015-.017.014-.017.014h-.001l-.019.016-.016.013-.017.015-.02.016-.016.014-.017.015-.019.016-.017.015-.017.015-.017.015-.017.015-.017.015-.017.015-.019.017-.017.015-.017.015-.017.016-.016.015-.017.016-.018.016-.017.016-.017.015-.017.017-.016.016-.017.015-.018.017-.016.016-.016.015-.016.016-.017.018-.017.016-.016.016-.017.016-.016.017-.017.018-.016.015-.015.015-.017.018-.017.018-.015.016-.017.017-.008.008-.871-.828.008-.009.019-.02.018-.018.019-.02.019-.019.018-.019.019-.02.019-.018.019-.02.019-.018.019-.019.019-.019.018-.018.02-.019.02-.019.018-.018.02-.019.019-.019.02-.017.019-.02.019-.018.02-.018.02-.018.019-.018.02-.018.019-.018.02-.018.02-.018.02-.018.02-.017.02-.017.02-.018.02-.018.02-.018.02-.017.02-.017.02-.017.02-.017.021-.018.02-.017.02-.017.02-.017.022-.016.02-.017.021-.017.012-.01.755.936zm7.62-2.15l.025.011.023.011.025.01.024.011.024.01.024.013.025.01.023.011.024.012.025.01.023.012.024.012.024.01.024.012.023.012.024.012.024.012.023.012.024.011.023.013.023.012.025.012.023.012.023.012.024.013.022.012.023.013.024.012.023.013.023.013.023.013.023.012.023.013.023.014.022.013.023.013.023.013.023.013.023.014.022.014.023.013.022.014.022.014.023.013.016.01-.632 1.023-.013-.009-.02-.012-.02-.012-.019-.012-.02-.011-.019-.012-.019-.01-.019-.012-.02-.011-.02-.012-.018-.011-.02-.011-.02-.012-.018-.01-.02-.01-.02-.012-.02-.012-.02-.01-.019-.01-.02-.01-.02-.011-.02-.01-.02-.012-.02-.01-.02-.01-.02-.01-.02-.01-.02-.01-.02-.01-.02-.01-.02-.01-.02-.01-.02-.01-.02-.01-.022-.01-.02-.01-.021-.009-.02-.009-.02-.01-.02-.009-.02-.009-.021-.01-.021-.008-.021-.01-.02-.009-.02-.007.476-1.104.022.008zm-5.852 1.088l-.015.006-.021.01-.02.007-.021.01-.02.01-.021.008-.021.01-.02.009-.02.009-.022.01-.02.009-.02.01-.02.009-.02.01-.022.01-.02.009-.02.01-.02.01-.02.009-.02.01-.022.01-.02.01-.019.01-.02.011-.021.01-.02.011-.02.01-.019.01-.02.011-.02.011-.021.011-.02.01-.02.01-.02.013-.019.01-.02.011-.02.011-.02.012-.018.01-.02.013-.02.01-.02.011-.02.012-.019.012-.02.011-.02.013-.617-1.032.022-.013.022-.013.023-.014.023-.013.022-.013.023-.014.023-.013.023-.012.023-.014.023-.012.023-.014.023-.012.023-.012.023-.014.023-.012.024-.013.023-.012.023-.012.023-.012.024-.013.023-.012.023-.012.024-.012.023-.012.024-.011.023-.012.024-.012.024-.012.023-.011.024-.012.024-.01.024-.012.023-.012.024-.01.024-.012.024-.01.024-.011.024-.011.024-.01.023-.012.025-.01.024-.01.024-.012.024-.01.025-.01.016-.008.468 1.108zm3.076-1.736l.027.001.027.002.028.002h.027l.028.003.027.002.027.002.028.002.027.002.028.002.027.003.027.002.028.003.027.003.028.002.027.003.028.003.027.004.027.003.028.003.027.003.027.003.028.004.027.004.027.003.028.004.027.004.027.003.027.005.027.004.027.004.027.005.027.004.027.005.027.004.027.005.027.004.027.005.026.005.027.005.027.006.026.004.027.005.027.007.026.005.027.005.027.005.026.007.026.006.026.005.027.006.026.006.027.006.026.006.026.007.026.006.026.007.027.006.026.007.029.007-.306 1.163-.022-.006-.022-.005-.023-.006-.022-.006-.022-.005-.022-.005-.023-.006-.023-.005-.022-.005-.022-.005-.023-.005-.022-.005-.022-.005-.023-.005-.023-.005-.023-.004-.021-.005-.023-.004-.023-.005-.023-.003-.023-.005-.022-.005-.023-.004-.023-.004-.023-.003-.023-.004-.023-.004-.022-.003-.024-.004-.022-.004-.023-.004-.024-.003-.022-.003-.023-.004-.024-.003-.023-.003-.023-.003-.023-.003-.023-.003-.024-.003-.023-.002-.023-.003-.024-.003-.023-.002-.024-.003-.023-.002-.024-.002-.023-.002-.023-.003-.024-.002-.023-.001-.023-.003-.024-.001-.023-.002-.023-.002-.023-.001-.023-.002h-.024l-.023-.002-.024-.001-.02-.002.058-1.2.024.001zm-1.101 1.227l-.014.001-.023.003-.022.003-.023.002-.022.003-.023.002-.022.003-.023.003-.022.003-.023.003-.022.003-.022.003-.023.004-.022.003-.023.003-.021.003-.023.004-.022.004-.023.004-.022.003-.023.004-.021.004-.022.004-.022.003-.022.005-.023.004-.022.004-.022.005-.022.004-.022.005-.022.004-.022.005-.023.005-.021.004-.023.005-.022.005-.022.004-.022.006-.021.005-.022.005-.021.005-.023.006-.023.005-.02.005-.022.006-.014.004-.301-1.164.017-.005.025-.006.026-.007.026-.006.026-.006.025-.006.026-.006.025-.006.026-.006.026-.006.026-.006.026-.006.026-.005.026-.006.026-.005.026-.005.026-.006.025-.005.026-.005.026-.005.026-.004.026-.006.027-.005.026-.004.026-.005.026-.004.026-.005.027-.004.026-.004.026-.004.026-.005.027-.003.026-.004.026-.004.027-.004.026-.003.026-.004.027-.004.026-.003.027-.003.026-.003.027-.003.026-.003.027-.003.026-.002.017-.003.123 1.197z" fill="#FFD210"/><path d="M36.78 59.59c3.363.357 6.398-2.286 6.781-5.902s-2.032-6.835-5.394-7.191c-3.362-.356-6.397 2.286-6.78 5.902s2.032 6.836 5.394 7.192z" fill="#FFEF8C"/><path d="M40.494 49.866l-1.121-.872-4.927 7.23 1.121.872 4.927-7.23z" fill="#FFE269"/></svg>