<svg width="156" height="66" fill="none" xmlns="http://www.w3.org/2000/svg"><path d="M93 0H17C7.611 0 0 7.611 0 17s7.611 17 17 17h76c9.389 0 17-7.611 17-17S102.389 0 93 0z" fill="#fff"/><path d="M21.77 15.111l-4.732-4.722-4.733 4.722M17.037 11.333v12.278" stroke="#6A80F5" stroke-width="2.714" stroke-linecap="round" stroke-linejoin="round"/><path d="M88.232 18.889l4.732 4.722 4.733-4.722M92.965 22.667V10.389" stroke="#A5A7BD" stroke-width="2.714" stroke-linecap="round" stroke-linejoin="round"/><path d="M49.627 22.743h-1.965V17.36l.019-.884.032-.967c-.327.326-.554.54-.681.642l-1.069.859-.948-1.183 2.997-2.386h1.615v9.3zm9.085 0H52.21v-1.368l2.335-2.36c.691-.708 1.143-1.198 1.355-1.47.212-.275.365-.53.458-.763.093-.233.14-.475.14-.725 0-.373-.104-.651-.312-.834-.203-.182-.477-.273-.82-.273-.36 0-.71.083-1.05.248-.34.165-.694.4-1.062.706l-1.07-1.266c.459-.39.838-.666 1.14-.827.3-.161.63-.284.986-.369a4.94 4.94 0 011.196-.133c.58 0 1.094.106 1.54.318.444.212.79.508 1.036.89s.369.819.369 1.31c0 .43-.076.832-.229 1.21a4.527 4.527 0 01-.7 1.15c-.314.395-.87.957-1.666 1.687L54.658 21v.089h4.053v1.654zm4.326-5.942c.899 0 1.613.252 2.144.757.534.505.801 1.196.801 2.074 0 1.039-.32 1.838-.96 2.398-.64.56-1.557.84-2.749.84-1.035 0-1.87-.168-2.506-.503V20.67c.335.178.725.324 1.17.439.446.11.868.165 1.266.165 1.2 0 1.8-.492 1.8-1.476 0-.937-.62-1.405-1.863-1.405a4.43 4.43 0 00-.745.07c-.271.042-.492.088-.661.14l-.783-.42.35-4.74h5.045v1.667h-3.32l-.172 1.826.222-.045c.259-.06.579-.089.96-.089z" fill="#6A80F5"/><path d="M133.701 23H38.385C26.575 23 17 32.574 17 44.385c0 11.81 9.574 21.385 21.385 21.385h95.316c11.811 0 21.385-9.574 21.385-21.385 0-11.81-9.574-21.385-21.385-21.385z" fill="#fff"/><path d="M44.328 42.009l-5.94-5.94-5.94 5.94M38.387 37.257V52.7" stroke="#6A80F5" stroke-width="2.714" stroke-linecap="round" stroke-linejoin="round"/><path d="M127.76 46.761l5.94 5.94 5.94-5.94M133.701 51.513V36.07" stroke="#A5A7BD" stroke-width="2.714" stroke-linecap="round" stroke-linejoin="round"/><path d="M81.097 40.778c0 .58-.175 1.075-.527 1.482-.352.407-.847.687-1.483.84v.038c.75.093 1.32.322 1.705.687.386.36.58.848.58 1.463 0 .895-.325 1.593-.974 2.093-.65.496-1.576.744-2.78.744-1.01 0-1.904-.167-2.685-.502V45.95c.36.182.757.33 1.19.445.432.114.86.172 1.285.172.649 0 1.128-.11 1.438-.331.31-.22.464-.575.464-1.063 0-.436-.178-.746-.534-.928-.357-.183-.925-.274-1.705-.274h-.706v-1.508h.718c.721 0 1.247-.093 1.578-.28.335-.19.503-.515.503-.973 0-.704-.442-1.056-1.324-1.056-.305 0-.617.051-.935.153a4.58 4.58 0 00-1.05.528l-.91-1.355c.85-.61 1.86-.916 3.035-.916.963 0 1.722.195 2.278.585.56.39.84.933.84 1.629zm2.227 7.22l3.493-7.634H82.23V38.71h6.673v1.234l-3.518 8.054h-2.06zm11.381 0h-1.966v-5.382l.019-.884.032-.967c-.326.327-.553.54-.681.642l-1.068.86-.948-1.184 2.996-2.386h1.616v9.301z" fill="#6A80F5"/><path d="M132.572 63.145c9.609 1.017 18.285-6.536 19.379-16.87 1.095-10.335-5.808-19.538-15.416-20.555-9.609-1.017-18.285 6.535-19.38 16.87-1.094 10.334 5.808 19.537 15.417 20.555z" fill="#F0BE27"/><path d="M130.398 62.267c9.609 1.017 18.285-6.536 19.38-16.87 1.094-10.335-5.808-19.537-15.417-20.555-9.609-1.017-18.285 6.536-19.379 16.87-1.095 10.335 5.807 19.538 15.416 20.555z" fill="#FFE269"/><path fill-rule="evenodd" clip-rule="evenodd" d="M131.086 59.859l.047.003.049.004.047.001.048.004.047.003.047.003.049.002.047.002.047.003.049.002.047.001.047.002.047.001.047.002.049.002h.047l.047.001h.047l.047.002H132.365l.046-.003h.047l.048-.002.046-.002.047-.001.047-.002.048-.002.046-.002.046-.002.047-.002.046-.001.046-.004.048-.002.047-.003.046-.004.046-.003.037-.002.178 2.453-.04.002-.055.005-.054.004-.056.003-.054.004-.055.003-.056.002-.053.003-.056.003-.055.002-.055.001-.056.003-.055.002-.056.001-.053.002h-.056l-.056.001-.056.001-.055.001-.055.001h-.11l-.056.001h-.056l-.055-.002h-.055l-.057-.001-.055-.001h-.055l-.057-.003-.055-.001-.056-.003h-.055l-.057-.003-.054-.002-.057-.003-.056-.003-.055-.002-.057-.004-.056-.003-.056-.004-.055-.004-.056-.003-.057-.004-.032-.003.187-2.453.029.003zm7.021 1.369l-.024.009-.051.02-.051.018-.049.02-.051.019-.051.018-.051.018-.051.019-.05.018-.051.019-.051.018-.051.018-.05.017-.051.018-.051.017-.05.017-.053.016-.05.018-.052.017-.051.017-.052.014-.051.017-.052.017-.05.015-.052.016-.052.015-.052.015-.053.016-.05.015-.052.015-.052.015-.052.013-.053.015-.052.015-.052.013-.052.015-.052.013-.053.013-.052.013-.052.013-.053.013-.052.013-.054.013-.051.012-.054.013-.053.011-.005.001-.541-2.4.043-.01.047-.01.044-.01.047-.011.043-.01.044-.011.045-.012.046-.012.044-.011.043-.01.046-.013.043-.012.046-.012.044-.013.045-.012.042-.012.044-.013.044-.012.046-.014.043-.012.044-.014.045-.014.043-.012.044-.014.043-.014.045-.014.044-.014.046-.014.041-.014.044-.014.044-.016.043-.014.044-.014.044-.016.044-.015.043-.016.042-.014.043-.016.044-.016.041-.016.044-.015.045-.018.042-.016.043-.015.043-.018.019-.008.895 2.293zm-11.091-2.3l.044.017.042.016.044.016.043.017.042.016.046.017.042.016.042.015.046.017.043.014.042.017.046.014.042.015.044.017.043.014.091.03.041.013.092.03.042.013.044.015.045.013.044.013.044.014.045.013.045.013.046.013.045.014.044.013.044.011.045.013.046.012.046.013.044.012.046.012.046.011.043.011.046.012.046.012.046.011.045.012.046.01.066.015-.55 2.398-.026-.007-.054-.012-.054-.012-.054-.013-.054-.012-.053-.015-.054-.014-.054-.012-.052-.014-.053-.014-.054-.015-.054-.014-.052-.014-.053-.016-.052-.014-.054-.015-.053-.016-.052-.014-.052-.016-.054-.016-.052-.015-.053-.016-.052-.017-.052-.016-.051-.017-.054-.016-.052-.018-.051-.017-.052-.017-.052-.018-.052-.017-.051-.017-.052-.018-.052-.019-.051-.017-.05-.019-.052-.019-.052-.019-.051-.019-.05-.019-.052-.019-.05-.019-.051-.019-.05-.02-.052-.02-.021-.008.906-2.287.018.007zm15.363-.11l-.029.022-.043.033-.045.032-.043.033-.042.033-.045.033-.043.03-.044.033-.044.031-.043.033-.044.03-.045.033-.044.031-.044.031-.044.03-.045.032-.045.03-.045.032-.044.03-.046.03-.044.03-.045.03-.045.03-.045.03-.046.03-.044.03-.046.028-.045.03-.046.029-.046.029-.045.029-.046.027-.045.03-.047.028-.046.027-.046.03-.047.027-.045.027-.047.027-.047.028-.046.029-.046.025-.047.027-.047.027-.047.028-.039.021-1.21-2.141.033-.019.041-.023.04-.024.04-.023.039-.023.042-.024.039-.023.04-.023.04-.025.039-.025.04-.022.041-.026.039-.024.038-.024.039-.023.039-.025.041-.026.042-.026.037-.025.039-.025.039-.024.037-.025.041-.028.039-.025.037-.025.041-.028.037-.025.039-.026.039-.028.039-.026.034-.024.041-.028.039-.028.039-.026.036-.027.038-.026.037-.029.039-.028.002-.001.036-.027.038-.026.039-.03.037-.027.037-.028.037-.028.036-.027.026-.02 1.495 1.954zm-18.98-1.981l.076.06.071.055.073.056.076.057.036.027.073.056.077.053.036.028.035.026.076.053.078.054.035.025.077.053.038.027.038.024.078.052.035.024.082.053.035.024.078.05.038.025.077.047.08.051.039.023.079.049.041.023.035.022.082.048.043.025-1.234 2.128-.006-.002-.046-.029-.046-.027-.047-.027-.046-.027-.046-.029-.046-.026-.046-.029-.046-.029-.046-.028-.046-.029-.045-.028-.046-.029-.046-.028-.044-.029-.046-.03-.046-.029-.044-.03-.046-.028-.044-.03-.045-.03-.044-.03-.045-.03-.045-.031-.044-.03-.044-.032-.044-.03-.044-.03-.044-.032-.044-.032-.044-.03-.044-.031-.044-.032-.042-.032-.044-.032-.044-.031-.042-.034-.044-.031-.043-.032-.043-.033-.043-.032-.042-.033-.044-.034-.042-.033-.042-.033-.042-.034-.025-.02 1.526-1.929.022.018zm22.446-1.49l-.014.018-.033.044-.035.044-.034.044-.033.044-.035.044-.034.042-.035.043-.034.044-.035.042-.036.044-.034.042-.035.044-.036.042-.036.042-.034.042-.036.044-.036.041-.036.042-.036.042-.036.042-.036.04-.036.043-.036.041-.037.04-.036.042-.038.042-.035.04-.038.04-.037.042-.038.04-.037.04-.037.04-.038.043-.037.04-.037.038-.038.04-.039.04-.037.04-.039.04-.037.039-.039.04-.039.038-.038.04-.038.038-.008.008-1.745-1.734.007-.008.003-.003.036-.035.03-.03.033-.034.036-.037.033-.034.032-.034.034-.034.032-.035.033-.034.032-.034.032-.034.032-.035.032-.036.032-.034.036-.038.032-.036.032-.036.031-.034.03-.032.032-.037.004-.005.03-.032.029-.035.003-.002.031-.036.029-.035.003-.002.032-.038.029-.032.031-.038.031-.037.03-.036.034-.039.029-.034.029-.036.002-.003.032-.039.028-.034.03-.036.033-.04.029-.04.029-.032.029-.04.033-.04.029-.038.029-.037.031-.04.026-.034.011-.014 1.956 1.492zm-25.367-1.572l.029.04.055.076.056.076.057.075.026.035.061.08.028.036.026.034.062.079.028.035.028.035.061.076.029.037.028.034.059.072.063.074.031.038.026.031.062.073.065.073.029.035.028.032.062.07.066.074.031.034.029.031.066.072.031.034.028.032.068.07.029.031-1.786 1.69-.032-.032-.036-.04-.039-.039-.037-.04-.036-.039-.037-.04-.035-.04-.037-.04-.037-.04-.036-.04-.035-.041-.037-.04-.035-.04-.037-.042-.035-.041-.035-.041-.037-.041-.035-.041-.035-.041-.035-.041-.035-.043-.035-.04-.035-.044-.033-.04-.035-.043-.035-.043-.033-.04-.035-.043-.033-.043-.035-.042-.034-.043-.033-.044-.033-.042-.033-.043-.034-.043-.033-.044-.033-.042-.033-.044-.033-.045-.032-.042-.033-.044-.032-.044-.033-.044-.032-.044-.031-.044-.015-.02 1.994-1.44.014.018zm27.832-2.672l-.017.037-.022.052-.022.054-.023.052-.023.053-.024.052-.023.052-.023.053-.024.052-.023.051-.024.052-.023.052-.025.052-.024.051-.024.052-.025.052-.024.051-.026.052-.024.05-.025.051-.026.052-.025.05-.025.051-.026.052-.025.05-.026.05-.026.05-.026.05-.027.05-.026.052-.027.05-.026.05-.027.049-.028.05-.026.05-.027.049-.027.05-.028.05-.028.049-.028.048-.027.05-.029.049-.027.048-.017.028-2.129-1.232.015-.027.026-.043.023-.04.023-.043.027-.046.025-.045.022-.04.023-.044.025-.043.024-.044.024-.044.021-.04.024-.045.023-.043.024-.045.023-.043.023-.045.023-.045.02-.042.024-.045.022-.044.024-.045.022-.046.022-.046.022-.045.02-.04.023-.047.022-.045.022-.045.02-.047.021-.042.02-.045.022-.047.019-.042.021-.045.022-.052.023-.047.018-.042.019-.042.019-.047.023-.05.019-.044.018-.042.003-.008.016-.038 2.263.967zm-29.856-1.082l.057.143.016.043.016.04.037.094.038.092.038.09.017.043.039.09.018.042.039.09.041.091.018.04.061.135.063.135.02.04.042.089.02.039.066.136.019.039.044.088.021.04.045.087.046.086.044.086.017.03-2.169 1.162-.019-.034-.024-.05-.027-.048-.026-.049-.025-.048-.026-.05-.025-.049-.025-.05-.024-.048-.027-.05-.024-.05-.025-.049-.023-.05-.025-.05-.024-.05-.023-.05-.025-.05-.023-.05-.025-.05-.023-.051-.023-.05-.023-.05-.023-.052-.023-.05-.023-.051-.023-.05-.023-.052-.021-.051-.023-.05-.021-.052-.023-.051-.022-.051-.021-.052-.021-.051-.022-.052-.021-.051-.021-.052-.022-.053-.021-.051-.02-.051-.021-.053-.02-.051-.019-.053-.022-.052-.009-.028 2.297-.879.009.025zm31.193-3.64l-.006.035-.009.059-.01.06-.009.058-.009.06-.011.058-.01.06-.011.058-.011.06-.011.058-.011.058-.011.06-.01.058-.011.058-.013.06-.011.058-.012.058-.011.058-.013.058-.012.058-.012.058-.013.058-.014.058-.012.058-.014.058-.013.058-.014.058-.014.056-.014.058-.014.058-.014.057-.013.057-.014.058-.016.055-.014.058-.015.056-.016.058-.015.056-.016.058-.015.056-.016.057-.013.048-2.37-.661.013-.048.017-.056.012-.046.013-.048.014-.05.013-.052.013-.05.013-.049.013-.05.014-.054.011-.046.014-.053.011-.051.012-.048.011-.048.012-.051.013-.053.012-.053.012-.051.01-.048.011-.048.01-.053.012-.053.01-.049.012-.053.01-.053.01-.048.01-.05.011-.053.01-.053.009-.053.01-.048.008-.05.011-.058.008-.049.009-.05.01-.053.009-.055.008-.048.007-.05.009-.058.006-.035 2.43.384zm-32.204-.504l.006.048.011.1.014.105.006.046.006.048.015.104.007.048.016.103.006.047.017.103.006.048.01.047.017.102.017.098.027.154.01.047.008.044.02.103.009.046.021.1.01.048.022.1.009.045.023.101.011.047.022.099.011.045.011.045-2.391.577-.012-.048-.013-.056-.013-.056-.013-.055-.012-.056-.013-.055-.013-.056-.011-.055-.013-.056-.012-.057-.011-.055-.012-.056-.011-.057-.011-.055-.012-.058-.011-.055-.01-.057-.011-.055-.01-.057-.011-.057-.01-.056-.01-.057-.01-.057-.009-.057-.01-.056-.01-.058-.008-.056-.01-.057-.008-.057-.01-.057-.008-.057-.008-.056-.008-.059-.008-.057-.008-.056-.008-.059-.008-.057-.007-.058-.008-.057-.007-.058-.006-.057-.007-.058-.007-.052 2.445-.278.006.051zm32.374-4.345l.004.058.005.058.004.058.004.058.005.059.004.058.004.06.004.057.003.058.003.06.003.058.004.06.003.058.003.06.002.057.003.06.002.057.001.06.002.06.002.057.001.06.002.06.001.059v.059l.002.06v.057l.002.06v.238l-.002.06v.059l-.001.06v.058l-.002.061-.002.06-.001.059-.002.059-.001.06-.002.041-2.459-.077.001-.04.003-.056.001-.05.002-.055.001-.05v-.05l.001-.054.002-.056-.001-.054.001-.05v-.05l.001-.05-.001-.053V43.084l-.002-.054-.001-.055.001-.05-.001-.05-.002-.054-.001-.053-.001-.049-.003-.05-.002-.054v-.054l-.003-.048-.003-.05-.002-.054-.002-.053-.003-.049-.004-.053-.002-.054-.003-.048-.002-.05-.004-.052-.004-.053-.004-.05-.004-.053-.004-.053-.004-.048-.004-.05-.004-.05 2.45-.217.006.056zm-32.337-.01l-.002.023-.007.051-.007.059-.006.05-.006.052-.007.055-.006.056-.006.05-.011.107-.005.05-.011.113-.005.05-.004.052-.005.05-.009.111-.004.05-.003.053-.009.11-.002.051-.004.05-.007.11-.002.05-.002.052-.002.05-.006.111-.002.05-.004.11-.001.045-.002.06-.001.05-.003.104v.122l-2.461-.03v-.015l.001-.06.001-.06.001-.06.002-.059.001-.06.002-.06.001-.059.002-.06.003-.06.002-.06.003-.06.002-.06.003-.06.003-.06.003-.059.003-.06.004-.061.004-.059.004-.06.005-.061.004-.06.003-.06.005-.06.005-.06.005-.061.006-.06.005-.06.007-.061.004-.06.007-.06.006-.061.007-.06.006-.06.006-.061.007-.06.008-.06.006-.061.008-.06.006-.06.008-.06.005-.034 2.438.324zm31.292-4.844l.02.055.018.053.018.052.018.053.018.055.018.052.018.053.018.054.018.053.016.054.018.055.016.052.017.055.018.054.016.054.016.055.017.052.014.054.017.056.016.055.015.054.016.054.015.054.016.054.015.056.014.054.015.056.015.054.014.056.013.054.015.056.015.054.013.055.013.056.014.056.014.053.013.056.013.056.013.055.013.056.011.055.013.058.017.078-2.404.526-.005-.024-.011-.055-.01-.045-.011-.046-.013-.055-.009-.045-.011-.045-.013-.054-.011-.046-.011-.045-.013-.055-.011-.046-.013-.043-.013-.056-.011-.043-.013-.046-.002-.009-.012-.045-.011-.045-.014-.05-.013-.043-.013-.05-.014-.05-.014-.048-.013-.05-.013-.043-.015-.049-.014-.049-.013-.044-.014-.043-.015-.05-.003-.008-.012-.044-.015-.044-.015-.047-.014-.044-.016-.047-.015-.05-.016-.047-.015-.047-.014-.044-.017-.048-.016-.047-.016-.044-.015-.047-.017-.048.001.005 2.318-.824zm-30.217.67v.003l-.019.047-.017.044-.018.049-.019.047-.016.044-.019.049-.018.049-.018.047-.017.05-.016.045-.016.044-.018.049-.002.008-.018.046-.014.044-.018.049-.016.046-.016.049-.016.049-.016.05-.016.045-.014.046-.003.008-.016.046-.014.046-.016.049-.015.05-.016.05-.015.046-.015.05-.014.052-.015.046-.015.05-.014.052-.013.046-.015.05-.015.052-.013.046-.013.05-.015.052-.013.046-.013.053-.013.05-.013.047-.001.008-2.384-.61.003-.011.015-.056.014-.058.016-.056.015-.058.016-.056.015-.057.016-.056.017-.056.015-.058.017-.056.015-.056.017-.056.017-.055.017-.056.017-.056.017-.056.017-.056.017-.055.019-.056.016-.056.019-.056.018-.055.019-.054.018-.056.019-.055.018-.054.019-.056.018-.054.02-.056.018-.054.02-.055.02-.054.02-.054.02-.055.02-.054.02-.054.02-.054.021-.053.02-.056.022-.053.02-.054.021-.054v-.002l2.288.904zm28.031-5.009l.03.046.032.045.029.046.03.045.03.046.03.045.031.046.03.046.028.047.03.045.03.047.03.046.028.047.029.047.029.046.029.047.028.047.028.047.029.047.028.047.028.047.028.047.028.049.028.047.028.047.026.048.029.047.026.049.028.048.026.047.027.049.026.048.027.049.026.049.026.048.027.049.026.048.025.049.026.05.026.048.025.049.025.05.026.048.021.043-2.196 1.11-.019-.04-.021-.039-.023-.043-.023-.047-.021-.04-.021-.04-.002-.006-.023-.04-.02-.039-.026-.046-.022-.044-.021-.037-.024-.044-.023-.043-.022-.038-.024-.043-.025-.045-.024-.043-.021-.038-.026-.041-.024-.044-.023-.041-.024-.042-.026-.041-.024-.042-.023-.036-.024-.042-.025-.041-.026-.042-.024-.04-.026-.042-.025-.041-.026-.04-.025-.04-.023-.038-.026-.04-.027-.04-.026-.04-.028-.044-.025-.037-.024-.038-.003-.004-.024-.038-.025-.036-.03-.044-.026-.038-.023-.035 2.033-1.385.027.04zm-25.972 1.256v-.003l-.026.036-.028.04-.031.043-.028.04-.026.036-.028.04-.028.04-.028.04-.027.04-.028.04-.028.04-.027.041-.028.041-.026.04-.028.041-.026.041-.028.041-.025.038-.026.042-.029.044-.026.041-.024.038-.027.042-.026.041-.025.043-.027.041-.026.043-.025.042-.027.043-.025.041-.023.04-.026.041-.025.043-.025.043-.025.044-.025.043-.026.043-.023.043-.025.043-.023.04-.024.043-.027.047-.021.04-.018.033-2.16-1.179.023-.04.028-.05.027-.05.027-.049.028-.05.028-.047.028-.05.029-.05.027-.047.029-.05.028-.048.029-.047.029-.05.029-.048.028-.047.03-.048.029-.05.029-.047.03-.048.031-.048.028-.046.03-.047.031-.048.03-.048.03-.047.03-.046.032-.048.03-.046.03-.047.032-.046.03-.048.032-.046.031-.045.032-.046.032-.046.032-.047.031-.046.032-.046.031-.044.033-.046.032-.046.033-.045.032-.046.033-.044.002-.002 1.986 1.453zm22.684-4.915l.042.035.04.034.041.035.042.037.04.034.04.035.041.037.04.035.04.036.041.035.04.036.04.037.041.036.038.036.041.037.04.036.038.038.041.037.038.036.039.038.04.037.039.037.038.038.039.038.038.038.039.038.038.038.039.038.037.038.038.038.038.04.037.037.039.04.037.038.038.04.037.04.037.039.038.04.037.039.037.04.036.039.037.04.037.039.037.04.033.038-1.824 1.65-.032-.035-.034-.037-.031-.034-.029-.032-.032-.034-.034-.037-.033-.034-.028-.03-.033-.034-.035-.038-.031-.032-.033-.034-.033-.034-.031-.032-.033-.034-.032-.032-.033-.033-.033-.034-.033-.032-.034-.032-.033-.033-.033-.032-.035-.034-.033-.032-.032-.03-.033-.031-.037-.035-.033-.032-.033-.03-.034-.033-.035-.031-.033-.03-.034-.032-.035-.032-.034-.03-.033-.031-.035-.03-.037-.034-.035-.029-.035-.03-.034-.03-.035-.03-.035-.03-.034-.03-.036-.03-.021-.017 1.58-1.887.025.021zm-19.749 1.818l-.021.016-.038.032-.036.028-.034.029-.002.001-.038.032-.033.027-.036.03-.038.033-.035.029-.034.03-.039.033-.036.03-.035.03-.035.032-.034.03-.035.03-.035.033-.038.033-.035.032-.035.03-.035.032-.033.032-.035.032-.035.032-.036.033-.035.032-.034.034-.033.032-.035.032-.037.035-.033.032-.032.03-.033.032-.035.037-.034.034-.033.032-.034.034-.033.034-.036.037-.033.032-.03.03-.034.036-.035.037-.032.034-.034.033-.016.017-1.783-1.693.017-.019.038-.04.037-.038.039-.04.039-.04.037-.039.039-.04.038-.038.039-.04.039-.038.039-.038.038-.039.039-.038.039-.038.04-.038.039-.039.04-.038.039-.038.04-.036.04-.038.039-.039.04-.036.04-.038.04-.037.04-.036.041-.037.041-.038.041-.036.04-.036.041-.037.04-.034.042-.037.04-.036.042-.036.041-.035.042-.036.041-.035.042-.034.041-.037.042-.034.041-.035.042-.034.043-.035.041-.034.043-.035.024-.02 1.545 1.915zm15.596-4.399l.05.023.048.022.05.02.049.022.05.023.05.024.049.022.048.022.05.024.049.022.048.024.05.023.048.022.049.024.048.024.048.024.049.025.048.024.048.024.048.025.048.026.049.023.048.026.048.025.047.026.047.025.047.025.048.026.048.027.047.025.046.027.048.025.046.027.048.027.046.027.047.027.046.027.048.027.045.029.046.027.046.027.046.028.046.029.046.027.033.02-1.293 2.093-.027-.016-.041-.027-.039-.022-.04-.025-.04-.024-.04-.023-.039-.023-.038-.023-.04-.022-.042-.025-.038-.023-.04-.023-.042-.023-.037-.02-.041-.022-.041-.025-.042-.023-.04-.021-.037-.02-.042-.022-.04-.021-.041-.022-.043-.023-.04-.021-.039-.02-.042-.02-.042-.022-.04-.021-.041-.02-.043-.022-.04-.02-.041-.019-.042-.02-.04-.019-.044-.021-.042-.02-.042-.02-.039-.018-.044-.02-.04-.019-.042-.018-.042-.02-.042-.018-.044-.02-.042-.018-.038-.016.973-2.259.044.018zm-11.977 2.227l-.031.012-.043.019-.04.016-.044.019-.042.02-.043.018-.043.02-.039.017-.043.02-.043.019-.042.02-.04.019-.043.019-.041.02-.043.02-.042.02-.039.019-.044.02-.04.02-.041.021-.043.021-.04.021-.04.02-.044.022-.041.021-.04.021-.04.022-.04.02-.04.022-.042.023-.044.022-.04.021-.04.021-.042.025-.038.021-.04.023-.042.023-.04.023-.039.023-.042.024-.04.021-.039.023-.042.025-.038.023-.041.024-.042.026-1.264-2.111.046-.028.045-.027.047-.027.047-.027.046-.028.047-.027.047-.027.046-.026.047-.027.047-.026.047-.027.047-.025.048-.026.047-.027.047-.026.049-.025.046-.026.049-.025.046-.024.049-.025.048-.026.047-.023.048-.026.048-.024.049-.023.048-.026.048-.023.048-.024.049-.024.048-.023.049-.022.049-.024.048-.024.049-.021.049-.024.049-.022.048-.022.05-.022.049-.022.048-.022.05-.022.05-.022.049-.021.05-.02.049-.023.033-.015.959 2.268zm6.294-3.553l.057.002.055.003.056.004.056.002.057.005.054.004.057.004.056.004.056.005.056.004.057.006.056.004.056.006.056.006.056.004.056.006.056.006.056.008.056.006.057.006.055.007.057.006.055.008.056.007.056.008.056.008.056.007.055.008.055.009.056.008.056.009.054.009.056.01.056.008.054.01.055.009.055.009.055.011.054.01.056.01.054.01.054.01.056.01.054.013.054.011.055.011.054.011.054.013.054.012.054.01.054.013.053.013.056.012.054.013.052.014.054.012.053.014.054.013.054.014.058.015-.625 2.379h-.002l-.043-.012-.046-.011-.046-.012-.046-.012-.045-.01-.044-.01-.048-.013-.046-.01-.045-.01-.046-.011-.046-.01-.046-.01-.045-.01-.047-.01-.047-.01-.046-.008-.045-.01-.046-.008-.048-.01-.046-.009-.047-.008-.046-.01-.046-.008-.047-.009-.048-.006-.046-.009-.047-.008-.046-.007-.048-.008-.047-.007-.046-.008-.048-.007-.047-.007-.046-.006-.048-.007-.049-.007-.046-.005-.048-.006-.047-.007-.048-.005-.049-.005-.046-.007-.048-.005-.049-.005-.048-.005-.047-.005-.048-.004-.049-.005-.046-.005-.049-.003-.047-.003-.048-.006-.048-.003-.047-.003-.049-.004-.047-.003-.047-.003-.048-.002-.047-.003-.049-.002-.042-.003.12-2.458.048.004zm-2.252 2.511l-.029.002-.046.006-.047.005-.046.005-.046.005-.046.006-.045.005-.046.007-.047.005-.046.007-.045.006-.046.007-.047.007-.044.005-.047.007-.045.007-.046.007-.045.009-.047.007-.044.007-.047.009-.045.007-.045.008-.045.008-.045.008-.046.009-.045.009-.046.009-.045.008-.045.01-.045.01-.045.008-.047.01-.043.01-.045.01-.046.01-.045.01-.045.01-.044.01-.045.01-.043.012-.046.012-.047.01-.043.01-.044.013-.029.007-.616-2.382.036-.01.051-.013.054-.013.051-.013.054-.011.052-.013.053-.013.051-.012.054-.013.053-.011.052-.012.053-.013.053-.01.053-.012.053-.01.054-.011.053-.011.053-.01.053-.011.053-.01.053-.01.053-.011.055-.01.053-.01.053-.009.054-.008.053-.01.055-.009.053-.008.054-.007.053-.01.055-.008.052-.008.055-.008.054-.008.054-.006.053-.008.055-.007.054-.006.054-.007.054-.007.055-.006.054-.007.054-.006.054-.004.034-.005.253 2.448z" fill="#FFD210"/><path d="M130.972 56.953c6.88.729 13.092-4.68 13.876-12.08.783-7.4-4.159-13.989-11.039-14.717-6.88-.729-13.093 4.68-13.876 12.08-.784 7.4 4.159 13.989 11.039 14.717z" fill="#FFEF8C"/><path d="M138.566 37.05l-2.295-1.784-10.082 14.797 2.294 1.785 10.083-14.797z" fill="#FFE269"/></svg>