<svg width="116" height="106" fill="none" xmlns="http://www.w3.org/2000/svg"><path d="M48.296 99.069C72.008 101.58 93.42 82.94 96.12 57.437c2.7-25.504-14.333-48.214-38.045-50.725-23.712-2.51-45.124 16.129-47.824 41.632-2.7 25.504 14.333 48.214 38.045 50.725z" fill="#F0BE27"/><path d="M42.935 96.903c23.712 2.511 45.124-16.129 47.824-41.632 2.7-25.504-14.333-48.214-38.045-50.725C29.002 2.036 7.59 20.675 4.89 46.178c-2.7 25.504 14.333 48.214 38.045 50.725z" fill="#FFE269"/><path fill-rule="evenodd" clip-rule="evenodd" d="M44.633 90.96l.116.009.12.008.116.004.12.009.115.008.116.008.12.004.116.004.116.008.12.004.117.004.116.004.116.004.116.004.12.004h.117l.116.004h.117l.116.004h.35l.113-.001h.467l.113-.006h.117l.117-.004.113-.005.117-.004.117-.005.117-.004.114-.005.113-.004.117-.005.113-.004.114-.01.117-.004.118-.008.113-.009.114-.009.09-.003.44 6.052-.098.006-.137.011-.134.01-.136.007-.134.011-.137.007-.136.006-.133.007-.137.007-.137.006-.136.002-.137.007-.137.006-.136.002-.133.003-.136.002-.14.002-.136.003-.137.002-.136.002-.136.002-.136-.001-.136.002-.14-.002-.136-.002-.136-.002-.14-.002-.136-.002-.136-.002-.139-.006-.136-.002-.14-.007-.135-.001-.14-.007-.135-.006-.139-.006-.14-.007-.135-.006-.139-.01-.139-.007-.139-.01-.135-.01-.14-.007-.138-.01-.08-.009.461-6.052.073.007zm17.326 3.378l-.06.023-.126.05-.125.045-.122.05-.126.045-.125.045-.125.045-.126.046-.125.045-.125.045-.126.046-.125.045-.125.041-.125.045-.125.041-.125.042-.129.04-.125.046-.129.04-.125.041-.128.037-.125.041-.129.041-.124.037-.129.04-.128.037-.128.037-.13.04-.123.038-.129.036-.128.037-.128.032-.132.036-.129.037-.127.032-.129.037-.127.033-.132.032-.128.032-.128.032-.132.033-.128.032-.131.032-.128.028-.131.032-.132.028-.012.003-1.336-5.92.108-.027.115-.025.108-.027.115-.025.108-.026.108-.026.112-.03.112-.03.108-.027.107-.026.112-.03.109-.03.112-.03.108-.03.112-.03.104-.031.108-.03.109-.03.112-.035.108-.03.109-.035.109-.034.108-.03.108-.035.105-.035.113-.034.108-.035.113-.034.1-.035.11-.035.108-.038.105-.035.109-.035.109-.038.11-.039.104-.039.105-.035.105-.039.11-.039.1-.039.11-.039.11-.042.105-.04.105-.038.105-.044.05-.02 2.207 5.658zm-27.37-5.675l.108.04.104.041.109.041.104.04.105.04.112.042.105.04.105.037.112.04.105.037.105.04.113.037.105.036.108.041.105.036.225.075.102.031.226.074.105.032.109.037.11.032.109.033.109.032.11.033.112.033.113.033.11.032.11.033.109.028.11.032.113.03.113.032.11.028.113.03.114.028.106.028.114.029.113.028.114.03.11.027.114.025.163.038-1.358 5.916-.064-.015-.133-.03-.133-.031-.133-.031-.133-.031-.132-.035-.132-.035-.133-.03-.129-.035-.132-.035-.133-.035-.132-.035-.128-.035-.132-.039-.129-.034-.132-.04-.132-.038-.128-.035-.129-.038-.131-.04-.129-.038-.131-.04-.128-.042-.128-.039-.128-.043-.132-.038-.127-.043-.128-.043-.128-.043-.128-.043-.127-.043-.128-.042-.127-.043-.128-.047-.127-.043-.124-.046-.127-.047-.127-.047-.128-.047-.123-.047-.127-.047-.124-.046-.127-.047-.123-.05-.127-.048-.052-.022 2.235-5.643.044.017zm37.911-.272l-.072.055-.105.08-.11.081-.106.081-.106.081-.11.08-.104.077-.11.08-.11.077-.105.08-.11.077-.109.08-.109.076-.11.077-.108.076-.11.076-.112.076-.11.076-.109.077-.112.071-.11.076-.112.072-.11.077-.112.071-.113.076-.109.072-.112.072-.113.072-.112.071-.113.072-.112.072-.113.067-.112.072-.117.072-.112.067-.112.072-.116.067-.112.068-.116.067-.116.067-.113.072-.116.063-.115.067-.117.067-.115.067-.096.053-2.986-5.285.083-.045.099-.057.1-.06.099-.057.095-.056.104-.06.095-.057.1-.057.1-.06.095-.061.1-.057.1-.064.095-.057.096-.061.095-.057.096-.06.1-.065.105-.065.091-.061.096-.06.096-.062.092-.061.101-.07.096-.06.092-.061.1-.07.093-.06.096-.066.097-.069.096-.065.084-.058.1-.069.097-.069.096-.065.09-.066.092-.065.093-.07.096-.07.004-.003.09-.066.092-.065.097-.074.092-.065.09-.07.092-.07.089-.066.063-.047 3.69 4.82zm-46.837-4.888l.186.149.177.136.18.136.187.141.09.068.18.136.188.133.09.068.086.064.188.132.192.134.087.06.189.132.094.064.095.06.192.13.087.06.2.129.087.06.193.124.095.06.19.117.196.125.096.056.197.122.099.056.087.055.201.118.107.061-3.045 5.252-.015-.005-.113-.07-.113-.067-.118-.067-.113-.066-.113-.07-.114-.067-.113-.07-.113-.071-.113-.07-.113-.071-.113-.07-.113-.071-.113-.07-.11-.071-.112-.075-.113-.07-.109-.075-.113-.07-.109-.074-.113-.075-.108-.074-.11-.074-.112-.075-.108-.074-.109-.079-.109-.074-.108-.074-.109-.078-.108-.079-.109-.074-.108-.079-.109-.078-.104-.078-.108-.078-.109-.079-.104-.082-.108-.078-.105-.078-.108-.083-.104-.078-.104-.082-.108-.082-.104-.082-.104-.082-.104-.083-.061-.048 3.766-4.762.054.044zm55.393-3.678l-.036.046-.082.109-.085.108-.085.108-.082.108-.085.108-.085.104-.086.108-.085.108-.085.104-.089.108-.085.104-.085.108-.089.103-.089.104-.084.104-.09.107-.088.104-.09.103-.088.104-.088.103-.089.1-.088.103-.09.104-.091.099-.09.103-.092.104-.088.099-.092.099-.093.103-.092.099-.092.099-.092.099-.093.103-.092.099-.091.095-.093.099-.096.098-.092.1-.096.098-.091.095-.096.098-.096.095-.096.098-.092.095-.021.019-4.306-4.279.017-.018.009-.008.087-.087.074-.076.083-.083.087-.091.083-.083.079-.084.082-.083.08-.088.082-.083.08-.084.078-.084.08-.087.079-.088.078-.084.088-.095.08-.088.079-.088.075-.084.074-.08.08-.092.01-.011.074-.08.07-.085.01-.007.075-.088.071-.085.009-.007.08-.092.07-.08.076-.093.076-.092.075-.088.084-.096.071-.085.072-.088.005-.008.08-.096.067-.085.076-.088.08-.1.073-.097.07-.08.073-.097.08-.1.073-.093.072-.093.076-.096.063-.086.027-.034 4.829 3.68zm-62.603-3.877l.072.095.135.19.14.186.14.187.064.086.15.196.069.09.065.083.154.196.069.087.068.086.151.188.072.091.07.082.144.179.155.184.076.091.066.078.152.18.16.18.072.087.07.078.152.175.164.18.077.084.069.078.164.177.077.083.07.079.168.172.07.079-4.409 4.17-.077-.079-.09-.097-.095-.098-.09-.097-.092-.098-.09-.097-.087-.101-.09-.098-.091-.101-.09-.098-.087-.1-.091-.098-.087-.101-.09-.102-.087-.101-.086-.101-.09-.102-.087-.101-.086-.101-.087-.101-.086-.106-.086-.1-.086-.106-.083-.1-.086-.106-.086-.106-.083-.1-.086-.106-.082-.104-.086-.106-.082-.105-.082-.109-.082-.105-.082-.104-.083-.105-.081-.11-.083-.104-.082-.11-.081-.108-.079-.105-.081-.109-.078-.108-.082-.11-.078-.108-.078-.109-.037-.05 4.921-3.552.034.046zm68.685-6.595l-.041.092-.057.128-.053.132-.056.128-.057.132-.06.127-.056.128-.057.132-.06.128-.056.127-.06.128-.057.128-.06.127-.06.128-.06.127-.06.128-.06.127-.065.127-.06.123-.06.128-.063.127-.064.123-.06.127-.064.127-.064.123-.063.123-.064.127-.064.123-.067.123-.064.127-.068.122-.063.123-.068.123-.067.122-.064.123-.067.123-.067.122-.068.123-.071.122-.067.118-.067.123-.072.122-.067.118-.042.07-5.254-3.04.038-.067.062-.106.057-.099.058-.106.067-.115.062-.11.053-.099.058-.107.062-.106.058-.111.058-.107.053-.099.059-.11.058-.107.058-.111.058-.107.055-.111.058-.111.05-.104.058-.11.055-.108.058-.11.055-.116.055-.112.054-.11.05-.1.054-.116.055-.111.055-.111.05-.116.05-.104.051-.111.055-.116.046-.104.051-.111.056-.128.055-.116.046-.104.046-.103.048-.117.056-.124.046-.107.046-.104.006-.02.04-.092 5.585 2.385zm-73.68-2.67l.141.353.04.105.04.1.092.232.092.227.094.223.043.105.097.223.043.101.097.224.101.224.044.1.151.33.156.335.048.097.105.22.048.097.162.335.049.097.109.217.052.097.109.217.114.212.11.213.042.075-5.355 2.867-.045-.084-.06-.124-.066-.12-.065-.12-.061-.119-.065-.124-.061-.12-.06-.123-.062-.12-.065-.123-.06-.124-.062-.12-.057-.122-.06-.124-.061-.123-.057-.123-.061-.124-.057-.123-.06-.124-.057-.127-.057-.123-.057-.123-.057-.127-.057-.124-.056-.127-.057-.123-.057-.127-.052-.127-.057-.123-.053-.127-.057-.127-.052-.127-.053-.127-.053-.127-.052-.127-.053-.127-.053-.127-.052-.13-.052-.127-.05-.127-.051-.13-.05-.127-.048-.13-.052-.128-.024-.069 5.67-2.168.02.06zM90.436 57.7l-.013.086-.023.144-.024.148-.023.144-.023.148-.027.144-.023.148-.027.143-.027.148-.027.144-.027.143-.027.148-.027.143-.027.144-.031.147-.027.144-.03.143-.028.143-.03.143-.031.143-.03.144-.032.143-.034.142-.03.144-.035.142-.031.143-.035.143-.034.139-.034.142-.035.143-.035.143-.034.138-.034.143-.038.138-.035.143-.038.138-.038.143-.038.138-.038.142-.038.138-.039.142-.032.118-5.85-1.631.032-.118.042-.138.032-.114.031-.117.033-.127.033-.126.033-.126.032-.118.032-.126.034-.13.027-.114.034-.13.029-.127.028-.119.028-.118.029-.127.033-.13.03-.13.028-.127.024-.119.029-.118.025-.131.03-.131.024-.119.03-.13.025-.132.024-.118.025-.123.025-.131.026-.131.022-.132.024-.119.02-.123.027-.143.02-.12.022-.123.025-.13.022-.137.02-.119.018-.123.023-.144.013-.087 5.996.949zm-79.473-1.243l.015.118.029.246.034.259.015.114.015.12.035.254.019.119.039.255.015.114.043.256.015.119.022.115.044.251.04.243.069.38.023.115.02.11.05.252.023.116.051.248.023.115.056.249.023.11.055.25.027.115.056.244.027.112.027.111-5.902 1.425-.03-.12-.032-.138-.032-.137-.032-.137-.029-.137-.032-.137-.032-.138-.028-.136-.032-.138-.028-.14-.028-.137-.029-.137-.028-.141-.028-.137-.028-.14-.028-.138-.024-.14-.028-.137-.024-.14-.028-.142-.024-.136-.024-.14-.024-.141-.025-.14-.023-.141-.024-.14-.02-.14-.025-.141-.02-.14-.024-.141-.02-.14-.02-.14-.02-.145-.02-.14-.02-.14-.02-.144-.02-.14-.016-.144-.02-.14-.016-.144-.016-.14-.016-.144-.018-.127 6.034-.687.014.127zm79.892-10.723l.013.143.011.143.009.143.012.144.012.143.008.144.012.147.008.143.008.143.008.148.008.143.008.147.008.143.007.147.005.143.008.147.004.142.004.147.004.147.004.142.004.147.004.147.004.147v.146l.004.147v.142l.004.147v.589l-.004.147v.146l-.004.146v.147l-.004.15-.004.146-.003.146-.004.145-.004.15-.003.1-6.07-.19.004-.1.007-.138v-.12l.007-.138.002-.121.001-.126.003-.133.003-.138-.002-.134.001-.12.002-.126.001-.121-.001-.134-.002-.134.002-.122-.006-.134-.001-.134.002-.125-.003-.122-.005-.134-.002-.13-.003-.121-.006-.122-.005-.135-.002-.134-.007-.118-.006-.122-.006-.134-.005-.13-.007-.122-.01-.13-.004-.135-.007-.118-.007-.122-.01-.13-.009-.131-.01-.123-.01-.13-.01-.131-.01-.118-.01-.123-.01-.126 6.048-.535.012.14zm-79.8-.028l-.005.058-.018.128-.015.145-.017.123-.014.129-.018.136-.014.136-.014.124-.027.265-.014.124-.025.278-.013.124-.01.128-.013.124-.021.274-.01.125-.01.128-.02.274-.006.125-.01.124-.016.27-.006.125-.005.125-.006.125-.013.274-.005.121-.01.275-.003.109-.005.15v.12l-.009.26-.001.125v.175l-6.073-.074v-.038l.004-.145v-.151l.004-.146.004-.146.004-.15.004-.146.004-.146.004-.15.008-.146.004-.15.007-.145.005-.15.007-.146.008-.15.008-.145.008-.15.008-.15.012-.145.008-.15.012-.149.012-.15.007-.145.012-.149.012-.15.012-.148.016-.15.012-.149.015-.149.012-.149.016-.149.016-.149.016-.149.015-.148.016-.15.016-.148.02-.149.015-.149.02-.148.016-.149.02-.148.012-.083 6.016.8zm77.223-11.95l.048.134.045.13.044.13.045.13.044.135.044.13.045.13.044.135.045.13.04.134.044.134.04.13.041.133.044.135.04.134.04.134.041.13.037.133.04.138.04.134.036.133.04.134.037.134.04.134.036.137.037.134.035.137.037.134.036.138.033.133.035.137.037.134.032.137.032.137.036.138.033.133.032.137.032.137.032.138.032.137.028.137.032.141.042.193-5.931 1.3-.013-.06-.029-.137-.023-.111-.027-.112-.032-.137-.023-.111-.027-.112-.033-.133-.027-.112-.027-.111-.032-.137-.027-.112-.032-.108-.032-.137-.027-.108-.031-.112-.006-.021-.03-.112-.028-.112-.033-.12-.032-.108-.033-.125-.034-.12-.034-.122-.034-.12-.031-.108-.038-.121-.034-.12-.031-.109-.035-.108-.038-.121-.005-.022-.032-.107-.035-.109-.038-.117-.035-.108-.039-.117-.037-.121-.038-.117-.039-.117-.035-.108-.042-.117-.038-.117-.04-.11-.037-.116-.042-.117.002.012 5.721-2.033zm-74.568 1.65v.008l-.048.116-.042.109-.044.12-.047.117-.04.109-.047.12-.044.12-.043.118-.044.12-.04.113-.038.11-.044.12-.006.02-.043.113-.035.11-.044.12-.039.113-.04.121-.04.121-.04.122-.04.112-.035.114-.006.02-.039.113-.035.113-.04.121-.037.126-.04.121-.035.114-.037.126-.037.125-.035.114-.037.126-.036.125-.032.114-.036.126-.037.126-.032.113-.032.127-.037.125-.031.114-.034.13-.033.127-.031.113-.002.02-5.883-1.504.007-.029.038-.138.034-.143.038-.138.039-.142.038-.138.038-.143.038-.138.042-.138.038-.142.042-.138.038-.138.042-.138.042-.137.041-.138.042-.138.042-.138.042-.137.042-.138.045-.138.042-.137.046-.138.045-.137.046-.133.045-.138.046-.137.045-.133.046-.138.045-.133.05-.137.045-.133.05-.137.048-.133.05-.133.049-.136.049-.133.049-.133.049-.133.053-.132.05-.137.052-.133.05-.133.052-.132v-.004l5.648 2.229zm69.175-12.36l.073.112.078.113.074.112.073.113.074.112.073.112.078.113.074.112.069.116.074.113.073.116.073.113.07.116.073.116.07.112.073.117.07.116.069.116.07.116.069.116.069.116.07.116.068.12.07.116.069.116.065.12.07.116.064.12.07.12.065.116.065.12.065.12.065.12.065.12.065.12.065.119.066.12.06.12.065.123.065.12.062.12.06.123.066.12.05.105-5.418 2.739-.048-.097-.052-.098-.055-.106-.058-.115-.051-.097-.052-.102-.006-.013-.056-.098-.048-.097-.066-.116-.055-.106-.052-.093-.058-.107-.055-.106-.057-.094-.058-.107-.062-.11-.06-.107-.051-.093-.063-.103-.06-.107-.058-.102-.06-.103-.062-.103-.06-.102-.056-.09-.06-.102-.062-.103-.063-.103-.06-.098-.063-.103-.063-.103-.063-.099-.064-.099-.056-.093-.063-.099-.068-.1-.063-.098-.07-.108-.06-.09-.06-.094-.008-.009-.06-.094-.06-.09-.074-.108-.064-.095-.057-.085 5.016-3.417.068.095zm-64.096 3.1l.001-.009-.064.09-.068.097-.078.109-.069.097-.064.09-.068.097-.07.101-.068.097-.068.098-.07.1-.068.098-.065.102-.07.102-.064.097-.07.102-.064.102-.07.1-.06.095-.065.102-.07.11-.065.101-.06.094-.066.102-.065.102-.062.106-.065.102-.066.106-.061.102-.066.106-.061.102-.058.099-.065.102-.061.106-.062.107-.062.106-.062.106-.062.107-.058.106-.062.107-.057.098-.058.107-.066.114-.053.1-.044.082-5.33-2.91.057-.099.068-.122.067-.123.067-.122.068-.123.07-.118.068-.122.071-.122.067-.119.071-.122.071-.118.071-.118.071-.122.071-.118.071-.118.075-.117.07-.122.072-.118.074-.118.075-.117.07-.114.075-.118.075-.117.074-.118.075-.117.074-.114.079-.117.074-.113.075-.118.078-.113.074-.117.078-.114.079-.113.078-.113.078-.113.078-.117.078-.113.078-.113.078-.109.082-.112.078-.113.082-.113.078-.113.081-.108.005-.004 4.9 3.584zm55.98-12.131l.104.086.1.086.1.086.103.09.1.086.1.086.1.09.099.086.1.09.099.086.1.09.099.09.099.09.096.09.099.089.1.09.094.094.1.09.095.09.095.093.1.09.095.094.095.093.095.094.095.094.095.093.095.094.095.094.091.093.095.094.095.098.091.093.095.098.09.093.096.098.09.098.091.097.095.098.09.097.091.098.091.097.09.098.092.097.09.102.083.092-4.502 4.073-.08-.088-.084-.092-.076-.084-.07-.078-.08-.084-.084-.092-.08-.084-.07-.074-.08-.084-.088-.093-.077-.08-.08-.083-.081-.084-.078-.08-.08-.083-.081-.08-.081-.08-.08-.083-.082-.08-.085-.08-.08-.08-.081-.08-.089-.084-.08-.08-.078-.075-.082-.075-.092-.085-.08-.08-.082-.076-.085-.08-.085-.075-.082-.076-.085-.076-.085-.08-.085-.076-.082-.075-.085-.072-.093-.085-.085-.072-.085-.076-.086-.072-.085-.076-.086-.072-.085-.076-.09-.072-.05-.043 3.9-4.655.06.052zm-48.735 4.487l-.051.04-.094.079-.09.07-.084.07-.005.004-.093.078-.081.067-.09.074-.094.082-.085.07-.086.075-.094.082-.09.074-.085.075-.087.078-.085.075-.086.074-.086.08-.094.081-.086.079-.086.074-.086.08-.082.078-.086.079-.087.079-.09.082-.086.079-.083.083-.082.08-.086.078-.09.086-.083.08-.078.075-.082.079-.088.091-.082.083-.083.08-.082.083-.083.083-.087.091-.083.08-.074.075-.083.087-.087.092-.08.083-.082.083-.04.042-4.401-4.18.043-.045.092-.099.092-.095.096-.098.096-.099.092-.095.096-.099.095-.094.096-.098.096-.095.095-.094.096-.095.095-.094.096-.095.1-.094.095-.094.1-.094.095-.095.099-.09.099-.093.096-.095.098-.09.1-.094.099-.09.099-.09.099-.09.103-.093.099-.09.099-.09.103-.09.098-.085.103-.09.099-.09.103-.089.102-.085.103-.09.102-.085.103-.085.102-.09.103-.085.102-.086.102-.085.107-.085.102-.085.106-.085.06-.048 3.812 4.723zM64.52 7.65l.122.055.119.054.123.05.122.056.123.054.122.06.123.054.118.054.122.06.123.054.118.059.122.059.119.054.122.06.118.058.118.058.122.063.118.059.118.058.118.063.118.062.122.06.118.062.118.063.118.062.113.063.118.062.118.063.117.067.118.062.114.067.117.062.114.067.117.067.114.066.117.067.114.066.117.067.113.07.114.067.113.066.113.07.113.071.114.067.08.05-3.191 5.166-.066-.04-.102-.066-.095-.056-.099-.06-.098-.061-.099-.057-.095-.056-.095-.056-.1-.056-.102-.061-.095-.057-.099-.056-.103-.057-.091-.051-.1-.053-.102-.06-.103-.058-.1-.052-.092-.047-.103-.057-.1-.053-.099-.052-.106-.057-.1-.053-.096-.047-.103-.053-.103-.053-.1-.052-.1-.049-.107-.053-.1-.048-.1-.048-.103-.049-.1-.048-.107-.053-.104-.049-.104-.048-.096-.044-.108-.05-.1-.047-.104-.045-.104-.048-.104-.045-.107-.049-.104-.044-.093-.04 2.402-5.575.108.045zm-29.557 5.494l-.077.029-.106.047-.098.04-.11.047-.102.048-.106.047-.106.047-.098.044-.106.048-.106.047-.103.048-.098.048-.106.047-.102.048-.107.051-.102.048-.099.048-.106.052-.098.048-.103.052-.107.051-.099.053-.098.048-.107.055-.103.052-.099.052-.098.053-.1.052-.098.052-.103.056-.107.056-.1.052-.098.052-.104.06-.095.053-.099.056-.103.056-.1.057-.095.057-.103.06-.1.052-.095.057-.103.06-.096.057-.1.06-.103.065-3.12-5.211.113-.068.112-.067.116-.067.116-.068.112-.067.116-.067.116-.068.116-.063.116-.067.115-.063.116-.067.116-.063.12-.063.115-.067.116-.063.12-.063.115-.063.12-.062.114-.06.12-.062.119-.062.115-.06.12-.062.119-.059.118-.058.12-.063.119-.058.119-.059.119-.058.119-.059.122-.054.119-.058.119-.059.122-.053.12-.059.122-.054.118-.054.122-.054.123-.054.118-.055.123-.054.122-.053.122-.055.122-.05.123-.053.081-.038 2.367 5.596zm15.533-8.769l.139.007.135.005.14.011.139.006.138.01.135.011.14.01.138.011.139.01.139.011.138.015.14.01.138.015.138.015.139.01.138.015.139.014.138.02.138.014.139.015.137.018.139.015.138.019.138.019.138.018.138.02.138.018.134.018.138.023.138.02.137.022.134.022.137.023.138.023.134.023.137.023.134.022.137.027.134.023.137.027.133.027.134.022.137.027.133.031.133.027.137.027.133.026.133.031.133.031.133.027.133.03.133.031.137.031.133.031.128.035.133.03.132.036.133.03.133.035.143.036-1.543 5.872h-.004l-.106-.029-.113-.029-.114-.028-.113-.03-.11-.023-.11-.029-.118-.029-.114-.024-.11-.025-.114-.028-.114-.025-.114-.025-.11-.024-.118-.025-.114-.024-.114-.021-.11-.024-.115-.02-.118-.026-.114-.02-.115-.02-.114-.025-.114-.02-.115-.021-.119-.017-.114-.02-.114-.021-.115-.016-.119-.021-.115-.017-.114-.02-.119-.017-.115-.016-.115-.017-.119-.016-.118-.017-.116-.012-.118-.017-.115-.016-.12-.013-.119-.013-.115-.016-.119-.013-.119-.012-.12-.013-.115-.012-.12-.008-.118-.013-.116-.012-.12-.009-.115-.008-.12-.013-.119-.008-.116-.008-.12-.008-.115-.009-.116-.008-.12-.004-.116-.008-.12-.005-.104-.006.296-6.066.12.008zm-5.56 6.199l-.07.005-.114.013-.115.013-.114.013-.114.013-.114.013-.11.013-.115.018-.114.013-.115.017-.11.013-.114.017-.115.017-.11.014-.115.017-.11.018-.115.017-.111.021-.115.018-.11.017-.116.021-.11.018-.112.021-.11.018-.111.022-.116.02-.11.023-.112.021-.111.022-.112.026-.11.022-.112.021-.115.026-.108.022-.111.026-.112.025-.111.022-.112.026-.107.026-.112.026-.108.026-.112.03-.115.026-.108.026-.108.03-.072.018-1.52-5.878.088-.024.128-.033.131-.032.128-.032.132-.028.127-.033.132-.032.128-.028.131-.032.132-.028.127-.028.132-.032.131-.028.131-.028.131-.024.131-.028.132-.028.13-.024.132-.028.13-.023.131-.024.132-.028.134-.023.131-.024.131-.024.134-.02.131-.023.135-.023.13-.02.134-.02.131-.023.134-.02.13-.019.135-.02.134-.018.134-.016.13-.02.135-.018.134-.016.133-.015.135-.019.133-.015.134-.015.134-.015.133-.011.083-.012.624 6.042z" fill="#FFD210"/><path d="M44.35 83.79c16.978 1.798 32.31-11.549 34.244-29.81 1.933-18.262-10.263-34.523-27.242-36.32-16.979-1.798-32.31 11.548-34.244 29.81-1.933 18.26 10.263 34.522 27.242 36.32z" fill="#FFEF8C"/><path d="M63.093 34.675l-5.661-4.405-24.883 36.516 5.662 4.405 24.882-36.516z" fill="#FFE269"/><path d="M80.947 102.893c15.768 1.67 30.006-10.725 31.802-27.685 1.796-16.96-9.531-32.062-25.3-33.731-15.768-1.67-30.006 10.725-31.802 27.685-1.796 16.96 9.531 32.061 25.3 33.731z" fill="#F0BE27"/><path d="M77.38 101.453c15.769 1.669 30.007-10.726 31.803-27.685 1.796-16.96-9.531-32.062-25.3-33.732-15.768-1.67-30.007 10.726-31.802 27.685-1.796 16.96 9.53 32.062 25.3 33.732z" fill="#FFE269"/><path fill-rule="evenodd" clip-rule="evenodd" d="M78.51 97.501l.077.005.08.006.076.003.08.005.077.006.077.005.08.003.077.003.077.005.08.003.077.002.078.003.077.003.077.002.08.003h.078l.077.003h.078l.077.002h.463l.077-.001h.078l.075-.003h.078l.078-.003.075-.003.078-.003.078-.003.078-.003.075-.003.075-.003.078-.003.075-.003.076-.006.078-.003.078-.006.076-.006.075-.006.06-.002.293 4.025-.065.004-.092.007-.088.007-.091.005-.089.007-.09.004-.092.005-.088.004-.091.004-.091.005-.09.001-.092.004-.09.005-.091.001-.088.002-.091.002-.093.001-.091.001-.09.002-.091.001-.091.002-.09-.001-.091.001-.093-.001-.09-.001-.09-.002-.094-.001-.09-.001-.09-.002-.093-.004-.09-.001-.093-.004-.09-.002-.093-.004-.09-.004-.093-.004-.092-.004-.09-.004-.093-.007-.092-.005-.093-.007-.09-.006-.092-.005-.093-.006-.053-.006.307-4.025.049.005zm11.521 2.246l-.04.015-.084.033-.083.03-.081.034-.084.03-.083.03-.083.03-.084.03-.083.03-.083.03-.084.03-.083.03-.083.028-.083.03-.083.027-.083.028-.086.027-.083.03-.086.027-.083.027-.085.025-.083.027-.086.027-.083.025-.085.027-.086.024-.085.024-.086.027-.082.025-.086.024-.085.025-.085.021-.088.024-.085.025-.085.021-.085.025-.086.021-.087.022-.085.021-.085.022-.088.021-.085.022-.087.021-.085.019-.088.021-.087.019-.008.002-.889-3.938.072-.017.077-.017.071-.018.077-.016.072-.018.071-.017.075-.02.074-.02.072-.018.072-.017.074-.02.072-.02.075-.02.072-.02.074-.02.07-.02.072-.02.071-.021.075-.023.072-.02.072-.023.073-.023.072-.02.072-.023.07-.023.074-.023.073-.023.074-.022.068-.024.072-.023.072-.026.07-.023.072-.023.073-.026.072-.025.07-.026.07-.023.07-.026.073-.026.067-.026.072-.026.073-.028.07-.026.07-.026.07-.029.033-.013 1.468 3.762zM71.83 95.973l.072.027.07.027.072.027.07.027.069.027.074.027.07.027.07.024.074.028.07.024.07.027.075.024.07.024.072.027.07.025.15.049.067.02.15.05.07.021.073.025.072.021.073.022.073.022.072.021.076.022.075.022.073.022.072.021.073.019.073.022.076.019.075.022.073.018.075.02.076.019.07.018.076.02.075.019.076.019.073.018.076.017.108.025-.903 3.934-.042-.01-.089-.02-.088-.021-.088-.02-.089-.021-.088-.023-.088-.023-.088-.021-.086-.023-.088-.023-.088-.023-.088-.023-.085-.023-.088-.026-.085-.023-.088-.026-.088-.026-.085-.023-.086-.026-.087-.026-.085-.026-.088-.025-.085-.029-.085-.026-.085-.028-.088-.026-.085-.029-.085-.028-.085-.028-.085-.029-.085-.028-.084-.029-.085-.028-.085-.031-.085-.029-.082-.031-.084-.031-.085-.031-.085-.032-.082-.03-.084-.032-.082-.03-.085-.032-.082-.033-.084-.032-.035-.014 1.486-3.753.03.011zm25.21-.18l-.047.036-.07.054-.073.053-.07.054-.07.054-.074.053-.07.051-.073.054-.072.05-.07.054-.073.05-.073.054-.073.05-.072.052-.073.05-.072.051-.076.05-.072.051-.073.051-.075.048-.072.05-.075.048-.073.05-.075.048-.075.05-.072.049-.075.047-.075.048-.075.048-.075.048-.074.047-.075.045-.075.048-.077.047-.075.045-.075.048-.077.045-.074.045-.077.044-.078.045-.074.048-.077.042-.077.044-.078.045-.077.045-.063.035-1.986-3.514.055-.03.066-.038.066-.04.066-.038.064-.038.069-.04.063-.038.066-.037.067-.04.063-.04.066-.038.067-.043.064-.038.063-.04.064-.038.064-.041.066-.043.07-.043.06-.04.064-.041.064-.04.061-.041.067-.046.064-.04.061-.042.067-.045.061-.041.064-.043.065-.046.064-.044.055-.038.067-.046.065-.046.064-.043.059-.044.061-.044.062-.046.064-.046.003-.002.06-.044.06-.044.065-.049.062-.043.059-.047.062-.046.059-.044.042-.031 2.453 3.204zm-31.146-3.251l.124.099.118.09.12.09.124.095.06.045.12.09.124.089.06.045.058.042.125.089.128.088.057.04.126.088.062.043.063.04.128.086.058.04.133.086.058.04.128.082.063.04.127.078.13.083.064.037.13.08.066.038.059.037.134.078.07.041-2.024 3.493-.01-.004-.076-.047-.075-.044-.078-.044-.075-.044-.076-.047-.075-.045-.075-.047-.076-.046-.075-.047-.075-.047-.075-.047-.075-.047-.076-.047-.072-.046-.075-.05-.075-.047-.073-.05-.075-.046-.072-.05-.075-.05-.072-.049-.073-.05-.075-.049-.072-.05-.072-.051-.072-.05-.073-.049-.072-.052-.072-.052-.072-.05-.072-.052-.072-.052-.07-.052-.072-.052-.072-.052-.069-.055-.072-.052-.07-.052-.071-.054-.07-.052-.069-.055-.072-.055-.069-.054-.07-.055-.068-.055-.04-.032 2.504-3.166.035.029zm36.836-2.446l-.024.03-.054.073-.057.072-.057.072-.054.072-.056.072-.057.069-.057.072-.056.071-.057.07-.059.071-.057.07-.056.071-.059.069-.059.069-.057.069-.059.071-.059.07-.059.068-.059.069-.059.069-.059.066-.059.069-.059.069-.061.065-.059.07-.062.068-.058.066-.062.066-.061.068-.061.066-.062.066-.061.066-.061.068-.062.066-.061.063-.061.066-.064.066-.061.065-.064.066-.061.063-.064.065-.063.063-.064.066-.061.063-.014.012-2.864-2.845.012-.012.006-.005.057-.058.05-.05.055-.056.058-.06.055-.056.052-.056.055-.055.053-.058.055-.056.052-.055.053-.056.053-.058.052-.059.053-.055.058-.064.053-.058.052-.058.05-.056.05-.053.053-.062.006-.007.05-.053.047-.057.005-.005.05-.058.048-.056.006-.005.053-.061.047-.054.05-.061.05-.062.05-.058.057-.064.047-.056.048-.06.003-.004.053-.064.045-.057.05-.058.054-.067.048-.064.047-.054.048-.064.054-.067.047-.062.048-.061.051-.064.042-.057.018-.023 3.211 2.448zM61.1 87.518l.048.063.09.126.093.124.092.124.044.058.1.13.045.06.043.055.103.13.045.058.046.058.1.124.048.06.046.056.096.118.104.123.05.06.044.052.1.12.107.12.048.057.047.052.101.117.109.12.05.055.047.052.11.118.05.055.046.052.112.115.046.052-2.93 2.774-.052-.053-.06-.065-.063-.064-.06-.065-.06-.065-.061-.065-.058-.067-.06-.065-.06-.068-.06-.064-.058-.068-.06-.064-.058-.068-.06-.067-.058-.067-.057-.068-.06-.067-.058-.068-.057-.067-.058-.067-.057-.07-.058-.067-.057-.07-.055-.067-.057-.07-.057-.07-.055-.068-.057-.07-.055-.07-.057-.07-.055-.069-.054-.072-.055-.07-.055-.07-.054-.07-.055-.072-.054-.07-.055-.073-.054-.072-.052-.07-.055-.072-.051-.072-.055-.073-.052-.072-.051-.072-.025-.033 3.272-2.363.023.03zm45.674-4.386l-.027.061-.037.085-.035.088-.038.085-.038.088-.039.085-.038.085-.038.088-.04.084-.037.085-.04.085-.038.085-.04.085-.04.085-.04.085-.04.084-.04.085-.042.084-.04.082-.04.085-.042.085-.043.082-.04.084-.042.085-.043.081-.042.082-.042.085-.043.081-.044.082-.043.084-.045.082-.042.082-.045.081-.045.082-.042.081-.045.082-.045.081-.044.082-.048.08-.044.08-.045.081-.048.081-.044.079-.028.047-3.494-2.022.025-.044.041-.071.038-.066.039-.07.044-.077.042-.073.035-.066.038-.07.042-.072.038-.073.039-.071.035-.066.039-.074.039-.07.039-.075.038-.07.036-.075.039-.073.033-.07.039-.073.036-.071.039-.074.037-.077.036-.074.036-.074.033-.066.037-.077.036-.074.036-.074.034-.077.033-.069.034-.074.037-.077.03-.069.034-.074.037-.085.037-.077.031-.069.03-.069.032-.077.037-.083.031-.071.03-.07.004-.013.027-.061 3.713 1.586zm-48.996-1.776l.094.236.026.07.027.066.061.154.062.15.062.15.029.07.064.148.03.067.064.148.067.15.029.066.1.22.104.222.032.065.07.146.031.065.109.222.032.065.072.144.035.065.072.144.076.141.073.141.028.05-3.56 1.907-.03-.056-.041-.082-.043-.08-.044-.08-.04-.08-.043-.081-.041-.08-.04-.082-.041-.08-.043-.082-.04-.082-.041-.08-.038-.081-.04-.082-.041-.083-.038-.081-.04-.083-.038-.081-.04-.083-.038-.084-.038-.082-.038-.082-.038-.085-.037-.082-.038-.084-.038-.082-.038-.085-.034-.084-.038-.082-.035-.084-.038-.085-.035-.084-.035-.085-.035-.084-.035-.084-.035-.085-.035-.084-.035-.087-.035-.084-.032-.085-.035-.087-.033-.084-.032-.087-.035-.084-.016-.046 3.77-1.442.014.04zm51.19-5.973l-.009.058-.015.095-.016.099-.015.095-.016.099-.017.095-.016.099-.018.095-.018.098-.018.096-.018.095-.018.099-.018.095-.018.095-.02.098-.018.096-.021.095-.017.095-.021.096-.02.095-.021.095-.02.095-.023.095-.021.095-.022.095-.021.095-.023.095-.023.092-.023.095-.023.095-.023.095-.022.092-.023.095-.025.092-.023.095-.026.092-.025.094-.025.092-.026.095-.025.092-.026.094-.021.079-3.89-1.085.021-.079.028-.091.021-.076.021-.078.022-.084.022-.084.021-.084.022-.078.021-.084.023-.087.018-.076.022-.087.019-.084.019-.078.019-.079.019-.084.022-.087.02-.087.019-.084.016-.079.019-.079.017-.087.019-.087.016-.079.02-.087.017-.087.016-.079.016-.081.017-.088.017-.087.015-.087.016-.08.014-.081.018-.096.013-.079.014-.082.017-.087.015-.09.013-.08.011-.082.016-.095.008-.058 3.988.631zm-52.849-.826l.01.078.02.164.022.172.01.076.01.079.023.17.013.078.026.17.01.076.028.17.01.079.015.077.03.167.026.161.046.252.015.077.013.074.034.167.015.077.034.165.015.077.037.165.015.074.037.165.018.077.037.162.018.075.018.074-3.924.947-.02-.08-.022-.091-.021-.091-.021-.092-.02-.09-.02-.092-.022-.091-.019-.091-.021-.091-.019-.094-.018-.091-.02-.091-.018-.094-.019-.09-.018-.095-.019-.09-.016-.094-.019-.091-.016-.094-.018-.093-.016-.091-.016-.093-.016-.094-.016-.093-.016-.094-.016-.093-.014-.094-.016-.093-.013-.093-.016-.094-.013-.093-.014-.093-.013-.096-.013-.093-.014-.093-.013-.096-.013-.093-.01-.096-.014-.093-.01-.096-.011-.093-.011-.096-.012-.084 4.012-.457.01.085zm53.128-7.131l.008.095.008.095.005.096.008.095.008.095.006.095.007.099.006.095.005.095.005.098.006.095.005.098.006.095.005.098.003.095.005.098.003.094.002.098.003.097.003.095.002.098.003.098.002.097v.098l.003.097v.095l.003.097v.392l-.003.097v.098l-.002.097v.097l-.003.1-.002.097-.003.097-.002.097-.003.1-.002.067-4.036-.127.002-.067.005-.091V71l.005-.092.001-.08.001-.084.001-.089.002-.091-.001-.09.001-.08.001-.083.001-.08-.001-.09-.001-.089.001-.08-.004-.09-.001-.089.002-.083-.002-.081-.004-.09-.001-.086-.002-.08-.004-.082-.004-.09v-.088l-.005-.079-.004-.08-.004-.09-.004-.087-.004-.08-.006-.088-.004-.09-.004-.077-.005-.081-.006-.087-.006-.087-.007-.082-.007-.087-.006-.086-.007-.079-.007-.081-.007-.085 4.023-.355.008.093zm-53.066-.019l-.004.039-.012.085-.01.096-.011.082-.01.086-.011.09-.01.091-.009.082-.018.176-.01.083-.016.184-.009.083-.006.085-.009.083-.014.182-.006.083-.007.085-.014.182-.003.083-.007.083-.011.18-.003.083-.004.083-.004.083-.009.182-.003.08-.007.184-.002.072-.003.1v.08l-.006.172v.2l-4.04-.05.001-.024.003-.097v-.1l.002-.097.003-.098.003-.1.002-.096.003-.098.003-.1.005-.096.002-.1.005-.097.003-.1.005-.096.006-.1.005-.097.005-.1.006-.099.007-.096.005-.1.008-.1.008-.098.005-.097.008-.1.008-.099.008-.099.01-.099.009-.1.01-.098.008-.1.01-.099.011-.099.01-.099.01-.099.011-.099.01-.099.014-.098.01-.1.014-.098.01-.1.013-.098.008-.055 4 .532zm51.352-7.947l.032.09.03.086.029.087.03.086.029.09.03.086.029.087.03.09.029.086.027.089.029.09.028.085.026.09.03.089.026.089.027.089.027.086.024.089.027.092.027.089.024.088.027.09.024.088.027.09.024.09.024.09.024.091.024.089.024.091.022.089.023.091.025.09.021.09.021.092.024.091.022.089.021.091.022.091.021.092.021.09.019.092.021.094.028.128-3.944.864-.009-.04-.019-.09-.015-.074-.018-.075-.021-.09-.016-.075-.018-.074-.021-.089-.018-.074-.018-.074-.022-.091-.018-.075-.021-.071-.021-.091-.018-.072-.021-.074-.004-.015-.02-.074-.018-.074-.023-.08-.02-.072-.023-.083-.022-.08-.023-.08-.022-.081-.021-.072-.025-.08-.023-.08-.021-.072-.023-.072-.025-.08-.004-.015-.021-.072-.023-.072-.025-.078-.024-.072-.025-.078-.025-.08-.026-.078-.025-.078-.023-.072-.028-.078-.026-.077-.026-.073-.025-.077-.028-.078.002.008 3.804-1.352zm-49.587 1.1l-.001.005-.032.077-.028.072-.029.08-.031.078-.026.072-.032.08-.03.08-.028.078-.03.08-.025.076-.026.072-.03.08-.003.014-.029.075-.023.072-.03.08-.025.076-.027.08-.027.081-.026.08-.026.076-.024.075-.004.014-.026.075-.023.075-.027.08-.024.084-.027.081-.023.075-.025.084-.024.084-.024.075-.024.084-.024.083-.021.076-.025.084-.024.083-.021.076-.022.084-.024.083-.021.076-.022.087-.022.084-.021.075-.002.014-3.912-1.001.005-.019.025-.092.023-.095.026-.092.025-.094.025-.092.026-.095.025-.092.028-.091.025-.095.028-.092.025-.091.028-.092.028-.092.028-.091.028-.092.027-.092.028-.091.028-.092.03-.091.028-.092.03-.091.03-.091.031-.089.03-.091.03-.092.03-.088.031-.092.03-.088.033-.091.03-.089.033-.09.033-.09.032-.087.033-.092.033-.088.032-.088.033-.088.035-.089.033-.09.035-.089.033-.088.035-.088v-.003l3.756 1.483zm46-8.22l.049.075.051.075.049.075.049.074.049.075.049.075.052.075.049.074.046.078.049.074.049.078.048.075.047.077.048.077.047.075.048.077.047.077.046.077.046.078.046.077.046.077.046.077.046.08.046.077.046.077.044.08.046.077.043.08.046.08.043.077.044.08.043.08.043.079.043.08.044.08.043.079.043.08.041.079.043.082.043.08.041.08.04.082.044.08.034.07-3.604 1.82-.032-.064-.034-.065-.037-.07-.038-.077-.035-.065-.034-.067-.004-.01-.037-.064-.032-.065-.044-.077-.036-.07-.035-.062-.039-.071-.036-.07-.038-.063-.039-.071-.041-.074-.039-.07-.035-.063-.042-.068-.039-.071-.039-.068-.04-.068-.041-.069-.04-.068-.037-.06-.04-.068-.042-.068-.041-.068-.04-.066-.042-.068-.042-.069-.042-.065-.042-.066-.038-.062-.042-.066-.045-.066-.042-.066-.046-.071-.041-.06-.039-.063-.005-.006-.04-.062-.04-.06-.049-.072-.043-.063-.038-.057 3.336-2.272.045.063zM61.323 54.4v-.005l-.042.06-.046.064-.051.072-.046.065-.042.06-.046.064-.046.067-.045.065-.046.065-.046.067-.046.065-.043.068-.046.067-.043.065-.046.068-.043.067-.046.068-.04.062-.044.068-.047.073-.043.068-.04.062-.043.068-.044.068-.04.07-.044.068-.044.07-.04.068-.044.07-.041.069-.038.065-.044.068-.04.07-.042.072-.04.07-.042.071-.041.07-.039.072-.04.07-.039.066-.038.071-.044.076-.036.066-.029.055-3.544-1.935.038-.066.044-.081.045-.082.045-.081.045-.082.047-.078.045-.082.047-.08.045-.08.047-.08.047-.08.047-.078.048-.08.047-.08.047-.078.05-.078.047-.081.047-.078.05-.079.05-.078.046-.075.05-.079.05-.078.05-.078.049-.078.05-.076.051-.078.05-.075.05-.078.051-.075.05-.078.052-.076.052-.075.052-.075.052-.075.052-.078.052-.075.052-.075.051-.073.055-.075.052-.075.054-.075.052-.075.054-.072.003-.002 3.259 2.383zm37.226-8.066l.07.057.066.057.066.057.069.06.066.057.066.057.066.06.067.057.066.06.066.057.066.06.066.06.066.06.064.06.066.06.066.059.063.062.066.06.064.06.063.062.066.06.063.062.063.063.064.062.063.062.063.062.063.063.064.062.06.062.063.063.063.065.061.062.063.065.061.062.063.065.06.064.06.065.063.065.061.065.06.065.06.065.061.065.06.064.06.068.056.061-2.994 2.71-.054-.06-.055-.06-.051-.056-.046-.053-.054-.055-.055-.062-.054-.056-.047-.049-.053-.056-.058-.061-.052-.053-.053-.056-.054-.056-.051-.052-.054-.056-.053-.053-.054-.053-.054-.056-.054-.053-.056-.053-.054-.053-.054-.053-.058-.056-.054-.053-.052-.05-.054-.05-.061-.057-.054-.053-.054-.05-.057-.053-.056-.05-.055-.051-.056-.05-.057-.054-.056-.05-.055-.05-.057-.048-.06-.057-.058-.048-.057-.05-.057-.048-.056-.05-.057-.048-.057-.05-.06-.049-.033-.028 2.593-3.096.04.035zM66.14 49.318l-.034.027-.062.052-.06.046-.056.047-.003.002-.062.052-.054.045-.06.049-.062.054-.057.047-.057.05-.062.054-.06.05-.057.05-.057.052-.057.05-.057.049-.057.052-.063.055-.057.052-.057.05-.057.052-.055.053-.057.052-.058.052-.06.055-.057.052-.055.056-.055.052-.057.053-.06.057-.055.053-.052.05-.055.053-.058.06-.055.056-.054.052-.055.056-.055.055-.059.06-.054.053-.05.05-.055.059-.058.06-.052.056-.055.055-.026.028-2.928-2.78.03-.03.06-.066.061-.063.064-.065.064-.066.061-.063.064-.065.063-.063.064-.066.064-.063.063-.062.064-.063.063-.063.064-.063.066-.062.063-.063.067-.063.063-.062.066-.06.066-.063.064-.062.065-.06.066-.063.066-.06.066-.06.066-.06.069-.061.065-.06.066-.06.068-.06.066-.056.068-.06.066-.06.069-.06.068-.056.068-.06.068-.056.068-.057.068-.06.069-.056.068-.057.068-.057.07-.056.068-.057.07-.056.04-.033 2.535 3.142zM91.735 42.1l.081.036.079.036.082.034.081.036.082.037.08.039.082.037.08.036.08.039.082.036.079.04.08.038.08.037.08.039.08.039.078.038.08.042.08.04.078.038.079.042.078.042.081.039.078.041.079.042.078.042.076.041.078.042.078.042.079.044.078.042.075.044.079.041.075.045.078.044.076.044.078.045.075.044.078.044.075.047.076.044.075.044.076.047.075.047.075.044.053.034-2.121 3.435-.044-.027-.068-.043-.063-.038-.066-.04-.065-.04-.066-.038-.064-.037-.063-.038-.066-.037-.068-.04-.063-.038-.066-.037-.068-.038-.061-.035-.066-.034-.068-.04-.069-.039-.066-.035-.061-.031-.069-.038-.066-.035-.066-.035-.07-.038-.067-.035-.064-.031-.069-.035-.068-.035-.066-.035-.067-.032-.071-.036-.066-.032-.067-.032-.069-.032-.066-.032-.071-.036-.07-.032-.068-.032-.064-.03-.072-.032-.067-.032-.069-.03-.069-.032-.069-.03-.072-.032-.069-.03-.062-.026 1.598-3.707.072.03zm-19.656 3.653l-.05.02-.071.03-.065.027-.073.032-.068.031-.07.032-.071.031-.066.03-.07.031-.07.031-.069.032-.065.032-.07.032-.069.031-.07.035-.068.031-.066.032-.07.035-.066.032-.068.034-.071.034-.066.035-.066.032-.07.037-.069.035-.066.034-.065.035-.066.035-.066.034-.068.038-.072.037-.065.035-.066.034-.069.04-.063.035-.066.038-.069.037-.066.038-.063.037-.07.04-.065.035-.063.038-.07.04-.063.038-.066.04-.07.043-2.073-3.466.075-.044.074-.045.077-.045.077-.045.075-.045.077-.044.077-.045.077-.042.077-.045.077-.042.077-.044.077-.042.08-.042.076-.044.077-.042.08-.042.077-.042.079-.042.076-.039.08-.041.08-.042.076-.04.08-.04.078-.04.08-.039.079-.041.079-.04.079-.038.08-.04.078-.038.082-.036.079-.039.079-.039.081-.035.08-.04.08-.035.08-.036.08-.036.082-.036.079-.036.081-.036.082-.036.081-.036.081-.033.081-.036.055-.025 1.573 3.72zm10.33-5.831l.092.004.09.004.093.007.092.004.093.007.09.007.092.007.092.007.093.007.092.007.092.01.092.007.092.01.092.01.093.006.092.01.092.01.091.012.093.01.092.01.091.012.093.01.091.013.092.012.092.013.091.012.092.013.09.012.09.015.093.013.091.015.09.015.09.015.092.015.089.015.091.015.09.016.09.017.09.015.09.018.09.018.088.015.091.018.089.02.088.018.091.018.089.018.088.02.089.021.088.018.089.02.088.02.09.021.09.02.085.024.088.02.088.024.088.02.088.023.096.024-1.026 3.905h-.003l-.07-.02-.076-.018-.075-.02-.076-.019-.073-.016-.073-.019-.078-.019-.076-.016-.073-.017-.076-.019-.076-.016-.075-.016-.074-.016-.078-.017-.076-.016-.076-.014-.073-.016-.076-.014-.079-.016-.076-.014-.076-.014-.076-.016-.076-.014-.076-.013-.08-.011-.075-.014-.076-.014-.077-.01-.078-.014-.077-.011-.076-.014-.079-.011-.076-.01-.077-.012-.079-.011-.079-.011-.077-.008-.079-.011-.076-.011-.08-.009-.079-.008-.076-.01-.08-.01-.078-.008-.08-.008-.076-.008-.08-.006-.08-.008-.076-.008-.08-.006-.076-.005-.08-.009-.08-.005-.076-.006-.08-.005-.077-.006-.077-.005-.08-.003-.077-.005-.08-.003-.069-.005.197-4.034.08.006zm-3.697 4.122l-.047.003-.076.01-.076.008-.076.008-.076.009-.076.009-.073.009-.076.011-.076.009-.076.011-.074.009-.076.011-.076.012-.073.009-.077.011-.073.012-.076.011-.074.014-.077.012-.073.012-.077.014-.073.011-.074.015-.074.011-.074.015-.076.014-.074.015-.074.014-.074.014-.074.018-.074.014-.074.014-.077.017-.071.015-.074.017-.075.017-.074.015-.074.017-.072.017-.074.017-.071.018-.075.02-.077.017-.071.017-.072.02-.048.012-1.01-3.909.058-.016.085-.021.087-.022.085-.021.088-.019.085-.021.087-.022.085-.018.088-.022.087-.018.085-.02.087-.02.088-.02.087-.018.087-.016.087-.018.087-.019.087-.015.088-.019.087-.016.087-.016.087-.018.09-.016.087-.016.087-.015.089-.013.087-.016.09-.016.086-.013.09-.012.086-.016.09-.013.086-.013.09-.013.089-.013.089-.01.087-.013.089-.012.089-.01.089-.01.089-.013.089-.01.089-.01.089-.01.089-.008.055-.008.415 4.018z" fill="#FFD210"/><path d="M78.32 92.733c11.29 1.195 21.486-7.68 22.772-19.824 1.286-12.144-6.825-22.957-18.115-24.153-11.29-1.195-21.486 7.68-22.772 19.824-1.286 12.143 6.825 22.957 18.115 24.153z" fill="#FFEF8C"/><path d="M90.784 60.072l-3.765-2.93-16.546 24.283 3.765 2.93L90.784 60.07z" fill="#FFE269"/></svg>