<svg width="217" height="167" fill="none" xmlns="http://www.w3.org/2000/svg"><g clip-path="url(#clip0)"><path opacity=".3" d="M99.435 147.443c49.804 0 90.178-3.139 90.178-7.012 0-3.873-40.374-7.012-90.178-7.012-49.804 0-90.178 3.139-90.178 7.012 0 3.873 40.374 7.012 90.178 7.012z" fill="#fff"/><g opacity=".1"><path opacity=".1" d="M179.306 100.474c-.539-1.638-2.725-2.393-4.88-1.683a5.259 5.259 0 00-.898.389 4.569 4.569 0 00-.424-.098c.117-.471.163-.958.133-1.443a5.222 5.222 0 002.313-4.562 5.228 5.228 0 002.304-4.562 5.041 5.041 0 001.747-1.98c1.039-2.062.609-4.378-.964-5.175-1.572-.796-3.692.23-4.731 2.291a5.04 5.04 0 00-.558 2.582 5.235 5.235 0 00-2.305 4.562 5.24 5.24 0 00-2.304 4.562 5.235 5.235 0 00-2.313 4.564 5.046 5.046 0 00-1.746 1.981 5.393 5.393 0 00-.441 1.22 4.525 4.525 0 00-.942-1.006 5.41 5.41 0 00-.213-.956c-.708-2.16-2.609-3.478-4.243-2.938-1.634.54-2.389 2.726-1.681 4.887.29.926.849 1.746 1.604 2.354.042.325.113.645.213.956.411 1.254 1.224 2.223 2.153 2.71a4.98 4.98 0 00-.176.828 5.384 5.384 0 00-1.6 3.169 5.372 5.372 0 00-1.6 3.17 5.248 5.248 0 00-1.061 1.447c-1.041 2.061-.611 4.379.962 5.174 1.572.795 3.692-.227 4.733-2.29.275-.538.455-1.12.531-1.72a5.38 5.38 0 001.6-3.168 5.372 5.372 0 001.6-3.17 5.36 5.36 0 001.58-3.168 5.354 5.354 0 001.604-3.175c.27-.256.512-.541.72-.85a4.965 4.965 0 002.603-.164c.311-.101.611-.231.898-.388a4.924 4.924 0 002.847-.102c2.15-.704 3.472-2.608 2.935-4.248z" fill="#3F3D56"/><g opacity=".1" fill="#000"><path opacity=".1" d="M175.501 94.014c-.223.22-.467.415-.73.585a4.88 4.88 0 01-.235 1.79c.167-.23.316-.474.445-.728a5.243 5.243 0 00.52-1.647zM177.805 89.452c-.222.22-.467.415-.73.585a4.88 4.88 0 01-.235 1.79c.167-.23.316-.475.445-.73a5.261 5.261 0 00.52-1.645zM172.579 87.754a4.736 4.736 0 01.036-.937 5.284 5.284 0 00-1.014 1.396 5.51 5.51 0 00-.323.793c.352-.496.793-.92 1.301-1.252zM157.954 115.363c.185-.259.395-.499.626-.718.036-.288.097-.573.184-.85a5.4 5.4 0 00-.486.788 5.366 5.366 0 00-.324.78zM159.553 112.197c.186-.259.395-.499.626-.718.035-.281.094-.558.176-.829a5.504 5.504 0 00-.467.763 5.651 5.651 0 00-.335.784zM173.195 98.576c-.221.22-.465.415-.728.583.029.484-.016.971-.134 1.442.144.025.285.058.425.098.286-.157.587-.287.897-.389 2.16-.71 4.344.045 4.881 1.683.133.412.156.851.068 1.275.71-.837 1.005-1.857.7-2.792-.539-1.638-2.725-2.393-4.88-1.683a5.224 5.224 0 00-.898.389 4.601 4.601 0 00-.424-.098c.04-.17.07-.338.093-.508zM157.164 116.955a5.4 5.4 0 00-.812 1.583c.189-.26.402-.502.636-.723.033-.291.092-.579.176-.86zM170.265 92.317a4.59 4.59 0 01.036-.938 5.31 5.31 0 00-1.337 2.189c.351-.495.792-.92 1.301-1.251zM166.935 110.922a5.21 5.21 0 01-.212.931 5.666 5.666 0 00.789-1.581c-.174.233-.367.45-.577.65zM163.735 117.259a5.116 5.116 0 01-.213.93 5.608 5.608 0 00.792-1.581 5.045 5.045 0 01-.579.651zM165.335 114.088a5.042 5.042 0 01-.212.931 5.71 5.71 0 00.454-.718c.139-.273.255-.558.346-.85a5.139 5.139 0 01-.588.637zM168.535 107.754a5.177 5.177 0 01-.212.928 5.51 5.51 0 00.791-1.593 5.019 5.019 0 01-.579.665zM158.06 99.74c1.638-.537 3.539.779 4.243 2.94.1.312.171.633.212.958.364.284.682.623.943 1.005a5.36 5.36 0 01.441-1.222c.074-.144.155-.282.238-.425a4.495 4.495 0 00-.849-.888 5.458 5.458 0 00-.212-.956c-.709-2.161-2.61-3.479-4.244-2.939-.934.306-1.579 1.15-1.829 2.216a2.475 2.475 0 011.057-.688zM165.656 101.441a4.64 4.64 0 01.038-.935 5.276 5.276 0 00-1.016 1.396 5.479 5.479 0 00-.323.79 4.9 4.9 0 011.301-1.251zM167.96 96.876a4.641 4.641 0 01.039-.935 5.207 5.207 0 00-1.017 1.394c-.128.256-.236.52-.322.793.351-.495.792-.92 1.3-1.252zM162.136 120.427a5.23 5.23 0 01-.212.933 5.464 5.464 0 00.791-1.592 4.967 4.967 0 01-.579.659z"/></g><path opacity=".1" d="M182.45 79.39a5.024 5.024 0 001.746-1.98c1.042-2.061.611-4.38-.961-5.176-1.572-.797-3.692.23-4.734 2.293a5.031 5.031 0 00-.556 2.588 5.232 5.232 0 00-2.304 4.562 5.017 5.017 0 00-1.746 1.98 5.276 5.276 0 00-.321.785 4.424 4.424 0 012.285-1.7 2.6 2.6 0 003.298 1.665 4.44 4.44 0 010 2.85c.165-.229.313-.47.441-.723a5.029 5.029 0 00.556-2.581 5.227 5.227 0 002.304-4.562h-.008z" fill="#3F3D56"/><path opacity=".1" d="M207.776 50.143c.64-.299 1.258-.642 1.85-1.026l-6.86-5.019 8.063 4.158a15.323 15.323 0 005.729-10.69l-13.703.14 13.733-2.299a15.313 15.313 0 00-5.547-10.78 15.261 15.261 0 00-22.055 2.831 15.309 15.309 0 00-2.651 11.833 15.295 15.295 0 00-2.814 1.7l7.161 9.973-8.597-8.73a15.324 15.324 0 00-4.28 13.942 15.289 15.289 0 00-6.36 5.544 15.319 15.319 0 00-.255 16.23 15.29 15.29 0 006.182 5.742 15.26 15.26 0 0016.142-1.474 15.317 15.317 0 005.732-15.183 15.286 15.286 0 007.186-6.967 15.319 15.319 0 001.344-9.925z" fill="#fff"/><path opacity=".1" d="M179.157 46.25a15.27 15.27 0 00-1.348 9.926 15.28 15.28 0 00-6.359 5.544 15.31 15.31 0 00-.255 16.23 15.283 15.283 0 006.182 5.742 15.256 15.256 0 0016.141-1.474 15.298 15.298 0 005.043-6.768 15.317 15.317 0 00.689-8.416c2.999-1.394-19.325-22.316-20.093-20.783z" fill="#000"/><path opacity=".1" d="M196.374 24.099a2.27 2.27 0 002.268-2.272 2.27 2.27 0 00-2.268-2.272 2.27 2.27 0 00-2.269 2.272 2.27 2.27 0 002.269 2.271zM209.623 25.556a2.27 2.27 0 002.268-2.271 2.27 2.27 0 00-2.268-2.272 2.27 2.27 0 00-2.269 2.272 2.27 2.27 0 002.269 2.271zM214.732 45.968A2.27 2.27 0 00217 43.697a2.27 2.27 0 00-2.268-2.272 2.27 2.27 0 00-2.269 2.272 2.27 2.27 0 002.269 2.271zM207.836 56.161a2.27 2.27 0 002.268-2.271 2.27 2.27 0 00-2.268-2.272 2.27 2.27 0 00-2.269 2.272 2.27 2.27 0 002.269 2.271zM198.415 77.332a2.27 2.27 0 002.268-2.272 2.27 2.27 0 00-2.268-2.271 2.27 2.27 0 00-2.269 2.271 2.27 2.27 0 002.269 2.272z" fill="#fff"/><path opacity=".1" d="M198.415 77.332a2.27 2.27 0 002.268-2.272 2.27 2.27 0 00-2.268-2.271 2.27 2.27 0 00-2.269 2.271 2.27 2.27 0 002.269 2.272z" fill="#000"/><path opacity=".1" d="M177.468 53.354a2.27 2.27 0 002.268-2.271 2.27 2.27 0 00-2.268-2.272 2.27 2.27 0 00-2.268 2.272 2.27 2.27 0 002.268 2.271z" fill="#fff"/><path opacity=".1" d="M177.468 53.354a2.27 2.27 0 002.268-2.271 2.27 2.27 0 00-2.268-2.272 2.27 2.27 0 00-2.268 2.272 2.27 2.27 0 002.268 2.271zM175.049 88.445c-1.509-.763-1.965-2.924-1.084-4.917a4.12 4.12 0 00-.134.25c-1.042 2.062-.611 4.378.961 5.175 1.573.796 3.692-.23 4.732-2.29.045-.086.083-.173.121-.258-1.08 1.893-3.089 2.805-4.596 2.04zM172.808 92.882c-1.506-.763-1.965-2.924-1.082-4.92a6.067 6.067 0 00-.136.251c-1.041 2.061-.611 4.38.962 5.174 1.572.795 3.692-.227 4.733-2.29.043-.085.083-.17.121-.257-1.082 1.893-3.089 2.804-4.598 2.042zM170.568 97.316c-1.507-.763-1.965-2.924-1.082-4.917-.047.08-.094.164-.136.25-1.042 2.062-.609 4.378.963 5.175 1.573.797 3.69-.23 4.732-2.29.042-.086.083-.173.121-.258-1.08 1.894-3.089 2.805-4.598 2.04zM168.336 101.764c-1.509-.763-1.965-2.924-1.085-4.917-.046.08-.091.164-.135.249-1.04 2.06-.609 4.379.963 5.176 1.572.797 3.692-.23 4.732-2.293.044-.085.082-.17.121-.257-1.087 1.883-3.096 2.794-4.596 2.042zM166.089 106.188c-1.509-.763-1.965-2.924-1.085-4.917a3.92 3.92 0 00-.133.25c-1.042 2.062-.611 4.378.961 5.175 1.572.796 3.692-.23 4.734-2.291a9.91 9.91 0 00.121-.257c-1.078 1.893-3.092 2.805-4.598 2.04zM163.848 110.625c-1.507-.763-1.965-2.924-1.082-4.917a3.93 3.93 0 00-.136.248c-1.042 2.061-.611 4.38.963 5.176 1.575.797 3.682-.231 4.742-2.292.043-.085.083-.17.121-.257-1.092 1.893-3.091 2.804-4.608 2.042zM161.608 115.059c-1.507-.762-1.965-2.923-1.083-4.917-.046.083-.091.164-.135.251-1.04 2.061-.609 4.377.963 5.174 1.572.797 3.692-.229 4.732-2.29.044-.085.082-.173.121-.258-1.08 1.894-3.09 2.805-4.598 2.04zM159.368 119.496c-1.508-.763-1.964-2.924-1.084-4.917a4.92 4.92 0 00-.134.249c-1.041 2.061-.611 4.379.962 5.176 1.572.797 3.692-.23 4.733-2.293.043-.085.081-.17.119-.257-1.08 1.893-3.089 2.796-4.596 2.042z" fill="#000"/><path opacity=".1" d="M157.896 122.412c-1.507-.765-1.965-2.924-1.082-4.92a5.08 5.08 0 00-.136.251c-1.042 2.061-.611 4.38.961 5.174 1.572.795 3.692-.227 4.734-2.29.042-.085.083-.17.121-.257-1.082 1.893-3.092 2.804-4.598 2.042z" fill="#000"/><path opacity=".1" d="M198.378 102.669a7.95 7.95 0 00.425-2.08 1.14 1.14 0 001.067-.762 1.138 1.138 0 00-.364-1.26 1.137 1.137 0 00-.875-.235 7.92 7.92 0 00-4.168-5.378 1.137 1.137 0 00-1.366-1.591 1.135 1.135 0 00-.76.87 7.942 7.942 0 00-6.974 2.094 7.975 7.975 0 00-2.084-.062l-.919 4.188-.055-4.037a7.938 7.938 0 00-5.101 3.665 7.96 7.96 0 00.615 9.086 7.932 7.932 0 008.73 2.548 1.13 1.13 0 002.1-.322 1.143 1.143 0 00-.069-.681 7.956 7.956 0 001.018-.833 7.94 7.94 0 008.341-4.213l-4.276-.721 4.715-.276z" fill="#fff"/><path opacity=".1" d="M191.774 104.703c-1.579-2.087-2.546-4.558-3.66-6.93a28.965 28.965 0 00-1.501-2.839l-.836-.975c-.14.119-.28.242-.424.372a7.978 7.978 0 00-2.084-.062l-.918 4.188-.055-4.037a7.93 7.93 0 00-5.102 3.665 7.958 7.958 0 003.087 11.13 7.913 7.913 0 006.258.504c.11.198.276.358.478.459a1.128 1.128 0 001.289-.184 1.135 1.135 0 00.264-1.278 7.88 7.88 0 001.018-.832 7.953 7.953 0 004.762-.706 11.19 11.19 0 01-2.576-2.475z" fill="#000"/><path opacity=".1" d="M163.818 95.735a1.132 1.132 0 00-.46-1.503 1.13 1.13 0 00-.554-.143 7.946 7.946 0 00-2.483-4.427c.208-.81.287-1.65.234-2.486l-4.17-.712 4.049-.255a8.196 8.196 0 00-.299-1.121c.157-.11.286-.255.373-.425a1.141 1.141 0 00-.164-1.266 1.138 1.138 0 00-1.234-.315 7.938 7.938 0 00-9.817-2.623 7.949 7.949 0 00-3.838 3.808 7.968 7.968 0 00-.517 5.385 1.14 1.14 0 00-.389 1.81 1.133 1.133 0 001.257.287 7.98 7.98 0 001.504 1.838 7.959 7.959 0 00.37 5.049l5.591-1.453-4.987 2.626a7.941 7.941 0 008.544 3.504 7.933 7.933 0 004.152-2.504 7.962 7.962 0 001.926-4.455 1.127 1.127 0 00.912-.619z" fill="#fff"/><path opacity=".1" d="M163.818 95.735a1.132 1.132 0 00-.46-1.503 1.133 1.133 0 00-.554-.143 7.946 7.946 0 00-2.483-4.427c.034-.134.064-.265.089-.4-.148.108-.285.23-.409.364-.753.827-1.139 1.938-1.884 2.773-.879.986-2.194 1.5-3.508 1.639-1.313.138-2.635-.064-3.931-.317-1.074-.213-2.163-.459-3.251-.355-.106 0-.212.023-.31.04.064.062.127.124.193.183a7.965 7.965 0 00.369 5.049l5.592-1.456-4.987 2.627a7.941 7.941 0 008.544 3.504 7.94 7.94 0 004.152-2.504 7.962 7.962 0 001.926-4.455 1.125 1.125 0 00.912-.619z" fill="#000"/></g><g opacity=".1"><path opacity=".1" d="M18.988 108.634c.272-.827 1.373-1.207 2.46-.85.156.051.307.116.451.195.07-.019.143-.036.213-.049a2.395 2.395 0 01-.068-.727 2.643 2.643 0 01-1.16-2.299 2.535 2.535 0 01-.88-.996 2.556 2.556 0 01-.282-1.301 2.545 2.545 0 01-.878-.998c-.522-1.037-.31-2.204.486-2.608.796-.403 1.86.117 2.385 1.154.207.402.304.851.28 1.303a2.628 2.628 0 011.16 2.297 2.635 2.635 0 011.16 2.299 2.628 2.628 0 011.162 2.297 2.544 2.544 0 011.093 1.615c.13-.193.29-.364.473-.508.022-.164.059-.325.11-.482.359-1.088 1.316-1.751 2.141-1.488.825.264 1.203 1.375.849 2.463-.147.467-.428.88-.809 1.188a2.681 2.681 0 01-.11.48 2.356 2.356 0 01-1.084 1.364c.04.139.07.281.089.425.219.211.4.457.537.729.139.271.23.565.267.867.22.21.402.457.54.729.138.271.228.565.266.867.22.211.403.458.54.731.523 1.037.307 2.205-.484 2.605-.792.399-1.861-.115-2.385-1.154a2.652 2.652 0 01-.268-.867 2.699 2.699 0 01-.806-1.596 2.696 2.696 0 01-.806-1.595 2.683 2.683 0 01-.807-1.596 2.676 2.676 0 01-.536-.729 2.624 2.624 0 01-.268-.867 2.49 2.49 0 01-.363-.425 2.519 2.519 0 01-1.31-.081 2.789 2.789 0 01-.455-.197 2.47 2.47 0 01-1.432-.051c-1.076-.36-1.74-1.318-1.47-2.144z" fill="#3F3D56"/><g opacity=".1" fill="#000"><path opacity=".1" d="M20.905 105.376c.112.111.236.21.369.295-.018.305.022.611.119.901a2.653 2.653 0 01-.488-1.196zM19.744 103.081c.113.11.236.208.369.293-.018.306.022.613.119.903a2.696 2.696 0 01-.488-1.196zM22.382 102.225c.01-.158.004-.316-.017-.472a2.696 2.696 0 01.672 1.103c-.177-.25-.399-.464-.655-.631zM29.743 116.134a2.485 2.485 0 00-.314-.361 2.642 2.642 0 00-.093-.425 2.836 2.836 0 01.407.786zM28.931 114.538a2.491 2.491 0 00-.314-.361 2.499 2.499 0 00-.089-.425c.175.237.31.501.4.782l.003.004zM22.067 107.679c.111.111.235.208.367.291-.016.245.007.49.068.727a2.203 2.203 0 00-.212.049 2.779 2.779 0 00-.454-.195c-1.086-.357-2.188.023-2.457.85-.068.205-.08.425-.036.637a1.474 1.474 0 01-.352-1.405c.271-.826 1.372-1.206 2.459-.85.156.052.307.117.452.196.07-.019.142-.036.212-.049a2.156 2.156 0 01-.047-.251zM30.143 116.935a2.729 2.729 0 01.407.797 2.455 2.455 0 00-.314-.363 2.652 2.652 0 00-.093-.434zM23.542 104.526c.01-.157.005-.316-.017-.472a2.664 2.664 0 01.673 1.101 2.417 2.417 0 00-.656-.629zM25.22 113.897c.02.159.055.315.104.467a2.67 2.67 0 01-.399-.801c.088.12.187.232.295.334zM26.83 117.088c.021.159.057.315.106.468a2.728 2.728 0 01-.399-.793c.089.116.187.225.293.325zM26.026 115.493c.02.158.055.315.104.467a2.662 2.662 0 01-.225-.368 2.651 2.651 0 01-.174-.425c.089.117.188.226.295.326zM24.414 112.299c.02.159.054.317.104.469a2.602 2.602 0 01-.213-.367 2.616 2.616 0 01-.176-.425c.085.116.18.224.285.323zM29.692 108.264c-.826-.272-1.783.391-2.14 1.487a2.688 2.688 0 00-.11.482 2.283 2.283 0 00-.475.506 2.743 2.743 0 00-.341-.828c.12-.168.263-.318.424-.447.022-.164.059-.325.11-.482.359-1.088 1.316-1.751 2.141-1.487a1.474 1.474 0 01.92 1.117 1.264 1.264 0 00-.53-.348zM25.863 109.12c.01-.157.005-.315-.017-.472a2.664 2.664 0 01.673 1.103 2.409 2.409 0 00-.656-.631zM24.702 106.821a2.37 2.37 0 00-.017-.472c.207.206.38.443.511.703.064.129.118.263.162.4-.177-.25-.4-.464-.656-.631zM27.637 118.684c.02.16.056.317.106.47a2.694 2.694 0 01-.225-.37 2.728 2.728 0 01-.174-.425c.09.116.187.225.293.325z"/></g><path opacity=".1" d="M17.404 98.011a2.531 2.531 0 01-.879-.996c-.524-1.04-.307-2.206.484-2.608.791-.401 1.86.115 2.385 1.154.207.4.304.85.28 1.3a2.634 2.634 0 011.16 2.3c.377.248.681.592.881.996.064.128.118.26.162.395a2.246 2.246 0 00-1.153-.85 1.31 1.31 0 01-1.661.85 2.24 2.24 0 000 1.435 2.776 2.776 0 01-.212-.364 2.548 2.548 0 01-.282-1.3 2.638 2.638 0 01-1.161-2.3l-.004-.012z" fill="#3F3D56"/><path opacity=".1" d="M4.647 83.277a7.812 7.812 0 01-.932-.517l3.455-2.528-4.062 2.093A7.72 7.72 0 01.225 76.94l6.904.073-6.919-1.16a7.72 7.72 0 012.766-5.496 7.697 7.697 0 018.867-.692 7.706 7.706 0 013.583 5 7.722 7.722 0 01.02 3.142c.502.233.977.517 1.418.85l-3.607 5.024 4.33-4.395a7.72 7.72 0 012.157 7.023 7.72 7.72 0 01.224 13.872 7.697 7.697 0 01-10.679-4.159 7.722 7.722 0 01-.346-4.243 7.703 7.703 0 01-3.616-3.506 7.72 7.72 0 01-.68-4.994v-.002z" fill="#fff"/><path opacity=".1" d="M19.065 81.318a7.684 7.684 0 01.679 5 7.72 7.72 0 01.224 13.871 7.69 7.69 0 01-8.139-.745 7.71 7.71 0 01-2.885-7.657c-1.513-.703 9.732-11.24 10.12-10.47z" fill="#000"/><path opacity=".1" d="M10.39 70.158a1.144 1.144 0 10-.001-2.289 1.144 1.144 0 00.001 2.289zM3.715 70.893a1.144 1.144 0 10-.001-2.289 1.144 1.144 0 00.001 2.29zM1.144 81.175a1.145 1.145 0 10-.002-2.289 1.145 1.145 0 00.002 2.29zM4.618 86.311a1.145 1.145 0 10-.002-2.289 1.145 1.145 0 00.002 2.29zM9.361 96.976a1.144 1.144 0 10-.001-2.289 1.144 1.144 0 00.001 2.29z" fill="#fff"/><path opacity=".1" d="M9.361 96.976a1.144 1.144 0 10-.001-2.289 1.144 1.144 0 00.001 2.29z" fill="#000"/><path opacity=".1" d="M19.914 84.896a1.145 1.145 0 10-.002-2.289 1.145 1.145 0 00.002 2.29z" fill="#fff"/><path opacity=".1" d="M19.914 84.896a1.145 1.145 0 10-.002-2.289 1.145 1.145 0 00.002 2.29zM21.134 102.573c.76-.384.988-1.472.545-2.477l.068.125c.524 1.039.307 2.206-.486 2.607-.794.402-1.859-.114-2.383-1.153-.021-.043-.043-.085-.062-.13.546.954 1.558 1.413 2.318 1.028zM22.26 104.809c.76-.385.991-1.475.548-2.478.023.04.046.083.068.125.524 1.04.307 2.206-.486 2.608-.794.401-1.86-.115-2.383-1.154-.024-.043-.043-.087-.062-.13.546.959 1.56 1.413 2.315 1.029zM23.389 107.042c.76-.385.99-1.472.545-2.478.025.043.047.083.07.128.524 1.037.305 2.206-.486 2.605-.791.4-1.859-.115-2.383-1.154a1.437 1.437 0 01-.061-.129c.543.954 1.555 1.413 2.315 1.028zM24.518 109.277c.76-.384.99-1.472.545-2.477.023.04.047.083.068.125.526 1.039.307 2.206-.484 2.607-.791.402-1.86-.114-2.385-1.153-.021-.043-.04-.088-.06-.13.544.952 1.556 1.413 2.316 1.028zM25.647 111.511c.76-.385.989-1.473.545-2.476.024.041.047.083.068.126.524 1.039.308 2.205-.483 2.607-.792.401-1.861-.117-2.385-1.154-.022-.045-.04-.087-.062-.13.545.952 1.558 1.411 2.317 1.027zM26.776 113.746c.76-.385.988-1.473.545-2.478.023.043.046.083.068.126.524 1.039.307 2.205-.484 2.607-.792.402-1.86-.115-2.385-1.154a2.47 2.47 0 01-.061-.129c.545.945 1.557 1.413 2.317 1.028zM27.904 115.982c.758-.385.99-1.475.546-2.478.023.04.046.083.068.125.524 1.039.307 2.206-.486 2.608-.794.401-1.859-.117-2.383-1.154-.021-.045-.043-.087-.062-.13.546.952 1.558 1.413 2.317 1.029zM29.03 118.215c.76-.385.992-1.473.546-2.478.026.043.047.083.07.128.524 1.037.306 2.205-.486 2.605-.791.399-1.859-.115-2.383-1.154a1.456 1.456 0 01-.061-.13c.545.954 1.555 1.413 2.315 1.029z" fill="#000"/><path opacity=".1" d="M29.78 119.683c.76-.384.989-1.472.545-2.477.024.042.047.082.068.127.524 1.037.308 2.206-.484 2.605-.791.4-1.86-.115-2.385-1.154a2.47 2.47 0 01-.061-.129c.539.958 1.551 1.413 2.317 1.028z" fill="#000"/><path opacity=".1" d="M9.38 109.739a3.956 3.956 0 01-.212-1.048.576.576 0 01-.417-.184.576.576 0 01-.085-.655.568.568 0 01.59-.298 3.998 3.998 0 012.098-2.709.574.574 0 01.689-.802.57.57 0 01.382.439 3.998 3.998 0 013.514 1.062c.35-.058.708-.068 1.061-.03l.463 2.108.01-2.033a3.998 3.998 0 013.064 3.372 4.012 4.012 0 01-2.073 4.059 3.991 3.991 0 01-3.13.28.57.57 0 01-.89.138.577.577 0 01-.134-.644 3.95 3.95 0 01-.512-.425 4.003 4.003 0 01-4.201-2.125l2.154-.363-2.37-.142z" fill="#fff"/><path opacity=".1" d="M12.708 110.763c.795-1.063 1.283-2.295 1.844-3.489.224-.492.476-.97.755-1.433l.424-.49c.072.061.142.123.212.187.351-.058.708-.068 1.061-.03l.463 2.108.006-2.027a4 4 0 013.064 3.372 4.01 4.01 0 01-2.073 4.059 3.99 3.99 0 01-3.13.28.57.57 0 01-1.059-.163.574.574 0 01.035-.343 3.956 3.956 0 01-.512-.425 4.03 4.03 0 01-2.4-.355c.501-.344.943-.766 1.31-1.251z" fill="#000"/><path opacity=".1" d="M26.79 106.245a.572.572 0 01.512-.829c.162-.86.6-1.644 1.25-2.231a3.974 3.974 0 01-.117-1.251l2.099-.353-2.04-.13c.037-.192.088-.381.153-.565a.556.556 0 01-.244-.543.575.575 0 01.76-.466 3.992 3.992 0 017.06 1.046 4.01 4.01 0 01.078 2.262.57.57 0 01-.437 1.056 3.99 3.99 0 01-.758.923 4.018 4.018 0 01-.184 2.549l-2.808-.739 2.51 1.324a4.005 4.005 0 01-5.57 1.233 4.01 4.01 0 01-1.395-1.56 4.064 4.064 0 01-.412-1.414.565.565 0 01-.456-.312z" fill="#fff"/><path opacity=".1" d="M26.79 106.245a.572.572 0 01.512-.829c.162-.86.6-1.644 1.25-2.231a3.486 3.486 0 01-.045-.199c.076.054.147.115.212.182.38.425.575.976.949 1.396a2.735 2.735 0 001.767.827 6.69 6.69 0 001.98-.159 5.798 5.798 0 011.638-.181l.157.021-.098.092a4.023 4.023 0 01-.184 2.55l-2.814-.74 2.51 1.324a4.005 4.005 0 01-5.57 1.233 4.004 4.004 0 01-1.395-1.56 4.065 4.065 0 01-.412-1.413.566.566 0 01-.456-.313z" fill="#000"/></g><path opacity=".5" d="M73.49 11.03a4.288 4.288 0 00-2.491.272 3.67 3.67 0 01-2.992 0 4.187 4.187 0 00-3.518.07c-.312.165-.66.252-1.012.253-1.426 0-2.612-1.438-2.858-3.336.284-.208.526-.47.713-.769.836-1.35 2.121-2.216 3.583-2.216 1.462 0 2.735.85 3.571 2.19A2.76 2.76 0 0070.854 8.8h.039c1.124-.006 2.107.905 2.597 2.231z" fill="#fff"/><path opacity=".7" d="M77.823 5.08l-2.305 1.465 1.399-2.55a2.277 2.277 0 00-1.394-.497h-.036c-.16.002-.32-.01-.478-.037l-.783.498.335-.61a2.799 2.799 0 01-1.366-1.03l-1.403.877.883-1.609C71.858.603 70.755 0 69.543 0c-1.453 0-2.758.867-3.586 2.216a2.68 2.68 0 01-2.37 1.275h-.07c-1.604 0-2.907 1.821-2.907 4.072 0 2.25 1.303 4.069 2.907 4.069.353-.001.7-.088 1.012-.253a4.18 4.18 0 013.518-.068 3.682 3.682 0 002.992 0 4.185 4.185 0 013.486.068c.31.16.653.245 1.002.246 1.606 0 2.907-1.82 2.907-4.069a5.183 5.183 0 00-.611-2.475z" fill="#fff"/><path opacity=".5" d="M25.536 40.469a6.146 6.146 0 00-3.558.386 5.237 5.237 0 01-4.273-.01 5.98 5.98 0 00-5.025.1c-.446.235-.943.36-1.447.361-2.037 0-3.732-2.055-4.085-4.766a3.91 3.91 0 001.019-1.099c1.195-1.927 3.045-3.166 5.122-3.166s3.904 1.224 5.092 3.13a3.932 3.932 0 003.395 1.864h.053c1.609-.002 3.013 1.3 3.707 3.2z" fill="#fff"/><path opacity=".7" d="M31.732 31.959l-3.293 2.09 1.999-3.64a3.252 3.252 0 00-1.992-.711h-.054a3.842 3.842 0 01-.683-.051l-1.112.72.48-.871a3.969 3.969 0 01-1.952-1.487l-1.999 1.274 1.258-2.316c-1.169-1.404-2.743-2.265-4.475-2.265-2.077 0-3.927 1.237-5.122 3.164a3.833 3.833 0 01-3.395 1.83h-.112c-2.294 0-4.153 2.603-4.153 5.816 0 3.212 1.86 5.815 4.153 5.815a3.097 3.097 0 001.447-.363 5.978 5.978 0 015.024-.098 5.235 5.235 0 004.274.01 5.987 5.987 0 014.982.097c.441.23.932.353 1.43.354 2.294 0 4.152-2.605 4.152-5.815a7.395 7.395 0 00-.857-3.553zM158.707 19.318a4.289 4.289 0 012.491.272 3.66 3.66 0 002.989 0 4.192 4.192 0 013.518.07c.312.165.66.251 1.012.253 1.426 0 2.614-1.439 2.861-3.337a2.741 2.741 0 01-.713-.769c-.832-1.353-2.133-2.227-3.59-2.227-1.458 0-2.733.85-3.569 2.191a2.764 2.764 0 01-2.373 1.311h-.036c-1.129-.002-2.113.91-2.59 2.236z" fill="#fff"/><path opacity=".7" d="M154.361 13.368l2.304 1.46-1.4-2.55a2.281 2.281 0 011.394-.497h.038c.16.001.32-.01.478-.037l.78.498-.335-.61a2.8 2.8 0 001.379-1.027l1.399.889-.885-1.609c.819-.984 1.909-1.587 3.134-1.587 1.453 0 2.758.867 3.586 2.216a2.675 2.675 0 002.37 1.275h.076c1.606 0 2.907 1.821 2.907 4.071s-1.301 4.07-2.907 4.07a2.19 2.19 0 01-1.012-.253 4.178 4.178 0 00-3.518-.068 3.68 3.68 0 01-2.99 0 4.187 4.187 0 00-3.488.068c-.309.16-.653.245-1.001.246-1.605 0-2.907-1.82-2.907-4.069a5.173 5.173 0 01.598-2.486z" fill="#fff"/><path opacity=".1" d="M130.626 165.08c13.477 0 24.401-1.903 24.401-4.25s-10.924-4.25-24.401-4.25c-13.476 0-24.401 1.903-24.401 4.25s10.925 4.25 24.401 4.25z" fill="#fff"/><path d="M117.855 140.643l-37.809-.486.113-.971 1.827-16.02h33.204l2.443 16.02.186 1.215.036.242z" fill="#E6E6E8"/><path opacity=".1" d="M117.819 140.401H98.952l-18.906-.244.113-.971h37.474l.186 1.215z" fill="#000"/><path d="M123.915 139.43h-50.17v1.213h50.17v-1.213z" fill="#E6E6E8"/><path d="M171.782 26.95a3.155 3.155 0 00-3.141-3.17H28.532a3.15 3.15 0 00-2.905 1.964 3.164 3.164 0 00-.235 1.21v85.05h146.39V26.95z" fill="#3F3D56"/><path d="M25.392 111.154v9.961c0 .834.33 1.634.92 2.224.589.59 1.387.921 2.22.921h140.109c.833 0 1.632-.331 2.221-.921.589-.59.92-1.39.92-2.224v-9.961H25.392z" fill="#E6E6E8"/><path d="M166.45 29.113H31.452v76.457H166.45V29.114zM99.314 120.48a3.26 3.26 0 002.829-1.625l-1.798-.304 1.942.012a3.285 3.285 0 00.061-2.594l-2.603 1.351 2.402-1.768a3.256 3.256 0 00-2.101-1.546 3.264 3.264 0 00-3.49 1.439 3.276 3.276 0 00.187 3.775 3.262 3.262 0 002.571 1.26z" fill="#fff"/><path opacity=".1" d="M102.586 124.258l15.084 15.172-2.315-15.172h-12.769z" fill="#000"/><path opacity=".1" d="M166.49 29.122H31.346v4.466H166.49v-4.466z" fill="#444053"/><path opacity=".3" d="M118.864 29.9H78.392a.123.123 0 00-.123.123v2.471c0 .068.055.123.123.123h40.472a.124.124 0 00.123-.123v-2.471a.124.124 0 00-.123-.123z" fill="#fff"/><path d="M117.776 31.54h-.099l-.036-.032a.81.81 0 00-.309-1.267.803.803 0 10-.3 1.548c.193-.001.38-.07.528-.194l.036.032v.1l.622.622.184-.186-.626-.623zm-.744 0a.558.558 0 01-.552-.67.559.559 0 011.11.108.565.565 0 01-.344.52.555.555 0 01-.214.042z" fill="#3F3D56"/><path opacity=".8" d="M33.775 32.173a.817.817 0 100-1.635.817.817 0 000 1.635z" fill="#FA5959"/><path opacity=".8" d="M36.022 32.173a.817.817 0 10-.001-1.635.817.817 0 00.001 1.635z" fill="#F0E4C1"/><path opacity=".8" d="M38.271 32.173a.817.817 0 10-.001-1.635.817.817 0 00.001 1.635z" fill="#8CCF4D"/><path d="M106.102 61.92c-1.853-2.465-4.537-4.02-7.524-4.02-2.988 0-5.672 1.555-7.524 4.02a8.12 8.12 0 009.135 4.908 8.12 8.12 0 005.913-4.908z" fill="#8698F7"/><path d="M89.703 63.15c.116.085.241.156.373.213 1.422 2.879 4.367 5.082 7.747 5.267v13.653c-2.557-.153-4.604-1.443-6.325-3.455a4.276 4.276 0 00-.36.31 1.002 1.002 0 00-.25 1.08 1.527 1.527 0 01-.926 1.967 1.521 1.521 0 01-1.949-.96 1.527 1.527 0 01.618-1.76c.234-.846.787-1.608 1.687-2.308a13.697 13.697 0 01-1.814-5.667c-.131.002-.262.01-.393.026a.973.973 0 00-.787.637 1.526 1.526 0 11-2.218-1.844 1.523 1.523 0 01.975-.208c.228-.165.48-.29.749-.374a5.732 5.732 0 011.617-.262c.054-1.417.321-2.818.793-4.156a6.154 6.154 0 01-.965-.68 3.069 3.069 0 01-.705-.926 1.05 1.05 0 00-.405-.425 1.694 1.694 0 01-.36-.291 1.527 1.527 0 01.893-2.547 1.521 1.521 0 011.74 1.372c.026.277-.025.555-.147.805a1.5 1.5 0 00.412.533zM107.55 63.15a1.953 1.953 0 01-.375.213c-1.425 2.88-4.379 5.083-7.768 5.268v13.652c2.564-.153 4.617-1.443 6.343-3.455.149.112.259.214.361.31a.994.994 0 01.249 1.08 1.526 1.526 0 001.727 2.025 1.523 1.523 0 001.157-1.018 1.527 1.527 0 00-.62-1.76c-.234-.846-.789-1.608-1.691-2.307a13.68 13.68 0 001.819-5.667c.132 0 .263.01.394.025a.977.977 0 01.789.638 1.527 1.527 0 002.057.857 1.53 1.53 0 00.902-1.301 1.523 1.523 0 00-.735-1.401 1.533 1.533 0 00-.977-.208 2.62 2.62 0 00-.751-.374 5.762 5.762 0 00-1.622-.261 14.072 14.072 0 00-.795-4.157c.343-.195.668-.422.968-.68.292-.26.532-.575.706-.926.092-.177.233-.325.407-.425.133-.08.255-.178.361-.291a1.522 1.522 0 00-.147-2.214 1.53 1.53 0 00-2.205.274 1.528 1.528 0 00-.141 1.57c-.096.207-.237.39-.413.534z" fill="#8698F7"/><path d="M144.496 158.352a2.025 2.025 0 00-.46-.512c-.927-.877-1.358-2.165-1.587-3.427-.229-1.263-.295-2.55-.662-3.785-.2-.633-.45-1.249-.747-1.842-.212-.455-.48-1.345-.868-1.664a.572.572 0 00-.267-.13 3.168 3.168 0 00-.768-1.024c-.607-.55-1.348-.988-1.753-1.7a3.798 3.798 0 00-.41-.699c-.273-.302-.706-.425-.959-.743-.329-.413-.254-1.003-.212-1.528.043-.525 0-1.154-.454-1.43-.272-.168-.622-.151-.904-.3-.424-.212-.592-.748-.583-1.226.008-.478.157-.944.195-1.422.119-1.521-.883-3.034-.497-4.509.147-.559.482-1.043.73-1.564a3.16 3.16 0 00.212-.539 7.56 7.56 0 002.067.499c-1.169-2.626-.872-5.678-1.417-8.5l.07-.095a4.432 4.432 0 00.895-2.52c0-1.05-.49-2.032-.711-3.06-.188-.874-.18-1.787-.424-2.646a8.041 8.041 0 00-.67-1.534 31.11 31.11 0 00-.834-1.451l-.817-2.703c-.382-1.264-.775-2.55-1.517-3.642-.272-.4-.355-1.211-.773-1.454a1.864 1.864 0 00-1.103-.193c-.59-.331-1.108-.81-1.182-1.464a1.449 1.449 0 01.042-.425h.073c.933-.085 1.406-.91 1.892-1.632.785-1.169.486-2.75 0-4.08a2.757 2.757 0 00-.636-1.124c-.681-.637-1.759-.497-2.638-.805-.295-.102-.57-.257-.872-.33-.583-.136-1.194.056-1.729.326-.535.27-1.033.618-1.594.83-.56.213-1.251.38-1.389.957-.039.194-.023.394.046.58.129.37.356.697.656.947a3.772 3.772 0 00-.378 1.579 3.79 3.79 0 001.27 2.904c.409.363.891.633 1.414.791.162.26.312.523.45.793.246.476.454 1.037.369 1.547a4.725 4.725 0 00-.424.521c-.609.85-.955 1.846-1.273 2.841a30.009 30.009 0 00-1.025 3.882c-.518 1.103-1.15 2.157-1.525 3.315-.673 0-1.342-.09-1.991-.268l-1.791-.406c-.623-.142-1.273-.295-1.761-.708-.259-.212-.46-.495-.723-.705-.263-.21-.792-.457-1.08-.283a.845.845 0 00-.147.113c-.263-.533-.513-1.063-.819-1.579-.439-.722-1.092-1.383-1.92-1.521a1.953 1.953 0 00-1.441.335c-.483.345-.787 1.063-.424 1.547.091.108.189.209.295.302.246.283.465.589.656.912a4.649 4.649 0 002.862 1.861l-.074.213c-.151.442-.471.975-.391 1.434l7.966 2.73a4.888 4.888 0 001.604.355c.215-.002.428-.03.636-.085v.425c.021 2.803-.424 5.587-.507 8.387-.015.512 0 1.063.323 1.462.36.438 1.001.525 1.559.425.135-.022.266-.052.395-.089.189.705.325 1.423.407 2.148l.526 3.795c.068.389.096.783.083 1.178-.061.89-.53 1.687-.87 2.509-.339.822-.541 1.806-.095 2.575.14.238.333.44.458.687.159.381.232.794.212 1.207.033 1.144.064 2.29.094 3.438a.388.388 0 00-.268.053c-.441.344-.392 1.982-.424 2.49-.034.85 0 1.717-.047 2.576a15.347 15.347 0 01-.554 3.419 2.184 2.184 0 01-.485.979c-.249.216-.545.37-.864.449a9.872 9.872 0 01-3.27.446c-.448-.015-.914-.058-1.33.112-.416.17-.751.638-.601 1.063.13.357.522.527.877.661.809.285 1.59.645 2.334 1.075.286.195.587.366.901.512.302.108.613.185.93.23l3.762.65c.77.132 1.697.212 2.187-.425.266-.344.304-.812.291-1.25-.021-.85-.191-1.714-.081-2.564a7.89 7.89 0 01.395-1.473c.375-1.115.751-2.229 1.129-3.342.378-1.118.76-2.246.906-3.419.053-.425.049-.91-.276-1.175a.742.742 0 00-.28-.145c-.013-1.024-.146-2.051-.089-3.075.015-.255.04-.51.061-.767.197.187.373.395.525.621.362.569.496 1.321 1.05 1.7.471.323 1.169.306 1.5.773.106.18.186.374.238.576.192.501.48.959.848 1.349.127.467.302.918.524 1.347l.934 1.979c.319.709.673 1.402 1.061 2.076.297.424.536.885.711 1.372.299 1.05-.189 2.202-.961 2.975-.773.774-1.791 1.218-2.795 1.632a.792.792 0 00-.284.17.555.555 0 00-.13.37c0 .491.404.912.866 1.062.473.128.968.146 1.449.054 2.712-.33 5.415-.993 7.813-2.312.359-.171.676-.416.931-.721a1.08 1.08 0 00.23-.532 1.08 1.08 0 00-.075-.575z" fill="url(#paint0_linear)"/><path d="M133.036 110.701c.453.696.878 1.408 1.274 2.138.277.483.503.993.672 1.524.246.85.24 1.757.425 2.624.212 1.02.708 1.993.708 3.038a4.368 4.368 0 01-.895 2.499 11.855 11.855 0 01-1.872 1.934 39.932 39.932 0 01-2.648-13.007c-.021-.616-.025-1.251.2-1.827.138-.361.8-1.351 1.226-.963.155.143.195.785.291.999.179.363.386.711.619 1.041z" fill="#2F2E41"/><path opacity=".1" d="M133.036 110.701c.453.696.878 1.408 1.274 2.138.277.483.503.993.672 1.524.246.85.24 1.757.425 2.624.212 1.02.708 1.993.708 3.038a4.368 4.368 0 01-.895 2.499 11.855 11.855 0 01-1.872 1.934 39.932 39.932 0 01-2.648-13.007c-.021-.616-.025-1.251.2-1.827.138-.361.8-1.351 1.226-.963.155.143.195.785.291.999.179.363.386.711.619 1.041z" fill="#000"/><path d="M77.097 81.711c-1.678 1.679-1.88 2.418-2.888 2.752-1.008.334-4.634 2.214-3.495 4.299l3.064 2.027.09.06.468 1.41-4.634 8.262s-7.638-3.498-8.387 1.677c-.75 5.174-.274 6.587-.476 9.349-.201 2.762.066 3.561-.606 3.561-.673 0-.938-1.814-.938-1.814s-.043-.083-.117-.238c-1-2.08-7.783-17.352 3.083-27.85 0 0 5.033-.33 6.244-6.11.837-3.995 3.76-3.651 5.704-2.837.632.248 1.22.594 1.744 1.026a8.6 8.6 0 011.25 1.487c.554.876.855 1.975-.106 2.94z" fill="#E6E6E8"/><path opacity=".1" d="M73.867 90.848l.469 1.411-4.634 8.262s-7.639-3.498-8.388 1.676c-.749 5.174-.273 6.588-.475 9.35-.202 2.762.066 3.561-.607 3.561-.672 0-.938-1.814-.938-1.814s-.042-.083-.116-.238c-.338-2.584-2.048-17.699 4.152-16.895 0 0 5.03 2.354 5.835 1.415.636-.744 3.463-5.021 4.613-6.777l.089.05zM77.203 78.76l-3.064 3.487s-3.558 4.768-4.297 4.566a3.434 3.434 0 00-.672-.079 1.307 1.307 0 01-1.183-1.559 1.31 1.31 0 01.334-.646c1.214-1.275 3.45-3.695 3.596-4.233.147-.538 1.57-2.894 2.284-4.048.631.248 1.22.594 1.744 1.026.474.446.896.945 1.258 1.486z" fill="#000"/><path d="M163.893 128.927c-.52 1.041-3.183 4.946-4.348 6.653l-.545.803s-.212 1.411-3.69-.338c-3.478-1.749-85.187-36.276-85.187-36.276l-.554-1.666 4.031-6.046 89.557 34.651s1.408.874.736 2.219z" fill="#454B69"/><path opacity=".1" d="M159.545 135.58l-.545.803s-.212 1.411-3.69-.338c-3.478-1.749-85.187-36.276-85.187-36.276l-.554-1.666 89.976 37.477z" fill="#000"/><path d="M110.259 113.026c-.83-.136-1.751-.07-2.396.469-.39.331-.636.8-.687 1.309-.055.589.286 1.288.876 1.333.142.001.284-.008.424-.028.373-.001.745.03 1.112.094a4.534 4.534 0 003.868-1.564c.507-.638-.161-.914-.759-1.042-.819-.174-1.619-.439-2.438-.571z" fill="#FBBEBE"/><path d="M124.45 132.216l.526 3.744c.067.386.095.779.081 1.171-.061.882-.53 1.672-.868 2.488-.337.816-.543 1.793-.095 2.55.138.236.331.438.456.682.159.378.232.787.212 1.196l.144 5.313c1.638.111 3.282.102 4.919-.028a.277.277 0 00.178-.055.295.295 0 00.062-.194c.072-1.243-.145-2.488-.075-3.731.026-.455.09-.907.098-1.364.025-1.851-.887-3.664-.611-5.493.087-.462.2-.918.339-1.366.872-3.188.688-6.537.495-9.828a.233.233 0 00-.043-.149.229.229 0 00-.114-.062 6.042 6.042 0 00-5.47 1.042c-.232.187-.815.367-.968.59-.212.311.066.621.189.95.273.826.455 1.679.545 2.544z" fill="#3F3D56"/><path opacity=".1" d="M124.45 132.216l.526 3.744c.067.386.095.779.081 1.171-.061.882-.53 1.672-.868 2.488-.337.816-.543 1.793-.095 2.55.138.236.331.438.456.682.159.378.232.787.212 1.196l.144 5.313c1.638.111 3.282.102 4.919-.028a.277.277 0 00.178-.055.295.295 0 00.062-.194c.072-1.243-.145-2.488-.075-3.731.026-.455.09-.907.098-1.364.025-1.851-.887-3.664-.611-5.493.087-.462.2-.918.339-1.366.872-3.188.688-6.537.495-9.828a.233.233 0 00-.043-.149.229.229 0 00-.114-.062 6.042 6.042 0 00-5.47 1.042c-.232.187-.815.367-.968.59-.212.311.066.621.189.95.273.826.455 1.679.545 2.544z" fill="#000"/><path d="M134.289 131.087c-.248.517-.582.997-.73 1.552-.386 1.464.613 2.975.494 4.475-.038.474-.184.935-.195 1.409-.011.473.163 1 .584 1.219.282.145.636.13.901.296.448.274.499.896.454 1.419-.044.523-.118 1.107.213 1.515.252.317.685.44.957.74.161.215.298.447.409.692.405.71 1.146 1.143 1.753 1.7.607.557 1.12 1.373.848 2.144-.199.565-.759.914-1.298 1.18-.983.486-2.021.854-3.092 1.094a.745.745 0 01-.354.019.772.772 0 01-.31-.212c-.626-.615-1.273-1.258-1.561-2.085a2.171 2.171 0 00-.238-.569c-.331-.466-1.029-.449-1.5-.77-.552-.376-.686-1.122-1.046-1.685-.361-.563-.889-.899-1.273-1.394-.65-.824-.809-1.925-1.274-2.866-.197-.4-.449-.774-.606-1.19a6.498 6.498 0 01-.291-1.539c-.299-2.481-1.061-4.98-.581-7.437.106-.539.269-1.062.337-1.619.117-.963-.068-1.948.074-2.909a.805.805 0 01.321-.618.847.847 0 01.365-.075 24.874 24.874 0 013.772.085c.637.062 1.35.192 1.732.712.324.446.307 1.044.411 1.585.13.668.467 1.031.821 1.554.355.522.164 1.039-.097 1.578z" fill="#3F3D56"/><path d="M129.394 148.355c.335 0 .706-.022.965.191.322.266.327.752.276 1.167-.149 1.164-.529 2.284-.908 3.399l-1.129 3.317a7.8 7.8 0 00-.395 1.462c-.11.85.06 1.7.081 2.55 0 .425-.028.897-.293 1.239-.48.618-1.415.546-2.185.425l-3.758-.638a4.448 4.448 0 01-.93-.227 6.486 6.486 0 01-.901-.508 13.903 13.903 0 00-2.334-1.062c-.353-.132-.747-.3-.875-.655-.15-.425.185-.892.601-1.062.416-.17.88-.128 1.33-.115a9.965 9.965 0 003.268-.442 2.06 2.06 0 00.861-.446 2.13 2.13 0 00.497-1.001c.32-1.107.511-2.248.569-3.4.044-.85.014-1.7.048-2.55.022-.503-.027-2.125.414-2.471.337-.259 1.725.457 2.181.561.858.197 1.737.286 2.617.266zM141.772 150.718c.367 1.217.425 2.505.662 3.756.238 1.252.658 2.529 1.585 3.4.181.144.336.316.461.51a1.08 1.08 0 01-.159 1.112 2.801 2.801 0 01-.932.716c-2.396 1.309-5.092 1.969-7.81 2.297-.481.09-.975.072-1.448-.053-.462-.158-.872-.574-.863-1.063a.544.544 0 01.127-.368.797.797 0 01.287-.167c1.001-.413 2.018-.861 2.792-1.622.774-.76 1.26-1.912.961-2.945a5.788 5.788 0 00-.715-1.362 22.994 22.994 0 01-1.061-2.059l-.933-1.961c-.274-.574-.55-1.165-.597-1.798a8.6 8.6 0 003.442-.552 5.43 5.43 0 001.415-.85c.361-.302.69-.865 1.176-.472.39.314.636 1.201.865 1.649.298.589.547 1.202.745 1.832z" fill="#2F2E41"/><path d="M128.091 102.017c.093.816.883 1.353 1.636 1.676l-4.768 1.524c.308-.591.059-1.313-.246-1.913a10.946 10.946 0 00-.849-1.362c-.047-.066-.1-.148-.066-.225a.24.24 0 01.134-.104c.98-.438 1.99-.89 3.062-1.05.31-.044.895-.168 1.127.147.231.314-.075.931-.03 1.307z" fill="#FBBEBE"/><path opacity=".1" d="M128.091 102.017c.093.816.883 1.353 1.636 1.676l-4.768 1.524c.308-.591.059-1.313-.246-1.913a10.946 10.946 0 00-.849-1.362c-.047-.066-.1-.148-.066-.225a.24.24 0 01.134-.104c.98-.438 1.99-.89 3.062-1.05.31-.044.895-.168 1.127.147.231.314-.075.931-.03 1.307z" fill="#000"/><path d="M125.32 102.678a3.742 3.742 0 003.739-3.745 3.741 3.741 0 00-3.739-3.744 3.74 3.74 0 00-3.738 3.745 3.741 3.741 0 003.738 3.744z" fill="#FBBEBE"/><path d="M122.08 129.745c.363.435 1.002.52 1.56.425 1.305-.213 2.372-1.175 3.649-1.522 1.566-.425 3.223.122 4.702.791s2.95 1.487 4.566 1.602c-1.462-3.264-.626-7.191-2.024-10.482-.341-.805-.819-1.581-.895-2.452-.096-1.082.443-2.125.526-3.2.076-.959-.212-1.913-.488-2.826l-1.023-3.366c-.382-1.256-.774-2.533-1.515-3.613-.273-.397-.356-1.202-.772-1.442-.908-.525-2.285.136-3.27.172-.984.036-1.882.737-2.457 1.53-.609.837-.955 1.833-1.273 2.819a26.854 26.854 0 00-1.131 4.511c-.032.23-.059.459-.081.691-.212 2.182.098 4.377.115 6.57v.015c.021 2.782-.424 5.546-.507 8.326-.009.507.004 1.062.318 1.451z" fill="#2F2E41"/><path opacity=".1" d="M122.275 119.955c.732-.185 1.394-.659 1.963-1.177a8.24 8.24 0 001.303-1.487c.469-.735.846-1.525 1.122-2.353a27.467 27.467 0 001.485-6.857c.056-.637.072-1.321-.307-1.827a1.54 1.54 0 00-1.857-.451c-.501.245-.825.74-1.127 1.214-.596.939-1.196 1.891-1.58 2.936-.17.463-.295.939-.461 1.405-.168.459-.362.908-.581 1.345-.032.229-.06.459-.081.69-.197 2.183.104 4.369.121 6.562z" fill="#000"/><path d="M127.83 105.844c.379.505.362 1.196.309 1.825-.2 2.34-.699 4.644-1.485 6.857a10.548 10.548 0 01-1.122 2.371 8.285 8.285 0 01-1.303 1.488c-.722.659-1.6 1.247-2.578 1.256a4.908 4.908 0 01-1.604-.351l-7.968-2.715c-.08-.455.24-.986.391-1.424l.424-1.26c.121-.349.261-.725.577-.914.316-.189.817.07 1.08.281.263.21.463.486.722.701.49.408 1.137.561 1.761.701l1.788.402a7.48 7.48 0 001.991.265c.498-1.525 1.447-2.868 1.984-4.381.165-.464.29-.942.462-1.405.382-1.045.985-1.995 1.581-2.937.299-.471.624-.966 1.127-1.213a1.53 1.53 0 011.863.453zM126.512 99.78a1.871 1.871 0 00-.225-.702.587.587 0 00-.636-.28c-.374.117-.499.695-.889.714-.263.013-.452-.255-.535-.506-.083-.25-.127-.538-.325-.714a1.207 1.207 0 00-.462-.213c-.906-.286-1.842-.816-2.143-1.718a1.03 1.03 0 01-.049-.576c.138-.572.849-.744 1.39-.95.541-.206 1.061-.56 1.591-.827.531-.267 1.146-.457 1.73-.32.296.093.587.201.872.324.878.306 1.954.164 2.635.8.298.315.516.696.636 1.113.476 1.322.777 2.89-.01 4.05-.486.716-.957 1.534-1.891 1.621-1.086.092-1.517-.894-1.689-1.817z" fill="#2F2E41"/><g opacity=".1" fill="#000"><path opacity=".1" d="M124.853 98.555c-.083-.25-.127-.537-.323-.714a1.207 1.207 0 00-.462-.212c-.908-.287-1.842-.816-2.145-1.72a1.038 1.038 0 01-.047-.575.731.731 0 01.112-.253c-.345.15-.647.35-.732.703-.039.193-.022.393.049.576.301.903 1.237 1.432 2.143 1.72.168.037.325.109.463.212.197.176.24.46.324.714.085.253.272.518.535.505.263-.012.39-.252.558-.454-.231-.03-.399-.268-.475-.502zM128.825 101.139c-1.091.1-1.522-.895-1.698-1.81a1.84 1.84 0 00-.212-.701.59.59 0 00-.637-.281 1.126 1.126 0 00-.468.425.636.636 0 01.479.297c.12.217.197.455.225.702.172.915.603 1.912 1.697 1.81a1.75 1.75 0 001.121-.582c-.16.075-.332.122-.507.14z"/></g><path d="M172.529 140.667c3.784 0 6.851-.591 6.851-1.32 0-.729-3.067-1.319-6.851-1.319s-6.852.59-6.852 1.319 3.068 1.32 6.852 1.32z" fill="#fff"/><path d="M172.414 139.832c.441 0 .798-.468.798-1.046 0-.577-.357-1.045-.798-1.045-.441 0-.798.468-.798 1.045 0 .578.357 1.046.798 1.046z" fill="#3F3D56"/><path d="M172.414 138.552c.441 0 .798-.468.798-1.045 0-.578-.357-1.046-.798-1.046-.441 0-.798.468-.798 1.046 0 .577.357 1.045.798 1.045z" fill="#3F3D56"/><path d="M172.414 137.275c.441 0 .798-.468.798-1.045s-.357-1.045-.798-1.045c-.441 0-.798.468-.798 1.045s.357 1.045.798 1.045z" fill="#3F3D56"/><path d="M172.414 135.996c.441 0 .798-.468.798-1.045 0-.578-.357-1.046-.798-1.046-.441 0-.798.468-.798 1.046 0 .577.357 1.045.798 1.045z" fill="#3F3D56"/><path d="M172.414 134.717c.441 0 .798-.468.798-1.046 0-.577-.357-1.045-.798-1.045-.441 0-.798.468-.798 1.045 0 .578.357 1.046.798 1.046z" fill="#3F3D56"/><path d="M172.414 133.44c.441 0 .798-.468.798-1.046 0-.577-.357-1.045-.798-1.045-.441 0-.798.468-.798 1.045 0 .578.357 1.046.798 1.046z" fill="#3F3D56"/><path d="M172.414 132.161c.441 0 .798-.468.798-1.046 0-.577-.357-1.045-.798-1.045-.441 0-.798.468-.798 1.045 0 .578.357 1.046.798 1.046z" fill="#3F3D56"/><path d="M175.399 122.376c.109-.139.209-.286.297-.438l-2.096-.344 2.268.015a3.843 3.843 0 00.072-3.033l-3.042 1.581 2.805-2.065a3.82 3.82 0 00-4.009-1.838 3.812 3.812 0 00-2.52 1.712 3.83 3.83 0 00.223 4.41 3.726 3.726 0 00-.437.697l2.722 1.417-2.903-.975a3.833 3.833 0 00.618 3.586 3.825 3.825 0 00-.432 4.035 3.816 3.816 0 006.87 0 3.834 3.834 0 00-.431-4.035 3.827 3.827 0 000-4.732l-.005.007z" fill="#fff"/><path opacity=".3" d="M168.573 124.734c-.001.86.29 1.694.823 2.367a3.825 3.825 0 00-.431 4.035 3.82 3.82 0 003.434 2.153 3.816 3.816 0 003.435-2.153 3.824 3.824 0 00-.431-4.035c.507-.652-6.83-2.796-6.83-2.367z" fill="#000"/><path d="M31.493 166.977c5.448 0 9.864-.85 9.864-1.899 0-1.05-4.416-1.9-9.864-1.9s-9.865.85-9.865 1.9c0 1.049 4.417 1.899 9.865 1.899z" fill="#fff"/><path d="M31.327 165.777c.634 0 1.147-.675 1.147-1.507 0-.832-.513-1.507-1.147-1.507s-1.148.675-1.148 1.507c0 .832.514 1.507 1.148 1.507z" fill="#3F3D56"/><path d="M31.327 163.937c.634 0 1.147-.675 1.147-1.507 0-.832-.513-1.506-1.147-1.506s-1.148.674-1.148 1.506.514 1.507 1.148 1.507z" fill="#3F3D56"/><path d="M31.327 162.096c.634 0 1.147-.674 1.147-1.506s-.513-1.507-1.147-1.507-1.148.675-1.148 1.507c0 .832.514 1.506 1.148 1.506z" fill="#3F3D56"/><path d="M31.327 160.256c.634 0 1.147-.674 1.147-1.506s-.513-1.507-1.147-1.507-1.148.675-1.148 1.507c0 .832.514 1.506 1.148 1.506z" fill="#3F3D56"/><path d="M31.327 158.416c.634 0 1.147-.675 1.147-1.507 0-.832-.513-1.506-1.147-1.506s-1.148.674-1.148 1.506.514 1.507 1.148 1.507z" fill="#3F3D56"/><path d="M31.327 156.574c.634 0 1.147-.675 1.147-1.507 0-.832-.513-1.506-1.147-1.506s-1.148.674-1.148 1.506.514 1.507 1.148 1.507z" fill="#3F3D56"/><path d="M31.327 154.734c.634 0 1.147-.675 1.147-1.507 0-.832-.513-1.507-1.147-1.507s-1.148.675-1.148 1.507c0 .832.514 1.507 1.148 1.507z" fill="#3F3D56"/><path d="M35.625 140.635c.156-.203.297-.416.425-.638l-3.018-.497 3.264.025a5.525 5.525 0 00.104-4.366l-4.375 2.282 4.031-2.975a5.501 5.501 0 00-7.851-1.811 5.506 5.506 0 00-2.353 3.717 5.52 5.52 0 001.116 4.256 5.529 5.529 0 00-.636 1.003l3.919 2.04-4.178-1.404a5.515 5.515 0 00.904 5.182 5.516 5.516 0 001.405 8.077 5.494 5.494 0 005.838 0 5.51 5.51 0 002.551-5.26 5.516 5.516 0 00-1.146-2.817 5.511 5.511 0 000-6.812v-.002z" fill="#fff"/><path opacity=".3" d="M25.799 144.05c0 1.233.415 2.431 1.177 3.399a5.516 5.516 0 001.405 8.077 5.494 5.494 0 005.84 0 5.516 5.516 0 001.405-8.077c.731-.939-9.827-4.026-9.827-3.399z" fill="#000"/></g><defs><linearGradient id="paint0_linear" x1="127.709" y1="162.841" x2="124.892" y2="93.119" gradientUnits="userSpaceOnUse"><stop stop-color="gray" stop-opacity=".25"/><stop offset=".54" stop-color="gray" stop-opacity=".12"/><stop offset="1" stop-color="gray" stop-opacity=".1"/></linearGradient><clipPath id="clip0"><path fill="#fff" d="M0 0h217v166.977H0z"/></clipPath></defs></svg>