<svg width="60" height="60" fill="none" xmlns="http://www.w3.org/2000/svg"><path d="M11.848 17.175V8.602c0-.726-.589-1.315-1.315-1.315h-4.38c-.726 0-1.315.589-1.315 1.315v8.573" fill="#E5E9EA"/><path d="M8.022 17.175V7.287h-1.87c-.725 0-1.314.589-1.314 1.315v8.573" fill="#D1D1D1"/><path d="M60 18.737v32.076c0 2.199-1.783 3.982-3.982 3.982H3.982A3.982 3.982 0 010 50.813V18.737c0-2.199 1.783-3.982 3.982-3.982h7.874a3.983 3.983 0 003.763-2.676l1.453-4.195a3.983 3.983 0 013.763-2.678h23.228a3.982 3.982 0 013.762 2.678l1.455 4.195a3.98 3.98 0 003.761 2.676h2.977c2.2 0 3.982 1.783 3.982 3.982z" fill="#FCB65F"/><path d="M7.104 54.795H3.982A3.982 3.982 0 010 50.813V18.737c0-2.199 1.783-3.982 3.982-3.982h2.875v.008a3.983 3.983 0 00-3.735 3.974v32.076c0 2.2 1.783 3.982 3.982 3.982zM23.958 5.206a3.983 3.983 0 00-3.763 2.678l-1.454 4.195a3.982 3.982 0 01-3.762 2.676h-2.672v-.025a3.981 3.981 0 003.312-2.651l1.453-4.195a3.982 3.982 0 013.763-2.678h3.123z" fill="#E29A4B"/><path d="M60 25.592v25.22c0 2.2-1.783 3.983-3.982 3.983H3.982A3.982 3.982 0 010 50.813V25.592h60z" fill="#6A80F5"/><path d="M7.104 54.795H3.982A3.982 3.982 0 010 50.812v-25.22h3.122v25.22c0 2.2 1.783 3.983 3.982 3.983z" fill="#5B70DE"/><path d="M29.999 51.06c9.162 0 16.59-7.428 16.59-16.59 0-9.163-7.428-16.591-16.59-16.591-9.163 0-16.59 7.428-16.59 16.59 0 9.163 7.427 16.591 16.59 16.591z" fill="#F3F5FA"/><path d="M41.73 34.47c0 3.454-1.493 6.559-3.87 8.707A11.684 11.684 0 0130 46.2c-3.025 0-5.782-1.145-7.862-3.024a11.7 11.7 0 01-3.87-8.708c0-3.454 1.494-6.56 3.87-8.706A11.68 11.68 0 0130 22.74c3.026 0 5.781 1.145 7.862 3.024a11.697 11.697 0 013.869 8.706z" fill="#566368"/><path d="M38.294 26.174a11.702 11.702 0 013.421 8.893c-3.2.162-6.45-.978-8.893-3.42a11.697 11.697 0 01-3.42-8.893c3.198-.163 6.45.978 8.892 3.42zM27.177 37.292a11.702 11.702 0 013.421 8.893 11.7 11.7 0 01-8.894-3.42 11.696 11.696 0 01-3.42-8.893c3.2-.163 6.45.977 8.893 3.42z" fill="#6F7B7F"/><path d="M30 47.119c-6.976 0-12.65-5.675-12.65-12.65 0-6.975 5.674-12.65 12.65-12.65 6.974 0 12.648 5.675 12.648 12.65 0 6.975-5.674 12.65-12.649 12.65zm0-23.462c-5.963 0-10.814 4.85-10.814 10.812S24.036 45.282 30 45.282c5.962 0 10.813-4.85 10.813-10.813 0-5.962-4.85-10.813-10.813-10.813z" fill="#435054"/><path d="M29.998 29.76a4.714 4.714 0 00-4.709 4.71A4.714 4.714 0 0030 39.179a4.714 4.714 0 004.708-4.71 4.715 4.715 0 00-4.709-4.709z" fill="#435054"/><path d="M35.96 13.837h7.217c.949 0 1.718-.769 1.718-1.718v-1.89c0-.949-.77-1.718-1.718-1.718H35.96c-.949 0-1.718.769-1.718 1.718v1.89c0 .949.77 1.718 1.718 1.718z" fill="#E5E9EA"/><path d="M43.177 14.756h-7.216a2.64 2.64 0 01-2.637-2.637v-1.89a2.64 2.64 0 012.637-2.636h7.216a2.64 2.64 0 012.637 2.636v1.89a2.64 2.64 0 01-2.637 2.637zm-7.216-5.327a.8.8 0 00-.8.8v1.89a.8.8 0 00.8.8h7.216a.8.8 0 00.8-.8v-1.89a.8.8 0 00-.8-.8h-7.216z" fill="#E29A4B"/><path d="M11.407 51.396a3.32 3.32 0 100-6.642 3.32 3.32 0 000 6.642z" fill="#323B6F"/></svg>